<mxfile host="65bd71144e">
    <diagram id="HIP3nbAZw_EuaXWnEj3U" name="Page-1">
        <mxGraphModel dx="863" dy="569" grid="1" gridSize="10" guides="1" tooltips="1" connect="1" arrows="1" fold="1" page="1" pageScale="1" pageWidth="850" pageHeight="1100" math="0" shadow="0">
            <root>
                <mxCell id="0"/>
                <mxCell id="1" parent="0"/>
                <mxCell id="7" value="http://ics2o.mths.ca" style="swimlane;whiteSpace=wrap;html=1;" parent="1" vertex="1">
                    <mxGeometry x="42" y="40" width="784" height="496.48" as="geometry"/>
                </mxCell>
                <mxCell id="8" value="&lt;font style=&quot;font-size: 21px;&quot;&gt;Museum survey&lt;/font&gt;" style="rounded=0;whiteSpace=wrap;html=1;align=left;glass=0;shadow=0;" vertex="1" parent="7">
                    <mxGeometry x="2" y="20" width="780" height="60" as="geometry"/>
                </mxCell>
                <mxCell id="9" value="Please enter your age and the day of the week" style="text;html=1;strokeColor=none;fillColor=none;align=center;verticalAlign=middle;whiteSpace=wrap;rounded=0;fontSize=21;" vertex="1" parent="7">
                    <mxGeometry y="100" width="460" height="30" as="geometry"/>
                </mxCell>
                <mxCell id="10" value="&lt;div align=&quot;left&quot;&gt;&lt;font style=&quot;font-size: 17px;&quot;&gt;Age..&lt;/font&gt;&lt;/div&gt;" style="rounded=0;whiteSpace=wrap;html=1;fontSize=21;align=left;" vertex="1" parent="7">
                    <mxGeometry x="30" y="160" width="120" height="40" as="geometry"/>
                </mxCell>
                <mxCell id="15" value="&lt;font style=&quot;font-size: 16px;&quot;&gt;Weekday&lt;/font&gt;" style="rounded=0;whiteSpace=wrap;html=1;fontSize=21;align=left;" vertex="1" parent="7">
                    <mxGeometry x="198" y="160" width="120" height="40" as="geometry"/>
                </mxCell>
                <mxCell id="16" value="" style="triangle;whiteSpace=wrap;html=1;fontSize=16;rotation=90;fillColor=#000000;" vertex="1" parent="7">
                    <mxGeometry x="288" y="165" width="10" height="30" as="geometry"/>
                </mxCell>
                <mxCell id="17" value="Check qualification" style="rounded=1;whiteSpace=wrap;html=1;fontSize=16;fillColor=none;" vertex="1" parent="7">
                    <mxGeometry x="30" y="300" width="150" height="30" as="geometry"/>
                </mxCell>
                <mxCell id="18" value="Answer: " style="text;html=1;strokeColor=none;fillColor=none;align=center;verticalAlign=middle;whiteSpace=wrap;rounded=0;fontSize=16;" vertex="1" parent="7">
                    <mxGeometry x="30" y="350" width="60" height="30" as="geometry"/>
                </mxCell>
                <mxCell id="19" value="" style="shape=image;verticalLabelPosition=bottom;labelBackgroundColor=default;verticalAlign=top;aspect=fixed;imageAspect=0;image=data:image/jpeg,/9j/4AAQSkZJRgABAQEBLAEsAAD/4QDqRXhpZgAASUkqAAgAAAABAA4BAgDIAAAAGgAAAAAAAABGcm9udCB2aWV3IG9mIGNvdXJ0IGhvdXNlLCBiYW5rLCB1bml2ZXJzaXR5LCBnb3Zlcm5tZW50YWwgaW5zdGl0dXRpb24uIFdoaXRlIGJyaWNrIHB1YmxpYyBidWlsZGluZyB3aXRoIGhpZ2ggY29sdW1ucyBhbmQgb3BlbiBkb29ycy4gRmxhdCBzdHlsZSBtb2Rlcm4gdmVjdG9yIGlsbHVzdHJhdGlvbiBpc29sYXRlZCBvbiB3aGl0ZSBiYWNrZ3JvdW5kLv/hBexodHRwOi8vbnMuYWRvYmUuY29tL3hhcC8xLjAvADw/eHBhY2tldCBiZWdpbj0i77u/IiBpZD0iVzVNME1wQ2VoaUh6cmVTek5UY3prYzlkIj8+Cjx4OnhtcG1ldGEgeG1sbnM6eD0iYWRvYmU6bnM6bWV0YS8iPgoJPHJkZjpSREYgeG1sbnM6cmRmPSJodHRwOi8vd3d3LnczLm9yZy8xOTk5LzAyLzIyLXJkZi1zeW50YXgtbnMjIj4KCQk8cmRmOkRlc2NyaXB0aW9uIHJkZjphYm91dD0iIiB4bWxuczpwaG90b3Nob3A9Imh0dHA6Ly9ucy5hZG9iZS5jb20vcGhvdG9zaG9wLzEuMC8iIHhtbG5zOklwdGM0eG1wQ29yZT0iaHR0cDovL2lwdGMub3JnL3N0ZC9JcHRjNHhtcENvcmUvMS4wL3htbG5zLyIgICB4bWxuczpHZXR0eUltYWdlc0dJRlQ9Imh0dHA6Ly94bXAuZ2V0dHlpbWFnZXMuY29tL2dpZnQvMS4wLyIgeG1sbnM6ZGM9Imh0dHA6Ly9wdXJsLm9yZy9kYy9lbGVtZW50cy8xLjEvIiB4bWxuczpwbHVzPSJodHRwOi8vbnMudXNlcGx1cy5vcmcvbGRmL3htcC8xLjAvIiAgeG1sbnM6aXB0Y0V4dD0iaHR0cDovL2lwdGMub3JnL3N0ZC9JcHRjNHhtcEV4dC8yMDA4LTAyLTI5LyIgeG1sbnM6eG1wUmlnaHRzPSJodHRwOi8vbnMuYWRvYmUuY29tL3hhcC8xLjAvcmlnaHRzLyIgcGhvdG9zaG9wOkNyZWRpdD0iR2V0dHkgSW1hZ2VzL2lTdG9ja3Bob3RvIiBHZXR0eUltYWdlc0dJRlQ6QXNzZXRJRD0iNjc1NjA5Nzc2IiB4bXBSaWdodHM6V2ViU3RhdGVtZW50PSJodHRwczovL3d3dy5pc3RvY2twaG90by5jb20vbGVnYWwvbGljZW5zZS1hZ3JlZW1lbnQ/dXRtX21lZGl1bT1vcmdhbmljJmFtcDt1dG1fc291cmNlPWdvb2dsZSZhbXA7dXRtX2NhbXBhaWduPWlwdGN1cmwiID4KPGRjOmNyZWF0b3I+PHJkZjpTZXE+PHJkZjpsaT5JY29uaWNCZXN0aWFyeTwvcmRmOmxpPjwvcmRmOlNlcT48L2RjOmNyZWF0b3I+PGRjOmRlc2NyaXB0aW9uPjxyZGY6QWx0PjxyZGY6bGkgeG1sOmxhbmc9IngtZGVmYXVsdCI+RnJvbnQgdmlldyBvZiBjb3VydCBob3VzZSwgYmFuaywgdW5pdmVyc2l0eSwgZ292ZXJubWVudGFsIGluc3RpdHV0aW9uLiBXaGl0ZSBicmljayBwdWJsaWMgYnVpbGRpbmcgd2l0aCBoaWdoIGNvbHVtbnMgYW5kIG9wZW4gZG9vcnMuIEZsYXQgc3R5bGUgbW9kZXJuIHZlY3RvciBpbGx1c3RyYXRpb24gaXNvbGF0ZWQgb24gd2hpdGUgYmFja2dyb3VuZC48L3JkZjpsaT48L3JkZjpBbHQ+PC9kYzpkZXNjcmlwdGlvbj4KPHBsdXM6TGljZW5zb3I+PHJkZjpTZXE+PHJkZjpsaSByZGY6cGFyc2VUeXBlPSdSZXNvdXJjZSc+PHBsdXM6TGljZW5zb3JVUkw+aHR0cHM6Ly93d3cuaXN0b2NrcGhvdG8uY29tL3Bob3RvL2xpY2Vuc2UtZ202NzU2MDk3NzYtP3V0bV9tZWRpdW09b3JnYW5pYyZhbXA7dXRtX3NvdXJjZT1nb29nbGUmYW1wO3V0bV9jYW1wYWlnbj1pcHRjdXJsPC9wbHVzOkxpY2Vuc29yVVJMPjwvcmRmOmxpPjwvcmRmOlNlcT48L3BsdXM6TGljZW5zb3I+CgkJPC9yZGY6RGVzY3JpcHRpb24+Cgk8L3JkZjpSREY+CjwveDp4bXBtZXRhPgo8P3hwYWNrZXQgZW5kPSJ3Ij8+Cv/tARpQaG90b3Nob3AgMy4wADhCSU0EBAAAAAAA/RwCUAAOSWNvbmljQmVzdGlhcnkcAngAyEZyb250IHZpZXcgb2YgY291cnQgaG91c2UsIGJhbmssIHVuaXZlcnNpdHksIGdvdmVybm1lbnRhbCBpbnN0aXR1dGlvbi4gV2hpdGUgYnJpY2sgcHVibGljIGJ1aWxkaW5nIHdpdGggaGlnaCBjb2x1bW5zIGFuZCBvcGVuIGRvb3JzLiBGbGF0IHN0eWxlIG1vZGVybiB2ZWN0b3IgaWxsdXN0cmF0aW9uIGlzb2xhdGVkIG9uIHdoaXRlIGJhY2tncm91bmQuHAJuABhHZXR0eSBJbWFnZXMvaVN0b2NrcGhvdG8A/9sAQwAFAwQEBAMFBAQEBQUFBgcMCAcHBwcPCwsJDBEPEhIRDxERExYcFxMUGhURERghGBodHR8fHxMXIiQiHiQcHh8e/9sAQwEFBQUHBgcOCAgOHhQRFB4eHh4eHh4eHh4eHh4eHh4eHh4eHh4eHh4eHh4eHh4eHh4eHh4eHh4eHh4eHh4eHh4e/8AAEQgC5AQAAwEiAAIRAQMRAf/EAB0AAQABBQEBAQAAAAAAAAAAAAAGAgMEBQcBCAn/xABbEAABAwECBA8NBgMGBAQGAwEBAAIDBAURBhIhMQcTFRYXQVFUVXGRkpOx0RQiMzQ1NlJhcnOBlMEjMlNioeFCdLIIQ2OCs/AkN8LSVmRlohglRYOj8SZEdeL/xAAaAQEAAwEBAQAAAAAAAAAAAAAAAQIDBAUG/8QALBEBAAICAgICAgICAgIDAQAAAAECERIDMRNRBCEyQRQzIlJhcQU0I0KBQ//aAAwDAQACEQMRAD8A+y0REBERAREQEREBERAREQEREBERAREQEREBERAREQEREBERAREQEREBERAREQEREBERAREQEREBERAREQEREBERAREQEREBERAREQEREBERAREQEREBERAREQEREBERAREQEREBERAREQEREBERAREQEREBERAREQEREBERAREQEREBERAREQEREBERAREQEREBERAREQEREBERAREQEREBERAREQEREBERAREQEREBERAREQEREBERAREQEREBERAREQEREBERAREQEREBERAREQEREBERAREQEREBERAREQEREBERAREQEREBERAREQEREBERAREQEREBERAREQEREBERAREQEREBERAREQEREBERAREQEREBERAREQEREBERAREQEREBERAREQEREBERAREQEREBERAREQEREBERAREQEREBERAREQEREBERAREQEREBERAREQEREBERAREQEREBERAREQEREBERAREQEREBERAREQEREBERAREQEREBERAREQEREBERAREQEREBERAREQEREBERAREQEREBERAREQEREBERAREQEREBERAREQEREBERAREQEREBERAREQEREBERAREQEREBERAREQEREBERAREQEREBERAREQEREBERAREQEREBERAREQEREBERAREQEREBERAREQEREBERAREQEREBERAREQEREBERAREQEREBERAREQEREBERAREQEREBERAREQEREBERAREQEREBERAREQEREBERAREQEREBERAREQEREBERAREQEREBERAREQEREBERAREQEREBERAREQEREBERAREQEREBERAREQEREBERAREQEREBERAREQEREBFafM/Hc2OF0mKbiQ4DLn2+NewyF5cHMLHNzgm9BcREQEREBERAREQEREBERAREQEREBERAREQEREBERARUyvbGzGdfuADOSrbpZGNx5IbmbZDry3jQXkVL3tYwvc4Boy3lWxLI8/ZwOu9J5xf3/RBeRWjJM3PBjD8j7+u5VRSskvDSbxnaRcR8EFaIiAiIgIiICIiAiIgIvJHBjHPdmaLyrLppWgl1M8NGUnGb2oL6LxpDmhwzEXr1AREQEREBERAREQEREBERAREQEREBERAREQEREBEVt8pEmlxsx3XXnLcAPWguIrbJSZNLkZiOuvGW8EepJZWsIblc85mtF5QXEVoPnIv0lrfU5+X9AV5p7meFhcwekO+H6ILyLxpDmhzSCDmIXqAiIgIiICIiAiIgIityyFjg1rC9xBNwIGT48aC4itMmcZAySJ0ZdfdeQb+RXUBERAREQEREBERAREQEREBERAREQEREBERAREQERDkF5QEVlssj248cN7Nol1xdxK5FI2RmMLxtEHOCgqRWdPxjdDG6S7ORkHKfovS+cC/SWH1CTL+oQXUVpk7S4McHRvOZrtvi2irqAiIgIiICKyKWEZQHg7oe7tXhMkGV7jJFtuOdvHuhBfRUSyNjZjnLuAbZVAjkkyzPLR6DDddxnOUF5FZFLCMweDuh7u1eHTIMpcZI9u/7ze1BVB4Sf3n/AEheQ+Mz/wCXqXsHhJ/ef9IVsSNjnnc7daABnJuzBBkorLI3v76ZzgTma1xGLyZyrYaHS4sJfc0988vcQPUMuUoMpERAREQEREBERAREQEREBERAREQEREBERAREQW6gOxWva3GLHY126P8AZVDqhhaRHe95zNuP67irqSWwkg3G8DlIVE8YjhfI10mM0Xi+Rx+qDyGPGkDXZWwgNHtXZ+pVySuEmlxx477rzebgBxrxh0upex2QSd807puuI/QL2SN+mabE4B11xa7M4fRB4ZJmG98He7rHY13wuCRBz5TM4ED7rB6t1BOGm6ZjojunK3l7Uk7+djCXYpYTkcRlvG5xoEt7qhkeM4NLC7vTdmI7VTcY6mNoe8hwdfjOvzXK4yFjZNMGOXXXXl5OT4n1L2SJkha52Ne3MQ4jqQVorEjBGGuYX34zRleTkJG6V6575XlkRxWg3Ofdfl3AgvIrPc0RyvMjzul5TudrR9k98Z9okchQXkVqKR2OYpQA8C8EZnDdCSyOL9KiAL7ryTmaEF1FZ7na7wj5JD63EfoE7nY3wb5GHdDif0ORB7WeKTewepVVHgJPZPUrE739zzxSAYwjJBGYj6K/UeAk9k9SBB4FnsjqVax2yOLGRQ3F+KLyczRdt9iqfHHGwvkkkuGc6Y7L8AgvIrNM1+V7sZrT91rnEn43q8gIiICIiAiIgIi8JuzoPUWNLW00ZxTJefVlVyKohl8HI1yC6iIgIiICIiAiIgIiICsF4hmeXghj7iHXZjddcVfVlwx6gscXBoYCLnEbZ3EFEkoc4SNBLIgXF111+TMFdp48Rl7ssjsrz6+xW3x9+6EOdivjdfe4nLkG3xq5BJpkYJFzhkcNw7aChk0sgx4oQWH7pc+6/wBd1xQzShpaYHCT+HbafijGzQNDGASxjIBfc4Dc3Cq45mPOKCQ4Z2uFxQews0uMNvvO2d0q1CzTWF7nyA4zhkcQMhIXsLBKwveX34zhkeRmJG0VdijbEzEYCBeTlJOc37aCilcSx4JJxXloJ3Arqtdzx3uIxxjG83SOGXlVIcIXyAl2I1rSLySbzfu/BBfRWQyWXvpXOY3aY03cp7E7lh9F3Pd2oLyKyY5Iu+icXj0HG/kParkcjXx44OTbv2kFSKw0yTjGa4xxHMR953r9QXppYTlIeTul7u1BeVp3jbPdu62rwxSR5YXkj0Hm8H45wvGPElRE8AgGN2fjag9l8ag/zdSvKxOQ2phJIAAdeTxI0vnONe5kW1cbi71+oIL6LGmaxrhHHpjpDmGmuuA3TlzLIjBawBzsYgZSg9REQEREBERAREQEREBERAREQEREBERAREQFTK3Hiey+7GaQqkQWG1DGtAkvY8ZC24/puqi5zyGOBaJXF7ht4oAF3xyfqq4IxJCyRzpMZwvN0jh9VQ1xaI5nG9rS5jidoX5/0CC9K8RMaAwkk4rWt21Tj1AAJgYd0CTL1KqaPTA0tdiuab2nPlVOmyM8NEbvSZlHJnQeXune0BrmMb3zsYXEnaCqqnFsYuJF72tyesgLyaQOha6N14c5ovB2iQCvTTxki/TDcQRfI7OMu6gt1DNKiMjZJLwRneSM6yVTKxsjCx4Jac9xuVBhYBfjSdI7tQXUWO2V5iia0B0rmAm/MPWVV3OHD7WR7z7RaOQIPDSxAEx3xv8ASacv7quBxkhBeBjZWuG1eDcVQaqIi6MmR+01oy/sq4GmOEB5GNlc47V5N5QY9Le6cxnNBeBf6ybv061emLnytga4tBGM8jPduD/e0rNL3s5kOae8g8RN36H9FemDmTNna0uF2K8DPdtH/e6g87lhGVoLHekHG9ethc5wdM/Hxfui64X7vGvO64MzXFzvRAJPImnSMudNHisO2Dfi8fagqg8JP7z/AKQvRDGJ3TXXvIuvJzcS8p/CT+8/6Wq2Z3sqZMcAwtuyjO3Jn4kFTnOnkfEwljWG55zE+odqvMa1jQ1oAaMwCtzRlxEsZDZAMh2iNw+pVQyiQHIWubkc05wUFaIiAiIgIiICIiAiIgIiICIiAiIgIiICIiAiIgtVfgf8zf6glZ4rJ7JSr8D/AJm/1BKzxWT2SgrkY2RuK8XhW8WeP7jhK3cfkPKhkkkcRDihrc7nDITuDtTulrBdODERujJ8CgqjlbISwtLXgZWOGW76qzJDGyRjHMDonm4NP8J9XqXuOJ6iJ0V5ay8l92Q5Lrhu/sq6nKYmjOZB+mVBQyGKKtbpbA2+N1923lavapjJKmBkjQ5vfG4/BVvyVcZO2xwHHeD9FTUkMlildkY28OO5eM/6IKZoYYIXyxxMD2tNxA21d72npznxY23ndNyolfHUQSRxSsc4tyXG9V97UU5z4sjbvWL0FtlOJGB1Re9zspF+QeoBHM7nc10d4jLg1zL7xlN143EZUNjaG1H2bxkJIyH1go5/dDmtivLA4Oc+7JkN9w3UFVZ3sQlGeNwd8Nv9Eox9gHnPJ35PH+1wSs76IRDPIQ34bf6Xr2jP2AZmMfeEcX7XFBbjYKkGSQksJIYy/JdundVekaWQYHYm605Wn4KiN4pgY5QWsBOK+7JduHcVQnEhApxj7rv4R8UFM0Qjo5jeXOcw4zjnORZD2hzC05iLisaeXGppo3txJAw5No5M4O2siYlsT3DOGkhBQBFS0xuBDGC87ZK8jYZHCaW6/O1ozN7SvKaVzmtZMAJMUHJmcN0Lwg0xxmi+DbHoeserqQZCICCLwbwUQEReEhovJACD1FiTWhTR5n459S1dpW9FSwmaeaGkibnfK8N60G+cQBeTcFjT19PF/HjHcC5XhDor4PUheyKpntKUbUDe85Tk5FALd0WsIKy9lnQwWdGdsDTH8pyforxSZUnkrD6BtC3IqaIyyPip4hnfK8BQLCPRVwco8ZjKya0ZR/BTjJy5lwO07UtK1J9Mr66oqpD+I8leU9nVU2aLEG6/IraRH5Sztyz+k7t3Rjts/aWZQUtLEw5pL5CePMtlg5o4UcmKy3LMkp3bctMccchy9agLLBjkjLKmUm8ZmZFrazBWUXupKhrx6EmQ8qZpP0rF7Pp7BrDyxLYaNS7Zpp3H+6e+5/IcqlENqsPhWEesL4fqbPr6J98sEjLv4xm5QpBg9ohYW2HisprXmmhH91UfaM/XKEnjz1K8cvt9nRTwyn7ORp9Sur5xwe0cqd2LHbtkPhO3LSm8cw9q6dgxog2DbAa2zbbgkkP9zKcV/Icqzmsw0i1Z6dARayC1Wnwsd3rCzYqmCXwcgJ3FCy8iIgIiICtDxt3ux1lXVaHjbvdjrKAfG2+7PWF7JCHOx2uLH+k3b491UTPbHUBzjkEZ6wmPUAB7owWnOwfeb2oPdMmj8JGHt9KPs/8A2qnNiqIwb7xna4ZxxKnuqAZC/Fd6JBB5EpGuDZHlpaHvLg05wLh2X/FBbihhkLxNEx0jDc43Z9wquhAbT4oFwD3gD/MV7DlqJnDMLm/ED917SZI3N2w91/OJQWYKeGQyvkja52mOykKrS421EcTGBrQC8gDOcw60iljhfIyV4YS8uGMbrwdxVOc3uiKUOBa4Fl4zX5x1IPahzi9kLHFpfeS4bQGfrCdywZywl3pFxv5UqGuD2TMaXFl4LRnIOe7kC87rp8xkuPo3G/kQewFzXvheS7FALXHOQb8/IrM4/wCK0jM2Ygn4X38oAV6AOc98zmluNcGtOcAbvKrM5/4oT/ww3A/G+/kBCDIqHlkYxLsdxDW37pVHcsRyvBkd6Tib/wBlXUsc+MFl2O0hzb90KjuqEZHuMbvRcLigGB5GlumcYr8x+8RuX7i9IDaqMAAARuuA42rzTZSC9sJxAcxyOI3bka9slTG5pvGlu62oK5oY5XMc8X4hvAvyfFeTykPbDGBpjwSCcwA2/XxKmpklZLEIgHX34zTtgDaVREdRECCbs4IyFp7UFUUbYwbry45XOOclVq1FI4P0qW4P2jtOG6OxXUBERAREQEREBERAREQEREBERAREQEREBERAREQWqPxWP2QlKL4Lj6TuspR+Kx+yFahkdpYijALy5xN+ZoxjlKC5pT4/APAb6Dso+G4vWzXODJmGNxyA33tJ9R7V5pr4zdM03bT2i8fHcVuoljqIXRQnTHOyC7M31k7SCqpja1rpmtGQXvbtOHaqJqeBjI5I4mtOmMuIH5gsidwZC9xygNPxVqVuLSRh38BYT8CEHteL6V4OY3A8oXopKYG/SGci9rGl1M8NBJyG4bdxvRlTA8gNmZedq/LyIPKQAsdJdle48gNwH6Klre6Hvc8u0tri1rQbr7s5PxVVJ3rXRbbHHkJvHWqWu7ne9rw7S3OLmuAvAvzg/FBV3VCcxcTuBh7F4RJPkc0xxbYP3ner1BXJZQwgYrnE5g0L2N4kbjC8ZbsqDyWNsjMU5NsEbRVAlkjyTMJHpsF4PwzhXkQWe6ofScfUGHsXhMk3ehroo9sn7x4txX0QWGObC+QOa+5zr23MJyXAbXEvYO+llfccV1114I2vWryILADqd1zQXQnaAvLP2VEz2OIkj0xsjcx0p1xG4cmZZSsSVcMchY4m8bgv3O0ILzCXMBIuJGUL1eMcHtDm5l6gIiICIiAiIgIiICIiAiIgIiICIiAiIgIiILdSC6EgC/KDyEK3PI2SF8bBJjOFwvjcPor73BjS45gqYpGyX3Agg3EHOEFGJLESYu/Z6BOUcR+id0xj77ZGHccw9YyK8iCz3Sx2SNr5D6mkDlK9ijdjmWUgvIuAGZo3FVLI2MDGvvOYAXkqg1GLdjQyi/8ALf1ZkFU8Ze0Fpue03tPrVPdAaLpmPjPESOUK60hzQ4ZiLwvJHhjcZ1+cDIgsOlZLNFpV7i12XvTmuP7KssfE8viGM0m9zL7su6Oxe90R95lPfC8ctyuoLPdMQyOx2HcLCndDXeCY+Q+ppA5Srysmobf91+LfdjXZL0HsUbscyykF5FwAzNG4EkjeH6bFdjXXOaczgrqILPdLG+EbJGdwtJ/UZE7pjORjZHncDD1nIryIMaWKWSKRz7sYsIawHILx+pVUszHRvY0SXlpA+zd2K+qXua0XuIA9aCgxB8DGuvDmgXEZwV42ZzBizNdjDbawkH15FYmtGnj+6TIfyrUWxhLT2dTunrKqno4h/FK8N60G4Y9sUlzCRCc7XMIxT6rxm9STWhTx5nF59S5RhHor2PRiQ00VXaT2Z3NubGO+xfvH15My57buirhJX47KMw2dEfwhe/lP0uV4pMqTyRD6EtTCGGjgM1TU09HEP45Xgda5/hDotYPUhcymkqLUlH4YuZyn6LhFbWV1oVGmVdTPVSnbkeXlXaey6yXOzSxuvVtK1/KWc8sz0mVu6LGEVdjMoGQWdEfwxjv5T2KE2haFoWnPptdWVFVKduR5ettR2CxzwHaZO7cYFIbPwcmAF0MdON051WeWtelPu3aFU9mVk393iDdfkWyo7BDyGvc+Z3oMCndNYdJHllL5j68gWyiiiiF0UTGD1C5ZW55npMURSz8HJQBdDHAN051uKewqRg+1c+Q8gW2VuoqIYI9MnmjhbuvdcFltaVsNPU2Aw3uppiPU9aypsysg+/CSN1mVZ1ZhhY0EgY2WSfLlMTMg5VsLOtyyq+5tNWRlx/gecQ8hVsXj7mEfSKkbRatfWWNZ9Ve6SAB3ptyFdDqKKlqfCwsJ3dtaypsCI3mCYs9T8qRfBhzWswVeLzSVIP5JB9VpquzK+jONLBIAP4xlHKF1Cpsuup88JeN1mVYRG0VtHLKs1RbB7D3CywsVtHa074R/dTfaM5Dm+C6Ng9o5N72O3rII3ZqU/wDQe1ROssizqu90tMzG9NmQrS1mCmc0lT/kkH1Vt6W7TFrV6fSeDOiLg9bGKLPtyDTD/czOxH8h+imEFqg+Fj+LV8R1llWhSZZaZ9w/jZlC2mD2G+FNglraC2KgRD+6lOmR8hzfBTpE/cSvHN7fasNVBL9yQX7hyK+vmrB7RyeMWK3rHD/Smo33HmHtXTcGdEnBu18RlBbkLZT/AHNSdLfxXHP8FWazDSt626dIVl7tLqC9wdilgAuaTtncWBDa14GmR3jdasltoUxvxXkkC85LrgqrLjmieYEY7QGnLilpBvG6qg+aPJIwvHpsHWOxXgbxeEQWe6odtzh6iw9iGSSTvYWOaD/G4XXcQ21eVp07cctY17yM+KMg+OZBXExsbAxt+TbOc+tW3tfFI6SNuO133mjPfuhesna5+IWPafzNuV1BZ7qhGQlzTuFh7FTC1somBB0tzr25CNofVXHTMbKIzfjG79f/ANFexSskJDb8n+/ogoD5Yu9la57dp7RfyjsTuqD0ncw9ivKmR4jbjOv+CC2ZJJO9hYWg/wAbhdyBVxxtZHiAXjbv215HKHuLcVzSBfc4K4gsN0yDvQ0yRDNd95vq9YXvdUO25wO4WHsV5EFkzPkyQxuy/wAbxcB8M5VOLpMjHkvcMVwc64kkkjc4lkIgsYwlqI3NDrm333tI617IxzHmWEXk/eZ6X7q8iDHlkhkZiubKNsERuvB3RkVdM57o+/ykG6+4i/13FJ544SA+/Lm5bvqF7DMyYEsJybouQXEREBERAREQEREBERAREQEREBERAREQEREBERBjwSNjhZG8SYzRcbo3H6LyKKRrA+N2K4kktdmIvPIrsczHvDQHC8Xi8Z1cQWdPxR9rG9h9QxhyhO6YjkbjuO4GFXl49zWNLnEADOSgshr5nB0jcRgN4Ztk7p7Fee1r2FjheCLirRqO9xtJmLd3F+mf9Fcje2Rt7bxcbiCEFpsj4hizNc4DM9ovv4wNtUVE8UkD2MLi5zTijEOfa2llHIL1ZFRGWYwvzgXXZTfmQevY4lssZDZAMoOYjcK87oDR9qx8Z9kkcoV1jg9ge03gi8L1BZnaMaC/KQ/P8CsINAhjAaMsTC3KRcSQNo5lnTxve5j2OaCw3gOBuv8AgVjijeG4oewi4DLjZADeAMqC2GOMulAjGDnA58XIAb7r8+Uba8054ZiZcXSxJcCdwd7fnuvKvCkkvv0xoN5OMAca83ev1BBRuvBLmAtbiAAEgjcIJyoLU0ekg44Y46W5zcXGAvAvyi/KEgD5y1pcCcUnv7yALyAAL/UrraSQBwviuc0tN4cbxuZTk+Cxpo5YnYoLCATcHktz7Ydf+iCtodjwsYcRznODnYxOY7V54/0VqKYYzXOdDG0n74mF7dw342VZNLE6RjcfFGI24OYLhfffkv3Lhl21U2jdjZ2AbrQcnECbggxWyPlMbnCNzye/YXXE5cl2XNduLNjp4ZYmPfe84t1+a/N2K33G4ObimMhpvbfjX578txyrLiYI4wwEm7bO2g9Y0MaGtzBeoiAiIgIiICIiAiIgIiICIiAiIgIiICIiAiIgpmAMTwReMUrX08Omi+MMBEbMYvvN5xRmy5Mi2ErS+NzAbrwsV1JI668xZAGgAOGTcyHL8UGOccnNjB8YdHeSS03Zr78uY3fBXaMaa9j2m8Hv8Y33lt/e7d2W4/BVzx6VCBeMZzgS67I267MB1K7R5RI+4Xueco3Nr9EFmpP27gSbsZrT6mkE/qbgrQLDI1kcUUTnd6Li5pPqPe3LNnhEmUEB11xvF4I3CFYZSyNN4exhG2ASeLKTcOJBjyTGRjHAMDS4ta1zwAAMmYkXm9UslJfCMaM3SAOYH4wHfC45DkWUaO5gDHNz3m+8Zd0EG8KptIQwd83GBBFwyC438ZQYjW/Z/dj+1a05j3vfAXDL8eNezB0RxBdjA4t+W9xP3b8uY5Qfosg0bsQAOZmuuuNwyg5Mt+cLyqc5sjrjc4RloJvvJyXHNtZUFyjZldI03MJuaBflAyX51RIxrqgtuAvmz3belnKsqIBsbWtFwAAA3FiTwluMXTMYC7GxjfjA3Xbu4gsG/EMga3vI8ZwvdlynNlyZs6rDH4xIdeMdzA4k4wIBy333ZxmuWLPNEAWsc1/e4tzQ64jcOX1laa2cIKay2mevtCiospN0j7gSc5aL7znQ6SISafiOe5jQ4E9+TcADdkF+UrCmtCKJ8LYiS9zywuaScoIGS85suZcnt3RWsalaY7NgmtJ4N4L742N4nE436KE27ol4SWlEIY3Q2fG117TStIe0Xgm5zjec22rxxzKk8lYd7tK36WkjZPWVVLSRSPDQHyFsjrzcMpOU+pQe3NEuy4IqmSiHdzo6gwtbJLpMYIz5XG85NrjXJTVuntIV009FUSX4zpsZ7pXjbujvyOO6rNJSVsklQ6SGLSah5e+Ka+6+8kEEZQRfnVtax2pPJP6Sq2dEa26qCPFrKOzWGdolio5g5zoznIN5II/LconbMtVXh88rYasulAbUxSl5uy3NcM9/rW2o7NxpYGw07SIn47YmNJaXbricpW9o7Dn0pzG01NQskcHSYhLi4i+7Ocgy5gqzy1r0p927QeGzq+cHHJYw33h5yHLjZuNbKisFj3gHTJ3bjGqcU1i0cXfSNMx9eZbGONkTbo2Bg3ALllbnmejVFrPwcmAH2UdO39VuKaxKOLvpL5j68gW0Vmrqqakjx6meOFu699yy2mVsK4ooomYsTGMG4Bcq1GLSw0suC8UrJKp3qGIOUqPVmFtt18mk0TBBj5AyFmO8q9eG8om0Oh1NTT00em1M0cLd15uWgtHDOyqa9tPplU78guHKVqLK0P8ADC3ZBNU076dp/va15B5M/wCinFhaEFlQXPtavnrXbccX2bO3qWkcVI7nJEWnpzuuwxtisfpVExkF+QCMY7ysmzMBcMrfkE01NNC0/wB7WvLP0OX9F3axrAsWx2XWZZtPT/nYzvzxnOtmr7RX8YWji9y5AzQYl7i7+3Gd17gg+z4s96iduaHOFVlXv7h7tiH95SnH/TP+i+i0UxyStPFWXy3R21bVlyaWypmZiZDFKL7vgcykNnYd5m2hR/54T9D2ruVsWJY9sR4lpWdT1XrezKOI51Bbd0IbHqcZ9lVk9C7aY/7Rnb+qidLdwpPHaOmrs63rJr7hBWRhx/gk7w/qs2opKapH2sLH+vb5VCrc0NcKrLxnx0Yroh/HTHHPJnWgprVtqyZdJE9RCWZ4pRm+BVZ4M/jKu0x3DoNVYERvdTzFh3H5QtXU2VXU/fGHHG6zKsSzsO3i4WhRg/niN36FSSzsIrJrrmxVjGSH+CTvD+qyml69wZhGSLjilYVZZdBV36dTMxvTGQroVRS01SPtYWP9a1dTYELstPK6M7hyhRF8Jw5vWYKDK6kqbvySD6rS1lj2jS3ukpnlo/jZlC6fU2VXQ3u0vTBusyrCcHA3FtxW0csqzVDcH8MsJ7BIFm2xURxj+6ecePmHIuj4LaMtRU1LKe37Kjla2ORz5aU4jiMU3jFPaFHqyzKGrv7opmE7oFx5VrorB7imfUWfIzTC25onvOLu3HtV9627TEzH7dzwU0RMHLZdFBQWxFTzyghsM2NG9puJ/iNzxk2ipdTWo6SOAmNt8pxSWE3X5Dly5sXL8CvkespbSomyOhsuCFz2lrp4MZ1wOfFBNzfgsrBXCe2rBs6rNDbhgc9gEdM95dddff3pFwN2bjTSJ6Xjl9vsahq6d9O98T2tJBLGm8ZNrPtrwFn8TGyBobiBwN1xF+NcAc5vyr5zwd0cK6EMityyYahm3LTHS38hyH9F0TBzRKwWtUMjpbXjpX7UFZfEW+oG+671Xqs0mGkXienR2zYjS+NrLg7EaA43NcfUQFRJIWyvv0ohr7i4ygO9Zvxsh9Vyw6asMkbRKY5ITlAjyAnrWbE6GV97Zor77+/BBPrIvuJVVhpMrnx4zH472gSjKbu+uIIPq61U1hkGM1jAY478VoIxu+dkz+rlWS6k74YrhdkvLr77xflF3GV7HA6F5kvDgGkAAG8i8n6oMQHGe9jQHAfdGW7vvu3Zdy8ni2lmyxhtFIxxxu8OfiVilyyxtyEMxjkvyEnJnG0Miy6iMyxOYDdfnQYjmjTHG4ZZWtPrva3cVnvmxNdmx2BzbnG/OBcTflzjcWT3NLpmmY8eNeDdccW8ZL7r9xUijcABjMIxcW4h2QXg3DL6ggoLpIHYgLQXP0u8A3ZQCDcT614WXw6ebsTGuIvdj3X3Z78/q+Cuuo3u71z2kY2NjZca+67dQ0kmmYwdHfffeQc+7dfdf67kFhrnGR8YNw0zEa283ZzlOW/MF7OzSWy3gFzQ0gtJAuJuzX5ClTBLHjOBj7+8uvBxSb7928bt6UjZHktcIyHOBOKS64DdcSb9rIgtzueyR7SYnuaBeXSC8m6/0hir18xfjgSxvaLtLc517SNvKMl4zZVkvoyXd6WFt13fX5tw3G4/FH0bsuK5pxriS68G8blxFyBTRMljLZG3EEHFvvuyDb+F6yYYmRAhguB9appodJZdeL7gABmAAuAV1AREQEREBERAREQEREBERAREQEREBERAREQEREGuMbX1BYGgOMrrib7gLm35Bn2lTKHRnLcWsfivaL7iLsa8ZchuvyLIdSyEEY0d2NjZQbyd2+/J8FUyHSWF7gHEA3NaDdlznbJKDFjBdI5mRzmuDBffcDffky5sXL8QsmrxmtjDe+LQ4tBF97gMnaqaIXyMvIcGR3AgEXHbzjcu5FlSxiRtxJBBvBGcFBrpHQsZfpbCLsbTXF2MfXeAV7JK9rZYzigsaHuvkuDicgym76K93I/Hv+yz35jy3X3XqruQnGc6QPkIuJc3I4esIMLTCA5uPEwkC4NeO+y5RcCVch758UuJGLtLbigG7KBlz7W0smKkIN7y34Xkn4knkXjaRzQLnNBbi3ZDluzX5UGK1hjp2Pub37MZt14xbspAF+5fdxK9SNMr2uBuuGMXC+83/d29zKeMKuRmkwxRkgBrwb8twAOYZzmV2iv0pziMrnEn6fpcgvoiICIiAiIgIiICIiAsaorIYJMSTGvz5AslaO3HMZWDGeB3m2UGdqnTfn5E1Tpvz8i0emx/iM5U02P8RnKg3mqdN+fkTVOm/PyLR6bH+IzlTTY/xGcqDeap035+RNU6b8/ItHpsf4jOVNNj/EZyoN5qnTfn5E1Tpvz8i0emx/iM5U02P8RnKg3mqdN+fkTVOm/PyLR6bH+IzlTTY/xGcqDeap035+RNU6b8/ItHpsf4jOVNNj/EZyoN5qnTfn5E1Tpvz8i0emx/iM5U02P8RnKg3mqdN+fkTVOm/PyLR6bH+IzlTTY/xGcqDeap035+RNU6b8/ItHpsf4jOVNNj/EZyoN5qnTfn5E1Tpvz8i0emx/iM5U02P8RnKg3mqdN+fkTVOm/PyLR6bH+IzlTTY/xGcqDeap035+RNU6b8/ItHpsf4jOVNNj/EZyoN5qnTfn5E1Tpvz8i0emx/iM5V6C0i8OBHqQbvVOm/PyJqnTfn5FpVrLZt+xbHYTaNpU9OfQL+/PwzodJbqnTfn5FTJakIH2bHvPIuM27ov2ZBeyyKCardtSS/Zs7epQK3dEbCq1b2d3dxQn+7phifrn/VXjjmWc8tYfQ9u4WUFlxF1oWlS0Y3C/vzxDOudYQaMFkwlzLMpKmvk/EkOls7f0XFDp9VKXnTJ5DnJvJKzKex6mTLJdGPXnVta17lnPJM9JDbuiVhTaeMyOsFDCf4KYYh5c6iUjqmrnL5HzTynOSS8lSGgsFjjkikqXcWRSCiwdmAGNpcDdwC8qs81a9QriZ7Qmnsmrk7590Y9a2lFYLHG4MkqHeoZFOaWxqOG5zmGY/n7FnsYyMYrWBg3AFlbnmU6oxQYOzAC8R07dwZStvTWLRxZXgzH8+bkWyWNW19HRMx6qphhH5zl5FjmZWxC/HGyMXRsDBuAXKpRW0cN6CG9tFDJUO3T3g7VH58JMILVl0ijD2F+aOmjJefqtK8F5RNodCrKylo2Y9VUwwj877lHrRw2s2nvbSRSVTt37jP17Fh2Poa4V2w8TVcTaJr88lU/v8Akzqc2FoR2HSYr7TqZ6+QZ2D7OP8ATL+q0jipX8pymItLmNThTb1oy6RRAxl+QR07L3n6rY2RodYXW1IJqqE0rX55Kx9x5M67tZVj2XZUWlWdQU9K3/DYATxnbWcr7RX8YTHF7lzWwtCGx6a59q1k9dJtsZ9mzt/VTmyLEsiyI8SzrOp6UbsbMp4znK2KKs2me2kViOhERQsIiICIiAiIgLBtWx7KtWLSrRoKeqH+IwEjiO0s5EHN7d0IrEqsZ9l1M9BIczD9pH+uX9VA7d0McKLMxnw0zK+Ifx05vPMOVfQiK8ckwznjrL5agtC27Gn0kTVVK5meKVpyfArf2dh3My5lfRiQenEbjyLvVqWXZtqRaTaFFT1TdyRgNyg9u6Etg1uO+zpp7OkO0DpjOQ5f1UzpbuFJ47R00NnYSWPXXCOrZHIf4Je8K2M9NTVLPtY2SDd/dRC3dC7Cezb300UdoxDbhPf8w/S9RqOrtuxJ9Jx6qkkGeKQEfoVSfjxP4yrmY7h0KqsGF/fQSGM7hyhaupsiuh77StMG6zKtdZ2HNTHcK+kZMPTjyHkUjs7Cex665rKoQyH+CXvP2WU0vXuDMI+Q4G4tIO4ViVln0NWP+Ipo3nduuPKp/LT01Uz7SOOQHMVraqwYHd9DI+M7hyhRF8Jw5xWYKQvvdSTmM+g/KFpKyw7Spb3GAyNG3HlXTqmx66HKGaYN1mVYL2FpxXgg7hWteWys1Qaw8J8IbBk/+WWrVUoH93j3s+LDkXRcHtG+1IMWO3LNhrW7csJ0t/JmP6LU1dBR1Y+3gjf67svKtLWYLQPvdSzvjO4/KFpF6z2RM16d6wZ0VsFbUxWR2saGZ391V/Z/rm/VT6ktlskYf3kzD918Zzr4urLCtKmvOk6c3djyqqxcIbesGbGsy1KukIzsDzd8WHIp0iepXjln9vtsWnTfn5F5qnTfn5F8z4PaN1sU2JFbVBBXR7ckX2UnZ1Lo+D2ingfbGKw15oJj/d1QxP1zfqqTSYaxesuo6p035+RNU6b8/ItFBNDPEJYJWTRnM9hvBVaqs3WqdN+fkTVOm/PyLSEtGdwHxTHZ6Y5UG71Tpvz8iap035+RaTHZ6Y5Ux2emOVBu9U6b8/ImqdN+fkWkx2emOVMdnpjlQbvVOm/PyJqnTfn5FpMdnpjlTHZ6Y5UG71Tpvz8iap035+RaTHZ6Y5Ux2emOVBu9U6b8/ImqdN+fkWkx2emOVMdnpjlQbvVOm/PyJqnTfn5FpMdnpjlTHZ6Y5UG71Tpvz8iap035+RaTHZ6Y5Ux2emOVBu9U6b8/ImqdN+fkWkx2emOVMdnpjlQbvVOm/PyJqnTfn5FpMdnpjlTHZ6Y5UG71Tpvz8iap035+RaTHZ6Y5Ux2emOVBu9U6b8/ImqdN+fkWkx2emOVMdnpjlQbvVOm/PyJqnTfn5FpMdnpjlTHZ6Y5UG71Tpvz8ivU1VFUEiO/JuhR7HZ6Y5VsrBLTJLc4HIg26IiAiIgIiICIiAiIgIiICIiAiIgIiICIiAiIgLR4VYOUNv0Ok1DdLmaPs5mDvmdo9S3iIPnjCTB+1bDrzTVUcj2HwcrLyx4Ws0qq/Cm5Cvoa3i0RRYxH3ttanHj3Wc5Vwpo4fpVV+FNyFNKqvwpuQruGPHus5yY8e6znJhOrh+lVX4U3IU0qq/Cm5Cu4Y8e6znJjx7rOcmDVw/Sqr8KbkKaVVfhTchXcMePdZzkx491nOTBq4fpVV+FNyFNKqvwpuQruGPHus5yY8e6znJg1cP0qq/Cm5CmlVX4U3IV3DHj3Wc5MePdZzkwauH6VVfhTchTSqr8KbkK7hjx7rOcmPHus5yYNXD9KqvwpuQppVV+FNyFdwx491nOTHj3Wc5MGrh+lVX4U3IU0qq/Cm5Cu4Y8e6znJjx7rOcmDVw/Sqr8KbkKaVVfhTchXcQWHNcneflTBq4dpVV+FNyFNKqvwpuQruPeflTvfypg1cVo7NtSskxKalqJD6gVJLMwFtKa59dUsp27gOO/sXQavTzAW0j4WS7RkBIHwChtu4L4W2vjMlwwEER/u6em0sfob1aKx+1ZrhXUUuBWDTMe1K6F8o2ppMd/MHYtBbGi9ZtKw09h2W+e7IHy/Zs5Bl6lhv0G6hzy52ELCTnJgPag0GpNvCCP5b91pEUhWZv+oRC3dELCm1b2OtE0sJ/u6YaX+uf9VGQyepkLsWSaQ5znK7BT6EFPFlfaokP54f3WdHoZ4lwFqxhu4If3UzyY6hWaWntx+nsapkyykRjlK2tBYLHEYkMk7v0XW6bQ/o4e+NSJDuvZ+6zmYKhguZWMA9Uayte8pjjlzeiwfmuGPpcDdwC8ra01j0MPfFhkO69TXWu7fw5n7prXdv4cz91jNbStpKMsa1gxWNDRuBVKQyYLS4h0utjxtq9mTrWktHAK3K29uueOCM/wAEVNd+t96RxzJNZa+vtKhoWX1VXDD6icvIo5aOHFFFe2igkqDuv7wdq3D9ByeR5dJhCxxOcmA9q39haFODtDc+vfNaMo/EOIzkC2jjpHautpcqlwgwitiXSKNsl5zR0sZJ7VuLG0McKLVeJq5rKFpzvqH3v5B9V3Oz6Cgs+IQ0FLBTxjaiYAsvGbuq+8R+MLRxe3PLC0JbAorn2lNPaMg2idLZyDL+qm9mWXZ1mRaTZ9FBSt3I2ALMxm7qYzd1Vm0y0isR0ImM3dTGbuqEiJjN3Uxm7qAiYzd1MZu6gImM3dTGbuoCJjN3Uxm7qAiYzd1MZu6gImM3dTGbuoCJjN3Uxm7qAiYzd1MZu6gImM3dTGbuoCxrRs6gtGAw19HBVR7krAVk4zd1MZu6g59buhRg9XXvoHz2dKdphx2ch7VArd0K8JKC99IIbRiH4RufyFd+xm7qYzd1Xi8wpPHWXy0JrcsKo0t7quikH93ICP0K3VnYc1UdwrqZk49NneFfQdfQ0NfAYa6mgqIz/BIwEKFW7oV4M1+M+j06zpT+E69nIVOaW/KFJ47R0itnYU2PWXN7p0iQ/wAEuT9cy20kVNVRhz2RzNOY51r9hqTh+P5b91l0GhValC/GpcKTD6hCbuS9ZTxV/UoiLemHU2DBJ30L3xnczhayqseuhyhgkG6xdAs/BG1IgBV2xT1A3RBiHrWdrXdv4cz91niydJchewtOK8EHcKx6uipKoYtRTxyesjKuxT4HxzC6WpjePXGtZU6HMEmWGv0k7mJeOtWjKNJcWrMFqaS91LM+E7hyhaWssC0qa9wh05u7Hl/Rd82NX8LM6H902NX8LM6H91pF7Qjxy4BZFuW3YU+NZ1o1dE4Zwx5A+IzLoeD2jXblJix2xR09oxjO9n2UnZ+imlVoVQ1Qxai0IJOOD91pqzQNp5O+prb0k7mk3jrV96z3CYreOkjsrRLwGwhDYq6TuKY5MSsZdyPGRbqTBuza6IT2XXd6coLH6Yw/Fc42CZf/ABJH8r+62Fj6Elt2PLp1l4aSUjv8KEgHjGPlUTFf1K0bfuG/rcHbVpbyItPbuxm/9FqzDUB1xjkBHqKm2D1FhPRYsVq23RWlGP4+5dLk5Qbv0W+vb6lnhbVyvSp/w5eaU0qf8OXmldVxx6kxx6kwnVyrSp/w5eaU0qf8OXmldVxx6kxx6kwauVaVP+HLzSmlT/hy80rquOPUqsZnpBMGrlGlT/hy80ppU/4cvNK6tjs9JnKmOz0mcqYNXKdKn/Dl5pTSp/w5eaV1bHZ6TOVMdnpM5UwauU6VP+HLzSmlT/hy80rq2Oz0mcqY7PSZypg1cp0qf8OXmlNKn/Dl5pXVsdnpM5Ux2ekzlTBq5TpU/wCHLzSmlT/hy80rq2Oz0mcqY7PSZypg1cp0qf8ADl5pTSp/w5eaV1bHZ6TOVMdnpM5UwauU6VP+HLzSmlT/AIcvNK6tjs9JnKmOz0mcqYNXKdKn/Dl5pTSp/wAOXmldWx2ekzlTHZ6TOVMGrn2DmD1oW1VYkbXwwt8JK4ZB2ldXsOyaOx6MU1Iy703nO87pVdjEGlN3pLOUpiuBEREiIiAiIgIiICIiAiIgIiICIiAiIgIiICIiAiIgwrVs6jtSkdS1sIliPKPWCuS4XYB2rZs+m2YZaylcclx79nqPauzrCtjxE+0FExlExlwbW9hDvCqTW9hDvCqXXkTVXRyHW9hDvCqTW9hDvCqXXkTU0ch1vYQ7wqk1vYQ7wql15E1NHIdb2EO8KpNb2EO8KpdeRNTRyHW9hDvCqTW9hDvCqXXkTU0ch1vYQ7wqk1vYQ7wql15E1NHIdb2EO8KpNb2EO8KpdeRNTRyHW9hDvCqTW9hDvCqXXkTU0cWtHBPCSqi+yp6+KQZix5A61B7bhwisar7mtOWuppLrxjyHKPUvqFYVr2fZdfE1tqUtLPGw3jTmAgH4rSlpr9K24/T5d1StHf8AVdMU1StHf9V0xX0frewP4MsnmMTW9gfwZZPMYtPJCnin2+cNUrR3/VdMU1StHf8AVdMV9H63sD+DLJ5jE1vYH8GWTzGJ5IPFPt84apWjv+q6YpqlaO/6rpivo/W9gfwZZPMYmt7A/gyyeYxPJB4p9vnDVK0d/wBV0xTVK0d/1XTFfR+t7A/gyyeYxNb2B/Blk8xieSDxT7fOGqVo7/qumKapWjv+q6Yr6P1vYH8GWTzGJrewP4MsnmMTyQeKfb5w1StHf9V0xTVK0d/1XTFfR+t7A/gyyeYxNb2B/Blk8xieSDxT7fOGqVo7/qumKapWjv8AqumK+j9b2B/Blk8xia3sD+DLJ5jE8kHin2+cNUrR3/VdMU1StHf9V0xX0frewP4MsnmMTW9gfwZZPMYnkg8U+3zhqlaO/wCq6YpqlaO/6rpivo/W9gfwZZPMYmt3A/guyeYxPJB4p9vnDVK0d/1XTFNUrR3/AFXTFfR+t3A/guyeYxNbuB/Bdk8xieSDxT7fOGqVo7/qumKapWjv+q6Yr6P1u4H8F2TzGJrdwP4LsnmMTyQeKfb5w1StHf8AVdMU1StHf9V0xX0frdwP4LsnmMTW7gfwXZPMYnkg8U+3zhqlaO/6rpimqVo7/qumK+j9buB/Bdk8xia3cD+C7J5jE8kHin2+cNUrR3/VdMU1StHf9V0xX0frdwP4LsnmMTW7gfwXZPMYnkg8U+3zhqlaO/6rpimqVo7/AKrpivo/W7gfwXZPMYmt3A/guyeYxPJB4p9vnDVK0d/1XTFNUrR3/VdMV9H63cD+C7J5jE1u4H8F2TzGJ5IPFPt84apWjv8AqumKapWjv+q6Yr6P1u4H8F2TzGJrdwP4LsnmMTyQeKfb5w1StHf9V0xTVK0d/wBV0xX0frdwP4LsnmMTW7gfwXZPMYnkg8U+3zhqlaO/6rpimqVo7/qumK+j9buB/Bdk8xia3cD+C7J5jE8kHin2+cNUrR3/AFXTFNUrR3/VdMV9H63cD+C7J5jE1u4H8F2TzGJ5IPFPt84apWjv+q6YpqlaO/6rpivo/W7gfwXZPMYmt3A/guyeYxPJB4p9vnDVK0d/1XTFNUrR3/VdMV9H63cD+C7J5jE1u4H8F2TzGJ5IPFPt84apWjv+q6YpqlaO/wCq6Yr6P1u4H8F2TzGJrewP4MsnmMTyQeKfb5w1StHf9V0xTVK0d/1XTFfR+t7A/gyyeYxNb2B/Blk8xieSDxT7fOGqVo7/AKrpimqVo7/qumK+j9b2B/Blk8xia3sD+DLJ5jE8kHin2+cNUrR3/VdMU1StHf8AVdMV9H63sD+DLJ5jE1vYH8GWTzGJ5IPFPt84apWjv+q6YpqlaO/6rpivo/W9gfwZZPMYmt7A/gyyeYxPJB4p9vnDVK0d/wBV0xTVK0d/1XTFfR+t7A/gyyeYxNb2B/Blk8xieSDxT7fOGqVo7/qumKapWjv+q6Yr6P1vYH8GWTzGJrewP4MsnmMTyQeKfb5w1StHf9V0xTVK0d/1XTFfR+t7A/gyyeYxNb2B/Blk8xieSDxT7fOGqVo7/qumKapWjv8AqumK+j9b2B/Blk8xia3sD+DLJ5jE8kHin2+cNUrR3/VdMUFoWiTcK6qv98V9H63sD+DLJ5jFdo7AwVjqo301l2WJmG9hZGy8FPLCfFPtyLBjA/CirZHWVzbRZAcrI9MIL+PLkUwFh2wAAKGe4LpaLG07LxxxDmuottbznTUW2t5zrpSKuE6Oa6i21vOdNRba3nOulImDRzXUW2t5zpqLbW8510pEwaOa6i21vOdNRba3nOulImDRzXUW2t5zpqLbW8510pEwaOa6i21vOdNRba3nOulImDRzXUW2t5zpqLbW8510pEwaOa6i21vOdSHBbAuqrHiptQvgp9qMHv39gUpW9s/xOLiTCYpD2jpYKOnbBTRiOJuZoV9EUrCIiAiIgIiICIiAiIgIiICIiAiIgIiICIiAiIgIiICxbRpWV1HJTyPkYHj78brnN9YKykQcRw6p8IsFpg+e2J30Uj7oZjJdl3D61GNdVfw7J0y6Z/aAsmstfBGkp6JjHvZWhxBddkxHrhusfCHe8PTBTEV/csbZifpJtdVfw7J0ya6q/h2TplGdY+EO94emCax8Id7w9MExT/ZXN/STa6q/h2Tpk11V/DsnTKM6x8Id7w9ME1j4Q73h6YJin+xm/pJtdVfw7J0ya6q/h2TplGdY+EO94emCax8Id7w9MExT/Yzf0k2uqv4dk6ZNdVfw7J0yjOsfCHe8PTBNY+EO94emCYp/sZv6SbXVX8OydMmuqv4dk6ZRnWPhDveHpgmsfCHe8PTBMU/2M39JNrqr+HZOmTXVX8OydMozrHwh3vD0wTWPhDveHpgmKf7Gb+km11V/DsnTJrqr+HZOmUZ1j4Q73h6YJrHwh3vD0wTFP9jN/STa6q/h2TplZr8IJq6kkpau13TwyC57HzXgqP6x8Id7w9ME1j4Q73h6YKYin+xm3pp7Vpm00/2NQJojmufeQsLGf6R5VJdY+EO94emCwbYwatiyqYVNXTARX3F7Hh93Gtq3r1lSaz3hqMZ/pHlTGf6R5V4iuq9xn+keVMZ/pHlXiIPcZ/pHlTGf6R5V4iD3Gf6R5Uxn+keVeIg9xn+keVMZ/pHlXiIPcZ/pHlTGf6R5V4iD3Gf6R5Uxn+keVeIg9xn+keVMZ/pHlXiIPcZ/pHlTGf6R5V4iD3Gf6R5Uxn+keVeIg9xn+keVMZ/pHlXiIPcZ/pHlTGf6R5V4iD3Gf6R5Uxn+keVeIg9xn+keVMZ/pHlXiIPcZ/pHlTGf6R5V4iD3Gf6R5Uxn+keVeIg9xn+keVMZ/pHlXiIPcZ/pHlTGf6R5V4iD3Gf6R5Uxn+keVeIg9xn+keVMZ/pHlXiIPcZ/pHlTGf6R5V4iD3Gf6R5Uxn+keVeIg9xn+keVMZ/pHlXiIPcZ/pHlTGf6R5V4iD3Gf6R5Uxn+keVeIg9xn+keVMZ/pHlXiIPcZ/pHlTGf6R5V4iD3Gf6R5Uxn+keVeIg9xn+keVMZ/pHlXiIPcZ/pHlTGf6R5V4r1BSVNdVx0tLEZJXm4AIKGY7nhgOUm7KVPcEhQ2GO6WWpB3Y8XGQTDvBuBaXWPhDveHpgmsfCHe8PTBZ2tWf2vEWj9J7rqfw63pwmup/DrenCgWsfCHe8PTBNY+EO94emCzxT/AGW2v6T3XU/h1vThNdT+HW9OFAtY+EO94emCax8Id7w9MExT/Y2v6T3XU/h1vThNdT+HW9OFAtY+EO94emCax8Id7w9MExT/AGNr+k911P4db04TXU/h1vThQLWPhDveHpgmsfCHe8PTBMU/2Nr+k911P4db04TXU/h1vThQLWPhDveHpgmsfCHe8PTBMU/2Nr+k911P4db04TXU/h1vThQLWPhDveHpgmsfCHe8PTBMU/2Nr+k911P4db04TXU/h1vThQLWPhDveHpgmsfCHe8PTBMU/wBja/pPddT+HW9OE11P4db04UC1j4Q73h6YJrHwh3vD0wTFP9ja/p2jAuitjCBrazVOVtBfdprJL8e7OAunU8TIIWwsvxWC4Xm8qH6CtnVNmaH1FSVbQyZskpcA6/O8qaqn1+m1ehERFhERAREQEREBERAREQEREBERAREQEREBERAREQEREBERBGdEPyTD74dRUEU70Q/JMPvh1FQRYX7BEULw00QaDBe1BQVVBVzksD9Mjuuy7WVKUtecVRa0V+5TRFy7ZosTgqv5WdqbNFicFV/KztWn8bl/1U8tfbqKLl2zRYnBVfys7Vk2bovWPX2jT0Mdl1zHVEzIgSWXAk3bqfx+X0nyV9ukIiLBcREQEREBFz/CPRRsyw7XqLNqbMrXugfiY7Cy4/qtds0WJwVX8rO1bx8fkmMxCnkr7dRRcu2aLE4Kr+VnamzRYnBVfys7U/jcv+qPLX26iqJ4o5onRSsD43i4gjIQoNgponWXhDbsFkU1BVwyz33PkuuFwJ3fUp4s70tScWjC9bRbpyvDfBOSypHVtCC+iJyjOYv2WuwbsWG1YJnyTPj0sgZAuxyMZIwska17SLiDmKi+otNY9TN3K4iGoOMI/Q9S3rzTNcT2xvTH3CN60Kbfk3NCa0Kbfk3NCkyJ5Le2aM60Kbfk3NCa0Kbfk3NCkyJ5LexGdaFNvybmhNaFNvybmhSZE8lvYjOtCm35NzQmtCm35NzQpMieS3sRnWhTb8m5oTWhTb8m5oUmRPJb2IzrQpt+Tc0JrQpt+Tc0KTInkt7EZ1oU2/JuaE1oU2/JuaFJkTyW9iM60Kbfk3NCa0Kbfk3NCkyJ5LexGdaFNvybmhNaFNvybmhSZE8lvYjOtCm35NzQmtCm35NzQpMieS3sRnWhTb8m5oTWhTb8m5oUmRPJb2IzrQpt+Tc0JrQpt+Tc0KTInkt7EZ1oU2/JuaE1oU2/JuaFJkTyW9iM60Kbfk3NCa0Kbfk3NCkyJ5LexGdaFNvybmhNaFNvybmhSZE8lvYjOtCm35NzQmtCm35NzQpMieS3sRnWhTb8m5oTWhTb8m5oUmRPJb2IzrQpt+Tc0JrQpt+Tc0KTInkt7EZ1oU2/JuaE1oU2/JuaFJkTyW9iM60Kbfk3NCa0Kbfk3NCkyJ5LexGdaFNvybmhNaFNvybmhSZE8lvYjOtCm35NzQmtCm35NzQpMieS3sRnWhTb8m5oTWhTb8m5oUmRPJb2IzrQpt+Tc0JrQpt+Tc0KTInkt7EZ1oU2/JuaE1oU2/JuaFJkTyW9iM60Kbfk3NCa0Kbfk3NCkyJ5LexGdaFNvybmhNaFNvybmhSZE8lvYjOtCm35NzQmtCm35NzQpMieS3scxs6gqbRrW0dJGZJXnk9ZXW8FMH6awqS5l0lU9v2kt2f1D1K5g1YVLYtHiQtx5n5ZJTnf+y26py8u31HTelMfciKGYcaINn4J2pFQVdDVTySQiUGMi668jb4loNmixuCq/nM7VFeDktGYhM8lY+pl1JFy3Zosbgqv5zO1NmixuCq/nM7VP8bl/wBUeWvt1JFzSg0XrKrayKmisiuxpHgXksuH6rpYyhUvx2p+UYWraLdCIizWEREBFaq5m09NLO4EiNheQPUFzPZosXgu0OVnatKcVr/jGVbWivbqKLluzRY3BVfzmdqbNFjcFV/OZ2q/8bl/1V8tfbqSLluzRY3BVfzmdqlWAmGVJhZ3R3LQ1FOIADfLdlvvzXcSi3ByVjMwmOSs/USlCIixXdGwI83oON3Wt2tJgR5vQcbutbtdNegREUgiIgIiICIiAiIgIiICIiAiIgIiICIiAiIgIiICIiAiIgjOiH5Jh98OoqCKd6IfkmH3w6ioIsL9guL6MkbJcK5GSC9ppmfVdoXGtF/zvd/LR/VdPwv7HP8AJ/BzA0Ue6V53Gz0is+nhdPLiNIG3lWbdR0Wf7SVetlyzbH00z7MxIw92OAc162GC1IxuE9lnGOSri/rCpq6qSpcAW3AZgFtMFKKQ2/Z0ju8AqozlznvwqW6kicYmz6QREXgPSEREBERB8+aI8LJsJrWEgzTkg7ihvcTPTcprh/5z2t756ia97jn/AAh5sdyxu4mem5O42ek9bOmo5pu+uxG7pWyp6SGHvgL3bpWn2i3JEM7Qisx8OHdnVJxgBpmQ+wV9BLi2hy5ow0s9mMLzj5P8hXaV5Xzv7I/6dXxZmaTMiwLToauqe001NJMALjiC+5Z611q4V1uDskcNLBBIJRjnTAdriK5K/Ut7REx9sXUe1d4VPMKaj2rvCp5hVGyZbG8qHmv7U2TLY3lQ81/ar7Qy1qr1HtXeFTzCmo9q7wqeYVRsmWxvKh5r+1Nky2N5UPNf2ptBrVXqPau8KnmFNR7V3hU8wqjZMtjeVDzX9qbJlsbyoea/tTaDWqvUe1d4VPMKaj2rvCp5hVGyZbG8qHmv7U2TLY3lQ81/am0GtVeo9q7wqeYU1HtXeFTzCqNky2N5UPNf2psmWxvKh5r+1NoNaq9R7V3hU8wpqPau8KnmFUbJlsbyoea/tTZMtjeVDzX9qbQa1V6j2rvCp5hTUe1d4VPMKo2TLY3lQ81/amyZbG8qHmv7U2g1qr1HtXeFTzCmo9q7wqeYVRsmWxvKh5r+1Nky2N5UPNf2ptBrVXqPau8KnmFNR7V3hU8wqjZMtjeVDzX9qbJlsbyoea/tTaDWqvUe1d4VPMKaj2rvCp5hVGyZbG8qHmv7U2TLY3lQ81/am0GtVeo9q7wqeYU1HtXeFTzCqNky2N5UPNf2psmWxvKh5r+1NoNaq9R7V3hU8wpqPau8KnmFUbJlsbyoea/tTZMtjeVDzX9qbQa1V6j2rvCp5hTUe1d4VPMKo2TLY3lQ81/amyZbG8qHmv7U2g1qr1HtXeFTzCmo9q7wqeYVRsmWxvKh5r+1Nky2N5UPNf2ptBrVXqPau8KnmFNR7V3hU8wqjZMtjeVDzX9qbJlsbyoea/tTaDWqvUe1d4VPMKaj2rvCp5hVGyZbG8qHmv7U2TLY3lQ81/am0GtVeo9q7wqeYU1HtXeFTzCqNky2N5UPNf2psmWxvKh5r+1NoNaq9R7V3hU8wpqPau8KnmFUbJlsbyoea/tTZMtjeVDzX9qbQa1V6j2rvCp5hTUe1d4VPMKo2TLY3lQ81/amyZbG8qHmv7U2g1qr1HtXeFTzCmo9q7wqeYVRsmWxvKh5r+1Nky2N5UPNf2ptBrVXqPau8KnmFNR7V3hU8wqjZMtjeVDzX9qbJlsbyoea/tTaDWqvUe1d4VPMKaj2rvCp5hVGyZbG8qHmv7U2TLY3lQ81/am0GtVeo9q7wqeYU1HtXeFTzCqNky2N5UPNf2psmWxvKh5r+1NoNaq9R7V3hU8wpqPau8KnmFUbJlsbyoea/tTZMtjeVDzX9qbQa1V6j2rvCp5hTUe1d4VPMKo2TLY3lQ81/amyZbG8qHmv7U2g1qr1HtXeFTzCmo9q7wqeYVRsmWxvKh5r+1Nky2N5UPNf2ptBrVXqPau8KnmFNR7V3hU8wqjZMtjeVDzX9qbJlsbyoea/tTaDWqvUe1d4VPMK91HtXeFRzCreyZbG8qHmv7U2TLY3lQ81/am0GtW+H3UQG8X7qLJu4fo+07JcLaQlxH/BD+t6513Ez03Lpejv52Un8kP63qHR0cMLNNqnjiXufH/qq4Oa0VtOWoiszTb8XHIGcqjuJnpuW3qK/vNKgYGNzXrHp6aWY/ZtybpzLbKkT+5ZmDdPHDUU5a3KZmXn4r6YGYL5xsuLSa2njvvukZ1r6OGYLzfnd1b/ABfvKpERee6xERBi2uL7Kqx/gP6ivlU0bLz3zl9VWr5Lq/cv6l8vOzr0fgdWc3P+mL3Ez03J3Ez03LPp6aaY96Mm6cy2dNQxRd87v3etejGZctrxVpqaydMIe7H0sZTftrrmgeAKi02gXARx5PiVA5y0RkFwF+ZT3QR8atT2I+srn+X/AFSngttyQ6eiIvFek6NgR5vQcbutbtaTAjzeg43da3a6a9AiIpBERAREQEREBERAREQEREBERAREQEREBFTpgXmms3UFaKjTWbqaazdQVoqNNZupprN1BWio01m6mms3UEc0Q/JMPvh1FQRdFwtoZrSs+OGmxMYSYxxjdkuKi+tS1f8AA56xvEzI0S41ov8Ane7+Wj+q+gtalq/4HPXOsP8AQlwttrCA1tEKHStJY3v57jePgt/if48mZYfIrM1xD59ZI+MkscQTkyLIp6Oabvj3jd0rqVFoEYcRz48rLLIuyf8AE7fItjsK4a7lnfM/svTjlp7ct68kdQ5fT0sMOZt7t0rY2LLHHbtntc8AmpjAH+cKb1Ogrh+ckLLLYN01WXqVux9A7DqmtmjrJ9TTHFOyR57qvNwIO4otzUxMRKleC8zmzpaLe61LV/wOemtS1f8AA568TWfT1GiRb3Wpav8Agc9Nalq/4HPTWfQ0SLe61LV/wOemtS1f8DnprPofMWH/AJz2t7560dkRMfjPewOIzXrseFegxhjaVt11VTNs7Sp5C5mPU3G7kWoptA3D+njc2NllXnbNV+y9nj5aRWMy863Fec4hA5ZGRMvkcAFr6i0C7vYW3DdOddJOgPh/LJjSus3j7q/ZZcGgXhhAy+OKznybpqf2V/NT2rHBav6yh+hRTTnDihnlyDv8+c94V3hQzAvQjw3szCmktCv1OFLFj3iOovOVhG4uoa1LV/wOevN+XO14mrs4ItFf8miVuTBODCO6aarkgMHeAMAN96kOtS1f8DnrPsqzKmzI5GVOJe83jFN656VnP23Q3YwoeFKjowmxhQ8KVHRhT9FppCNYQDYwoeFKjowmxhQ8KVHRhT9E0g1hANjCh4UqOjCbGFDwpUdGFP0TSDWEA2MKHhSo6MJsYUPClR0YU/RNINYQDYwoeFKjowmxhQ8KVHRhT9E0g1hANjCh4UqOjCbGFDwpUdGFP0TSDWEA2MKHhSo6MJsYUPClR0YU/RNINYQDYwoeFKjowmxhQ8KVHRhT9E0g1hANjCh4UqOjCbGFDwpUdGFP0TSDWEA2MKHhSo6MJsYUPClR0YU/RNINYQDYwoeFKjowmxhQ8KVHRhT9E0g1hANjCh4UqOjCbGFDwpUdGFP0TSDWEA2MKHhSo6MJsYUPClR0YU/RNINYQDYwoeFKjowmxhQ8KVHRhT9E0g1hANjCh4UqOjCbGFDwpUdGFP0TSDWEA2MKHhSo6MJsYUPClR0YU/RNINYQDYwoeFKjowmxhQ8KVHRhT9E0g1hANjCh4UqOjCbGFDwpUdGFP0TSDWEA2MKHhSo6MJsYUPClR0YU/RNINYQDYwoeFKjowmxhQ8KVHRhT9E0g1hANjCh4UqOjCbGFDwpUdGFP0TSDWEA2MKHhSo6MJsYUPClR0YU/RNINYQDYwoeFKjowmxhQ8KVHRhT9E0g1hANjCh4UqOjCbGFDwpUdGFP0TSDWEA2MKHhSo6MJsYUPClR0YU/RNINYQDYwoeFKjowmxhQ8KVHRhT9E0g1hANjCh4UqOjCbGFDwpUdGFP0TSDWEA2MKHhSo6MJsYUPClR0YU/RNINYQa67JuIt4cFrVLsb7Dnr3Wpav+Bz1jrPpL540d/Oyk/kh/W9QNjaiqkyXvO6u+aKGhHhbhFbsFZZ4odKjphGdMnuN+OTuetaiPQSwzYwBjLNaPVUfsvW4OSsccRMuLmrbaZiHKqaz2N76V2OdzaWYSyNmW5jAukS6C2HIZ9lHZpPrqf2Wvn0C9EKY40mpZ9XdX7LbzUj9ueOHkt3CCUUjJLRge11405nWvosZgudWZoH4b08sDpBZtzHguuqfXxLsYwVtW4eA564PmTF5jV2fGpNImJho0W91qWr/AIHPTWpav+Bz1xaz6dLRIt7rUtX/AAOemtS1f8DnprPoRi1fJdX7l/UvmmzYmSzu0wX3C9fW1fgja01FPCzSMaSMsF8m2QuM0mgZh7AXODLLJIu8a/Zd3wrRTOzm+RW1o/xQUlkbMYkMaFgVNotGSFt/rK6PNoE6IEz8aV1m/NZv0WVBoEYYQjGDLOkk3TU/su7zU9uSOC0dw5RBDUyyColvuGXKuoaCPjVqexH1lXJNBLRBkkF4stkd+YVX7KZ6GmhfhPYE9a+vFFdOxgZpc1+a/wBXrWHyb1txzES24uO8XiZhuEW91qWr/gc9Nalq/wCBz15Ws+nclOBHm9Bxu61u1qsG6WSz7IjpKi7TGkk4uUZ1stNZureOhWio01m6mms3VIrRUaazdTTWbqCtFRprN1NNZuoK0VGms3U0xiCtERAREQEREBERAREQEREENwowukwfqcSssaodEXfZzMeMRy0uylQcFVHSBdEr6Smr6V9LVwsmheLnMeLwvn/RcoabA+24IKWKeeGpjMrB+Hluuv21GJVnP6TzZSoOCqjpAmylQcFVHSBcN1xjeE6a4xvCdMSjNnctlKg4KqOkCbKVBwVUdIFw3XGN4TprjG8J0xJmzuWylQcFVHSBNlKg4KqOkC4brjG8J01xjeE6YkzZ3LZSoOCqjpAmylQ8FVHSBcN1xjeE6a42bwnTEmbO5bKVDwVUdIE2UqHgqo6QLhuuNm8J01xs3hOmJM2dy2UqHgqo6QJspUPBVR0gXDdcbN4TprjZvCdMSZs7lspUPBVR0gTZSoeCqjpAuG642bwnTXGzeE6YkzZ3LZSoeCqjpAmylQ8FVHSBcN1xs3hOmuNm8J0xJmzuWylQ8FVHSBNlKh4KqOkC4brjZvCdNcbN4TpiTNnctlKh4KqOkCbKVDwVUdIFw3XGzeE6a42bwnTEmbO5bKVDwVUdIE2UqHgqo6QLhuuNm8J01xs3hOmJM2dy2UqHgqo6QJspUPBVR0gXDdcbN4TprjZvCdMSZs7lspUPBVR0gTZSoeCqjpAuGa5495y8qa5495y8qYkzZ3PZSoeCqjpAttY2ETMI4pKiKjmpxEcTvzfeofgDY1nQ4PRYS23Bdpox4YZMtw2jdtkqWR2hbU0QkoLHjjh/gEslxI4khEWn9tnc7cKXO3CoxV4WWpSTmGps6GOQbRvVnXrWbzpuUqVtktuduFLnbhUS161m86blKa9azedNylDZLbnbhXi0dmW7b1pAvpbLgMY/jJICyn2q8Sx0tuUHc+mG5kofey/j2kNmyRc+0SKq3MGwaukrqqalIvAx8oCgGyZbH49bzwmJnoy+gEXz/smWx+PW88JsmWx+PW88KcSnP/D6ARcv0M7XwgwurZXOrKuCip7tMkJGU7gyLoJtlpmdSWVQzVzo8j3g3MHxKj7Rsz0WktDCa0aAhtXYxhvzEyZD8blia938HDpP2RG6TIozr3fwcOk/ZNe7+Dh0n7IbwkyKPU+F9TUyiGCyjJIcwY+/6LYPtqugZpto2NNDDtvY8Pu4widmxRRjDRloMsc2zYFfO+IMvMTH5CPVeuTHRLtoHLNW8o7ExMmz6ARfP+yZbH49bzwmyZbH49bzwpxKc/8AD6ARfP8AsmWx+PW88JsmWx+PW88JiTP/AA+gEXz/ALJlsfj1vPCbJlsfj1vPCYkz/wAPoBF8/wCyZbH49bzwqotEm2pDi901Y+IUYkz/AMO/IuD7IVs76q+UJshWzvqr5Qhn/h3hFwfZCtnfVXyhNkK2d9VfKEM/8O8IuD7IVs76q+UJshWzvqr5Qhn/AId4RcH2QrZ31V8oTZCtnfVXyhDP/DvCLnGh1V2/hPM6omr6qCjjPfG8Xv8AUFODbMLZXUlmUc9fJHke9hyA+2URsz0WkrcKamjeG1VjTQk/dvkz/osbXuzg89J+yI3SRFG9e7ODz0n7Jr3Zweek/ZDeEkRR+DDF9RII4bKkkkOYMkvPUs827NCA+0rHqKeH8QXPA40N2xRQ7RBktWz7K1esW0KiakzyRsffiDdHqXONkK2d9VfKETl3hFwfZCtnfVXyhNkK2d9VfKETn/h3hFyDBLCLCLCC0W00NZVMF4BeSF06Wqp7IMVKBPaNoPGa+8n1+oIjZscV24mK7cWrrLXt6miM0liDSxlN0mORyLU69qjeEPPKI3SrFduJiu3FFde1RvCHnlNe1RvCHnlDeEqxXbiYrtxRYYbVJOKKCMn2ytvT2pb0kQmNhjFz3adceQobtcdFGiBI1KqcmTwgXmylQ8FVHSBeWhZFj4UU02kQdw2lFnvZcQfWNsKBS2FURTOikeA9huIu21GJRtMJ9spUPBVR0gTZSoeCqjpAuf6jSfiDkTUaT8QcinWyN5dA2UqHgqo6QJspUPBVR0gXP9RpPxByJqNJ+IORNbG8ugbKVDwVUdIE2UqHgqo6QLn+o0n4g5E1Gk/EHImtjeXQNlKh4KqOkCbKVDwVUdIFz/UaT8QciajSfiDkTWxvLoGylQ8FVHSBNlKh4KqOkC5/qNJ+IORNRpPxByJrY3l0DZSoeCqjpAmylQ8FVHSBc/1Gk/EHImo0n4g5E1sby6BspUPBVR0gTZSoeCqjpAuf6jSfiDkTUaT8Qcia2N5dA2UqHgqo6QJspUPBVR0gXP8AUaT8QciajSfiDkTWxvLoGylQ8FVHSBNlKh4KqOkC5/qNJ+IORNRpPxByJrY3l0DZSoOCqjpAmylQcFVHSBc/1Gk/EHImo0n4g5E1sby6BspUHBVR0gTZSoOCqjpAuf6jSfiDkTUaT8Qcia2N5dA2UqDgqo6QJspUHBVR0gXP9RpPxByJqNJ+IORNbG8ugbKVBwVUdIE2UqDgqo6QLn+o0n4g5E1Gk/EHImtjeXQNlKg4KqOkC3ODGF8mEFVpdHY1Q2IeEmdIMRqgmBGCENr2sY6ydwgiZjvYwXF+XNeuy2fRUtBSspaOBkMLBc1jQoxP7XrMz9slERSsIiICIiAiIgIiICIiAtNbzGOmZjMDu92wtyoxhvasNj07a6qpq2SnYO/kp4DLicYGUJ2KNKj/AA2ciaVH+GzkUD2XsBh/9RqPln9ibL+A3CM/yz+xTrKNoTzSo/w2cipe2JpA0prnHM0NvJUF2X8BuEZ/ln9iu2fos4ETV+ILRkDnMuaXQOGW/KM23k5E1k2hNMSMPDHwYjjmxm5/iF69kLG4z2xtG6QolbeilgZSsjZNaDxIXggCFxIAzm67cyfFXLN0QsFaiNlYauUh4vjBgdkbu5s5TEmYSdrA77lG5w3S0N67l45sLPC05jG65mTlGRROv0X8CKOcwSV875G/eDKdxxeM3JS6MGAlQHXWnLGWguIkgc03DcyZU1kzCXiKEi8RsI4k0mH8NnNUBh0XsBhjO7umYHOvDRTOuA5FnWdok4KWiySSntKdrGOxfFznuB2x601k2hMNJh/DZzU0mH8NnNUKrdFPA+gqjT1Nozl2KHA9zuzG/cHqVrZfwG4Rn+Wf2JrJtCdaTD+GzmppMP4bOaoLsv4DcIz/ACz+xNl/AbhGf5Z/Ymsm0J1pMP4bOamkw/hs5qguy/gNwjP8s/sTZfwG4Rn+Wf2JrJtCdaTD+GzmppMP4bOaoLsv4DcIz/LP7E2X8BuEZ/ln9iaybQnWkw/hs5qpeyBl32QJOYBl5Kg+y/gNwjP8s/sVyj0VsDKu0aeKCvmc+9xuNO4fwn1JrJtCZgQ3gOpyy83AujICr0mH8NnNUVtvRKwTpqeKaatlDGyi8iB24fUtfsv4DcIz/LP7E1k2hOtJh/DZzVarYYTRzt0tmWM7XqUK2X8BuEZ/ln9iol0XcBnxOZqjPlBHiz+xNZNoQEsbf90Jit9Fq0xwose8/wDEP6Mprosf8d/RlU1n003r7d/tRsclJYGbuPHjv3MwuUiqIjJHitlfG7aLNpch0P8ARLwbqqJuD1s1IZH92GWUEMu3Cdr1Lo8dRQMpr9cAfS3ZtOYTdx51aYn9uee2swza2qwcpa+UME4eBeNu++/qvUEwPwMrrawWmtZlvSMbpzwGFhJuF23er+iphrSTUmpdkuxwzICzdzX9imOhdTOpNDZ1M/7zH5eO5l6JiPtHINDi0HWRLU64n3g/hntWdRaGNe+kiqDhC45L8TSTl/VTml82puM/Rbay/J0HsBRC2GmEWlS09nU7tJhZGScTObrhd+qs4WRxHB+obLluAxL8+PfkXlsWpZsFsmzayfuGcASQSvNweDuHN6risatqrIp7qu0bXFUIu+YzHFwO7cPqisxhq8Pxdg3RMqPC3Zb/AGMq5Pit9Fq2miBoi2VXWg6EVPes7wBgxwBxjbUS10WP+O/oypms+l+OYiPuW5xW+i1MVvotWm10WP8Ajv6Mprosf8d/RlV1n003r7do0OxiYCVrqZv2xMl92fMpTgxDDHYFK2HJjx3kjdOdcZ0OtEmxbItA0tTUnuWoNxJYQGHdXX7ONHJH3RY9qxCnk7/S8j2C/c3FbE/thbtfqYe64Kyzqu6ZoYHskLcuW/8AUXLiT6G0LQwgqoaa2JKeOORjNLAvAvA9a6dhphTZuD1lVDG1QqK6UEZCCf0XNtD/AE6olktCfPU1QI4gUQlj9D60xbApNchuN39ydzjV2LQ5tR1qy02uQ3MZf4E+r1qfSec7eMdSyafzjn932Kq+Edwcsw2DZFR3wnqxMYtNIuvy3D4bakUUThFiTSmYnOSAsPCGrobLq2tr/s6SvJbph+4yS7MTtXjqVqUGSC7VlgpiPvjEx7vb/ZTKsxhq7GaBY9tU0cT5KZksrY7gLrrvWuQ1rWCsmZiYtzyCCLiF0y3cLbDsyyG2TRVEeNGMWRjTe4ev4571yW08JbIrrd0mlqC58mKzGbGSCRfefXcOpTNZlekxDKZGZH4kcRkf6LWklZGptdi43cTrvab1XrPitixbPpDdLpcTBe95acvrJWsOiHg4H4okqS30hCbuu/8ARV1lptX2tvjMb8SWIxu2g9pF68xW+i1XLYw0wekswGOpbOZTitBjJxTtkjOLuxaB2FFkNYSJ33gfhlNZ9G9fbd4rfRamK30Wq/8A/K9Lx+7581/gx2KPMwpscsBM77yPwyms+javtusVvotXoA9ELS66LH/Hf0ZQYUWPvh/RlNZ9G9fbdXN3AlzdwLTa6bH3w/oymumx98P6MprPo2r7bm5u4EubuBabXTY++H9GU102Pvh/RlNZ9G1fbc3N3AlzdwLTa6bH3w/oymumx98P6MprPo2r7byOGWUExU8kgBuJa28XqlzCx5ZJGWOGdrhcVkYKYQWZJQSuZM4jTj/Adxq1dv4SWVFbEzXzuBxWnwZ3E1k2j27BgUNKwErH03hcV+bP9wKRYNQRQ2BStp8mmRh5eN051yfQv0QrHhrDZ0tT9nLk78XcnYuqWfCxrC6yLQh7lebxG9uMGcWUEcStMSwntXWU/d1PWWdV3SYjA5kl12e+48YIK4rPZdsOnkdHbj2NJJDNLzBdTwmwgorKjdQRVIqrTq7wQz+AXZzuAbShCQrLMgwHteTB+kr9cffS7WkcfrXmEWBlqWXg2bTOEOPiMx7hBdtcantH5l2b/vdTDSlfW4Dmlj+9JDcOO5RPbTDW4Gwso8HDXxsElRKcQE8dwUnZE4wGOd+nXjLeAAud6HWEdJ3E6xLUfpJvuYX5MqnE8dTJBi6qxsgIyyBgx7uO+79FMqNPZ0TBg9bNM/LSsfKyO/cuXHyG3nvQprokYeYPWLZ2t6gqwZHi6Qx9/cO1cw102Pvh/RlRNZn9NOOYj9tzc3cCXN3AtNrpsffD+jKa6bH3w/oyo1n002r7dT0KhGLUbfdeQ+7jUzsKNur9ryS+H0wAX7TLsi4Zg3h3ZVn2hFKypey54IJYbgfX6l2uzLWsa3WRV9LXspavEux2PGUbm4QrYlhbtuqkyQ1MLw8vilfpb4ztesLkmiNYFWcK6h9BaslJC8B2lMvuBuy7a6HbNvWVYsQqbQtJlVUZoYY7sck7gHWVCLTrZa+tlq5W3OkN9256khDRYN4J2rX23T0pwhmAkJzgnaPrUmptDq0pLWkptcT7hf8A3Z2visrATzpo+M/0FTuz/OGbjekpr0gWhhRMktA6dN3QafTCHnbOPdep9Z7pqgOqZJDcXvDIxmABI5ci5JYFqyYK4aWhQ1TXaXFUvZxsJ/8A0V06mraGrjNRZ9qxwtk78sNxuO7ccyjtHS1URtbhpSvh+8+mfp925tXrayBhcTijOoxaeFGDGDkpbU2tHJWVH35D9oRx3Zh6ljs0R8DAANWR0MnYrRWZ/SazH7SzFZ6DeamKz0G81RTZJwM4ZHQSdibJOBnDI6CTsTW3pfaPaVP0pjS5zWgD8qpJa1oc+ncxp/iLMnx3Pioq/RIwMx4ibYaWh4J+wk5c20cq2NXh/glDSOnltRhiIyfZuON6hkyprPo2hvMVl1+I3kVDXMefsoXSDdazJynIozZmG2C1c0YtpF8UQAd9i8Bzrs2bN2rKtDRDwRoA0T2mQ533WtheSf0TWfSNob13e/fpXgepgd1XowwvbjMDHD1BRiHRRwKkeGutN8V+YvgeBy3ZFan0R8DO7n//ADVoxO9JEDzjHju2u1NZ9G8Jdis9BvNTFZ6DeaopT6IWClZVCnp7VJdilxLYH7V26PWq67DvBqgEb57Ve5j3YuWA7hO0PUms+k7R7SjFZ6DeamKz0G81Q/ZNwO4Tf0D+xNk3A7hN/QP7E1t6No9phis9BvNTFZ6Deaofsm4HcJv6B/Ymybgdwm/oH9ia29G0e0wxWeg3mpis9BvNUP2TcDuE39A/sTZNwO4Tf0D+xNbejaPaYYrPQbzUxWeg3mqH7JuB3Cb+gf2Jsm4HcJv6B/YmtvRtHtL3iNrS5zWgDKe9VBewXk00gAzkxG5Q+q0S8D308jW2m8ktuH2D+xbmsw3wcFJMTWu8G7+6ducSaz6No9t2GxkXhjbj+VMVnoN5qhseibgcI2jVJ+Yf3D+xVbJ2BvCT+gf2Jrb0bR7TDFZ6DeamKz0G81Q/ZOwN4Sf0D+xNk7A3hJ/QP7E1t6No9phis9BvNTFZ6DeaodsnYHcISdA/sTZOwO4Qk6B/YmtvRtHt0GxQBUPuaB3i26jmB9oxWpC6spoapkBHeOlhMeNxX51I1CexERAREQEREBERAREQEREBERBAsONCnBHCpr5paIUFa7/+zSgNcT6xmK4PhxoK4V4PaZU0EQtmibl0ymb9oB648/JevrVFaLzCk0iX5/SMfHIWSMLHA3EFtxCzbCoI7SrzTSvexull97br8hG7xr7Fw00O8FMLY3G1LNY2qIuFXB9nMPjt/G9cctHQUtvB22XVdk1LbWozE4BuLizNyt2sx+HItIvEqTSYcowgsSnsukjmhmleXy4hDrrrridoepSTBudlRYtMWEXxsEbhuFou/f4rD0QYZaejhinifFI2pAcx7S0jvXbRWBg7ZlssiZW0EsIjkzse68O41MzGPtERMz9LdvWDWNq5qqlaZ45Hl5aPvNJN5ybY4loHAtcWPaWuGdrhcR8F06jiqHgNqmx0793HLm8t3WFlV2CDrSgGnNp5AR3kjXm8cRuUReEzxygOD1jQ2nTSyyzSxlkmIAy7cB2x61J7Hs2KzIHxRSSSB78cl91+YDa4lrZcFsIrJqZKWnrYmRk47SHfeByX/dz5Lvgt9gvYlsy0k3dlRFK9stwJccgxR6km0e0xSfTVWtYVPaNWKmSeaN2IGXMuuyE7o9aj2EVkw2W2AxTSyaYXA492S67cClOEdj4QR2niUlZHFGImnFDtu8/lWsbgxbtpVlNT1lXFKwv9M3gZzd3u4Ei8eyaT6aaxrEqbRbpxcIKfaeReXcQ+q3rcFrPDbnTVLju4wH0UrrLFq6GhdIBBixtAYwOI9QGZRaWz8K5JTIK2mjF+RjMw5Wm9N49mk+mttPBiWFhloZTMBl0t4Ad8CMh/RR7buIIIyEHaXUbBs61KuJ0VUacTx3Xlrjc4buZafCbAqvktiB0L4GCqIa/vjkdeATm3D+imLx7RPHPpF7HseqtI47CIoAbjI4X3+oDbW/jwVoA2581S922cYD6KWPsCos+gJbpLYoWZGhx2trNnUXqaDCmaUvZVU0Db+9Yw5B8S3Ko3j2nSfTX2hgs5jC+hnMhH93LdeeIhYGDDXMwigY9pa5uOHNIuIOKVKYoMIG0To3tpH1GZkuMQLt0i7P8A748OwMGbWGEEE880MjnF5c4vJJOKfUm8e0aT6e4a+Rh71v1UdsSyZrTmvBMdO09/Jd+g9fUuj2tghV2jTNp5ZY2sDw52K43kDazKqaxJbMo2j7CONoxWMa43n1DIm8e06ShlZg7ZtJTunqK+oZG3bOLl9QyZ1GpMTTHaUHhl/e45BN3ruUqtawrdtKo02aSmaxvg4xI65o5Mp9aw9aFq+nTc89imL19omlvSPopBrQtX06bnnsTWhavp03PPYp3r7R47ekfWTRy1BqIYWzSXF4F2Obs62+tC1fTpueexX7PwTtNtfTvLqe4SMP3zu8Sjevs8dvTplkYHts+nNdaD2STsuLIxmYb8/rK6hgR5l1nvz1MUetTxGT4dakOBHmXWe/PUxYz0tRuKXzam4z9FtrL8nQewFqaXzam4z9FtrL8nQewFWGkNVhjgxRYS2eIKm+OaPLDMBlYexfOejNgvbGDVLSiscH08kxZHLG/I/JuL6qXIv7Tll1NqYPWTFTFgLKp5OObv4FavZaMxiHzEikGtC1fTpueexNaFq+nTc89i33r7Y+O3pH0Ug1oWr6dNzz2JrQtX06bnnsTevs8dvSPrJprQr6ZmJTV1RC3cZIQFt9aFq+nTc89ia0LV9Om557E3r7PHb0neCeCdXaln09oWhORA+EPblvfJk/RSyy4o4Z6WGJgZGx7AANrKszBanfS4JUNPJdjx0oBu4lj0XjkPvB1rH9kOoSec7eMdSyafzjn932LGk8528Y6lk0/nHP7vsWbaGTbdmUdsWdLQVsWmQyNy7oO6PWuEaKmBluYNYPVtdSVj57PjaPtGSYj2AkDKPjtL6EUN0a6SSu0MrZpIbtMkZHdfm8IxXjsmMw+WLIsGG1KFtbU1E+mvLg7K0jISNsepYkDYbJwqZGXkxQyBpc67M5mc85TrBXBu0I7EiY50F4e/M4+kfUo7hDgpactt1b2vp7i5ud59BvqW29fbLSfTbWtSCvs+Wlx8TTALnbhBBHUoPaFl11CSaiB2IP7xnfN5dr4qW2TQ2/RMbDMaaphbkF8hDmj1G7L8Vv6OhkqiGMliZIf4Hkg9WX4KIvEftOkz+nJnG5pcLsylgwUpHsF9XU5R+XsW8t7Q/nqonzUjaeKouvua4hr/AFEXZ/WtIbKwpERc20WABt477/8A5U7x7RpPpIcUYmJtXXKPDBOkAAFXU5PZ7FNtQLQ0rGx4b8W/7x7FCmWVhU5jTqkzKL/vf/8AKjaPadJ9IzWU5itGWkiD5C2UxsF17nZVvrPwWc9gfXTuYT/dxXXjjJW6wTwStF1XUWhUvhklDsVrsY5yL3HNnyj9Vm4QUFr05bTUTqYTObjOe5xOKNq4XZ03j2jSfTRyYK0BaQyepY7aOMD9FoLYsiqsxwc8iWEm4StF2XcI2lI6agwphlD31VNO3+Jjzdf8Q3IpRreqLQoLnaS6GdmUFxzH4Z03j2nSfTkYBJAAJJNwAGUlSKzcF5ZWCSumMIP92y4uHGTkC3GC2BdfHak8k7oHmlJYzvj968i/NuD9Vtres+1KSNsVKaYzvF97nG5o3c2dTN49ojjn00D8FrPLbmzVLTu4wP0WitmxKqzm6bjCenv++0XFvGPqt9DZ+FccumGtp5MuVr/unkbk+Cu21Z1uWhEIItIghIGONMJLjti+7N1qN49mk+lnAjyTJ793U1aTC7y7L7DOpTTA7Bq0YrMlY50F+nuzOO431LL1lTutZ1pSuhkkuAY0uNzLhnzZ03rlOlkNsvBl09MJa2WSBzsrY2gXgeu/b9SkeDln18tpmyqC2q6WbSS8xvmubG28DGOT1rItujtGna6no3U7qjbcXG6P9Mp9SyNCGxK6gwmqquskjkx6Zwxg7GJdjsUTaJjtE1mIzhLKWwaexqRrscz1Uh+0lft+oepVra254GLjWqVER06RR+Zdm/73VsLR8iUfGOpa+j8y7N/3urYWj5Eo+MdSpPbX9Ivh3odC06h1qWK9kFU/LJC/Ix53Qdor53w9qresrCOrsiprauAxYgfEJjcMg3CvswZgvlrRswcr67RMtephMOlvey69+X7gWlJiJ+y8TMfTlhJeS4uJJ2yvFINaFq+nTc89ia0LV9Om557FrvX2y8dvSPopBrQtX06bnnsTWhavp03PPYm9fZ47ekfW2wUFdPbdLR0UsjZJX3BgkuBWVrQtX06bnnsW8wDwbtGiwvs6pldBpccl5uflzFRNq47NLR+k+sjBZtmU7q6uk0+s2tsM7Sstby1PEpPgtGsiG7wE86aPjP8AQVO7P845uN6gmAnnTR8Z/oKndn+cc3G9VlevSOYT4G02EtbWzRSCnrozcyTFyPF5yHtXFtEGyrYwbtOGirHPgc+MvZpcmR4vuvyL6VsjypaHt/UrnmjXgTa+FFt0NVZz6VscNOY36a8g345O4rUxFvs5I+nACXE3lxJ3Si6DsR4T/jWd0x7E2I8J/wAazumPYt949sNLenPkXQdiPCf8azumPYmxHhP+NZ3THsTePZpb0gEDBJPFGSQHyNaSNq8gLeV2D1NTUU9SyeYujjc8AhuW4X7iksWhPhLDPDK6az8VsrCbpT6Q9SktraHluyWXVMElHe6FwF8h3D6lE3j2tFJ9OdYGzM0qopiQHh+mAboIA+n6q5hHZU9ZK2qpiHPazEMZN14vJyHdylb2HQnwshlbLDVWfHI03tcJjk/Rb2lwJwnawCtZQk+nDKSPiCOq9JtHtMVnGJhyCaOSCTS54nxP3Hi6/tWVY1Gyure53vfG3Sy69t1+Qjd41192h7aVbAWOdQTRnO1zybjxXZCtBV6E+ElFWtls6spI2SAtBdKb27d192UZP0TeEeOfTRWZY0NBVd0Mnle7ELbnXXZSNwepZFrWfHaMLIpJHxhj8YFl24Rt8akFkaHmF8deBWV9JLG6N1zdN27x+VZVu6H2E7oYWUVXSQvMmU6YcouPqUbR7TrOOnOrVsOCjoJallRM9zACA6645QNxauz6Kor5jHTtFw++933W/wC9xdBqtDTDSSne2e0aJ8d17mmXPdl9Fb2ydDS2aGz44Q+jDrsaQ6YcrjnOZTvHtGkz+nP4cGqYNGnVE73beLc0clx61bqsGmYhNJUvDvRluIPxAyfqpnWYBYZ1T8elqqCngP3AJO+I3Te1X7MwEwsikEVoT2fK1+RsjZCCDuHJco2j2nSfTk08MtPM6GdhZI3OD18SroqWetn0mnZjOzuJyBo3SV1TCfQwtuppmTskomyxuAvMhytOS7Nu3FZFgaGdtUdmxjTKPTJBjvOmHKT8NrMp3hHjnKBU+DUAYO6KmV7vyXNH1K8qcGoSwmmqZGO3JLnA8lxUzr8A8MKl57iqbPggGQHTL3O9eUZAvaDALDOAkVM1nVLLsn2uK4Hay4uZRtHtOk+nK62mnpJnQVDMR4y7oI3QdxTmu8Rn927qWTaehhhdVPfU1NTZ5uGRolNzRuDIpRPod25LBJFptGMdpbfphyXjiSbQRWY/TitDTTVcrIKdmM8jLuNG6fUpAMGqdrL5KyYEC9xAaB1KaVWAlVgpYclZPLSiCK4yyaYS45bryblz61bSqLVnFJRRyGFzrgxrb3S+s+r1K0TnpXGvbW1jaZk5ZSSSSxjJjvu74+q4ZlaYC4gMaSTkAC6XgboO4RWxpc9q4tk0hy/aC+Uj1M2viu04H6H+DOC7Gvo6IS1Qz1M/fyfDc+CieSITHHMuF4G6E+E9v6XUVMOpVG7LplQO/I9TM/Lcu04HaGWC+DeJMyk7urB//YqRjEH1DMFOEWVrzLavHEGZERUXEREBERAREQEREBERAREQEREBERAVp/jUXsu+iurUWlUyRWnG0SBrNLdn+CDCw0wRsDCmnjpbas+OcFxukHevb3pzOGVcPtjBhuD1ZU2bZwlnoqWTFY92V5Byk3bYF67nXVksgjbHUZS433C/+ErVVFBZlVUumr6YNlcMrwSGHs+KTlMYicuHNc1wvBBC3OC5fi1AF+k4wxdzGy4136Lqj8EsG6g6a+zIJSf4jeb/AI3r19h2BTtEbaRt4FwjY438l+RVwts5PhNi90UwH3sR9/Fe276q7gwRpFQNvTL/AP2hdGkwTsWolM1TRXvOQASOuaNoZ1VT4M2JRSl8dCdLeAHgPcSLsxzpgy5ZhCLrUy7cLbuVyx7NeI7SpnuzY+LyggfqQuzS4L4O1sY0yijmaMxxybv1yLAqMC8HRU4gs4NY6PIGyPGUHj9YTBsgttwPns57YwXPaQ8NG3cc3Io0HAi8HIu1Q2LZEYEdTTXEZBIXuudx5chVb8EcG5n6a+y4JHHLjG83/qmDZyjBqFxllqriI8XEafSy3n6K5bkzGWnQXkfZvx3eoEgX9fIuqSWLYcQ0uOkD3jIGMe7Jx5ciwZMELDnc6Spo8eR/3jpjruIZcyYRlB7WgfUWdNFHleQC0bpBvu/RRcEG/aIyEHOF2mCxLIgaIp6U4oyNkL3ZvXl/VXZME8HKkiSSzYJSf4jeb/jemE7OKRRSyxvkiifIyP7xaL7u1X7GINq0xBvHff0ldkfYVgU7RG2kaCB3sbHG/kvWBFgtYjLQiqnULI3Oe4m57gB3p9edMGyE2lViihbM5he0vDSBnAO2vKiGmtGkGUOY4YzHtzg7oU/tPByw544ozTNeNNBIEjtw+tUQYM2RREmCjJiJvfHpjj8RlzphGXIKqCWlnMMwy52uGZw3Qra7VVYNYO1tOGSU7CM7TphvB3c6wY8EMHySx1AC5u22V9x9edMJ2cjRdf1m4Pbw/wDyP7U1m4Pbw/8AyP7UwbQ5ArlN4eL2x1rrWs3B7eP/AOR/auf4SmyI7bjprHgDIongPkxycc37XqUYM5Se1PEZPh1qQ4EeZdZ789TFHrU8Rk+HWpDgR5l1nvz1MWk9OejcUvm1Nxn6LbWX5Og9gLU0vm1Nxn6LbWX5Og9gKsNIZK53o4+R7P8AfnqXRFzvRw8kUHvz1JPS0OTIiKrQREQEREHQLK8hwe5+i1tF45D7wda2VleQ4Pc/Ra2i8ch94OtauSO5dQk8528Y6lk0/nHP7vsWNJ5zt4x1LJp/OOf3fYs2sNso5om+Y9pewz+sKRqOaJvmPaXsM/rCt+lo7cmwe8ls9t/9RWnta82tUNaC5zntAAzk4rVtrAkjbZjA6RjTjvyE/mK181UKa3Z6hsbJW3geu7FblB3VRdiVdPPSPDahmJjZnA3tPqv3VZfi4t5PFu/BSinraKsZiNkYS7IY35DyHOq2UdFC7TWU0EbhlxgwC5DKuj03uOHTr9N0tuPfu3ZVE6y4yVOJ90ySYt25eVu7UtaNsboaR4klOQvblaz47ZWjAAbi7V1yEJezv4GkbbcnIodD4JvqABW+sa0YjAymqHiORgxWlxuDhtZd1Zkln0MshlfTRlxyk3Z0GFgw8aTURfxCTG+BAH0KxcIoXR1oqCDpcjQ3G2g4X5OT6rDpJpaKpEjLnOYSx7ScjgDcR+ikVNW0dbHiNc0kjvon5+TbQRgm64AEk5ABnJ9SlNlwOp7Phhf99re+9ROUhVMpqOmJlZBBDdncGht3xWsta1WPjdT0bsbGyPlGYDcG6fWgqsCZklbX3Ed/JpjfWLyL+rlVrCWFzaiOquJjLMRx9E33i/jvWuppX007Jobg5m1tEbYKkVHaFJWMxcYNeRcY35D+6CMuc0C8kAKuaKaEMM0T4w8XtLhn/f1KTso6KJ+mspoGOGXGDALlgWxaVO6B9NDiTucLic7W+v1lDKrBnxKX3x6mrJFoRC0n0UgxHXDEcTkdeM3GsTBt7GUUrXva06ac5u2gtfbRa+1JiCCCG5QfUg2VsWZp19TTNAl/ib6f7r3Ag32pLn8E4EHayhUWPaePdT1bwHj7kh/i4/X1rc2PTwutSSqp3x6bpRD2hw78Xj9VMK3/ABllW54GLjWqW1to40EJF+U7a1S0c0OkUfmXZv8AvdWwtHyJR8Y6lr6PzLs3/e6thaPkSj4x1Kk9tf03gzBcJ0T/AD2tDjZ/QF3YZguE6J/ntaHGz+gJZpXtGURFVcREQFsMHvLVL7a162GD3lql9tFbdSmlqeJSfBaNby1PEpPgtGtXLDd4CedNHxn+gqd2f5xzcb1BMBPOmj4z/QVO7P8AOObjeqyvXpk2R5UtD2/qVctXwreJW7I8qWh7f1KuWr4VvEjRhIiICIiCif7g9tv9QWRXeJzewepY8/3B7TesK9WSRupJQ17SSw3AH1ILJe5zyyJmO4C92W6790jkY+8A3OGdpyEfBewS9zAsey9hJOO0Xn4j6rIupqkY10Ut23kNyDGZd3dFifeN+Pd6N238blfr7tIG7jtu5R9L1V/w1K3NHEDtAXX9qx3vdPKHlpbG37gOcndKD2M3Vkfra4dSrriA6AnNpl3/ALSrUgcCyRgvew3gbu0QshkkFSwsOK6/7zHDKOMIMeoaXwSNGctICywWz04IvxZG9YWNUQRwhj4m4vfgOynMcnYvIZDTEtcCYSbwQLyw9iCind3gjdkkYMVzdxen7WojiblLXB7iP4QO0rKLaapAddFKBmOQ3Lxz6embi95HthrRlPwCC3agxqQx7b3Bo5b+oFXaNwdSRH8gB49tY5L5pdNeMUDIxu56z60je6neTcXRON5AztO7xIKKf7Nvc7sj48lx2xtFVOkAeI2gveczRnWT/wAPUtBujlA3QDd2J/w1K3NHEDuAC/tQYNS9r6OW6+8NIIIuI41sZn6XC991+K0m5a6tJmZJKGYrQwgXjvncfqWZVSRmmlAkYSWG7L6kGJaVmUuFFkyWXUOMcct2mtIvN19+TkV7BTA/B7BUBln2dG17hcKmTvpOInsVMWmRmOaBwZKxo4iNwrPZaTpoiJHtaczmO2lOUYjtvEWLTSYpbGXh4I71wN5HqPaspQkREQEREBERAREQEREBERAREQEREBERAREQFB9FKHC1lnao4JizqmeMd/SVbDfIPyEEZfUVOFYq7xpTgSCJGjJuE5UHyNXaOGG9n1ktJV2NZlNUxHFkifTuaWn1i9Wtn/DDeNkdG/8A711n+0LglYtp4LwWlPSXVzKmOCKsZGBjB1+RwGUj1lfPdRg1RRWeZtJrdPjm0mZpuxWuGe7buyG5TtEK4lJnaPGFLjebMsUn3Lv+5Vt0fcLWC5tn2O0bgicP+tRa1MGqKmnEMENY54aDJpn8JIBuybY21kwWTqfR0raGlkFXVAvdKGFzgL7g1t+b1qN6mJSH/wCIDC++7uKyL9zS3/8Aevf/AIgMMN42R0b/APvWgq7OtSSzZ4a2zal7XAEzOiIc1rSHXXgZRkWKcGKGCOPuumtF8kjA+6BuRgOa8nOfUm9TEpLJo9YVON77NsUndMTv+9ex6PmFkeRln2M3iid/3rR0ODlJRT1sc0VW9r6Jz2OYLsaM3bRzO/dWX2JQagQs7nrrxVEkZM9zcb4XZvWp3qYlJTo/4YHPQ2R0b/8AvVo6PGFJN5syxehd/wByj+tWznWlS08cdcYZ4w/HN14vB6rjfxLBksSnZOZKSGqxGkOjc8d9k28nrUb1MSmLNH/C0C5lDYwG4Inf96q/+IDDDeNkdG//AL1orTsltfadDBWNqnRuijALM4c8C88tyx24K2ZJNPTxurGyQBznSPZ3jmtPfXAZb+u7aU71MSkuz/hhvGyOjf8A96tO0eMKXG82ZYpPuXf9yi8+DlC6k7opIa3vZBG+OYZcoNxF3FmV2bBqyqeQ00/dxmbkfJG2+Nh4jlN22m9TEpMzR9wtYLmWfY7R6onD/rXrtH7C9wudQWQR64nf96jdTglRRWhNABVNhpmB00jheSSBcGgbt92VKfBmx52TyNZaUYhiLzG4AucN0EZPh6wm9TEpG3R8wtab22dYwPqhd/3Kr/4gMMN42R0b/wDvUVbgxRQwQvq6a0HvmYJGtgb91pzEk5ydxXGYIQd1Pa6KrliFPp8YjaRJIL7rrjmO6m9TEpGdHvCwm82bYxPuXf8AcvW6PuFzfu2fY44onD/rUSmsSlhl/wCCjrO+ic14kBDmFwIIyXZhcva2zO63AyUjm3Pc7vGkZXXX37ubOo3qYlLv/iAww3jZHRv/AO9P/iAww3jZHRv/AO9QnUGPe036pqFFvab9U3qYlL7Q0dcMKujlpu57NhEguL4433gcqjtnYd2xJaNPE6KlufMwHvDu8awtQot7Tfqr9mWHEy0aV3c02SZh291TvU/yfSdqeIyfDrUhwI8y6z356mKPWp4jJ8OtSHAjzLrPfnqYk9KUbil82puM/Rbay/J0HsBaml82puM/Rbay/J0HsBVhpDJXGf7VNtVdi4N2PNSMjL5Kt7Tpgv8A4F2ZcX/tX0Ta3Bqx2Oie+6recnsKc47T9/p896/ra/CpOYe1Nf1tfhUnMParOoUW9pv1TUKLe036pvRH+S9r+tr8Kk5h7U1/W1+FScw9qs6hRb2m/VNQot7Tfqm9D/Je1/W1+FScw9qa/ra/CpOYe1WdQot7TfqmoUW9pv1Teh/k+icD6qWswMs6rlaGyS0gcbs2ZWaLxyH3g61dwOi0nAuzYw0tDKRguPErVF45D7wdasxj9uoSec7eMdSyafzjn932LGk8528Y6lk0/nHP7vsWbaG2UJ0cq6azNCu2q2nawyxxx3B+bwjApsoPo6wtqdCi3IS0vD448g94xW+v2l8knDy1icsNET7B7VUMPbZAuEVGB7B7Vn0VjwS2FPBV90sghmY5rWglxvvyDjJWOcHLMfC6piirxFE4CeN12OAcgc0jIRem9Uf5Md2HlsOFzoaM8bD2rzXza34FH0Z7Vm61rOFqT0zo67SIojJpgIvuAvv4jeLli0mDtPU18UAgqGxySBoLr8YN6r7k3qf5PBh9bO1HSZPyHJ+qDD62TmjpD/kPatk2mr3yvZZVJUQ00TrmRwxXgDaLrxlJuVqssKe0rRp2VFnSUjjFifccGhrbyXXfHMm9T/JhHD22SLjFSH/Ie1Ua+rVzaRRcWIe1ZkeDFBVF0VJTWk2YNJZpzO9kuGbJ908arqrHs11k2ZfT1+KDIcl192N3363XepTvU/yYYw9tm7JFR3eph7V47Dy2HfehozxxntW0rMHrNrMIqmKSKua57shaRcXgEkZdo5LvWsCHB2z3WbLVSQ1zXiTS42i65xuvF/FtpvU/yWDh3aoN5hohxsPaqxh9bO1HScw9qzcG7MdTWgRFHOxr434wy5bmkj9VZpsH6KqpKmtqxWiWNzXSYovx8cnN671G9T/JY1/W1+FScw9q8dh5bDhcYaM8bD2rJkwbsqOGKqcy0HQy3hsbQNMBB7685rs3KvNatMK2WN2mimijEpluN5YQCABum+5TvU/yY2vm1vwKPoz2qrX7bP4VJzD2rLpsGrHqBM9rLSjEMTpXMeAXPA3CMnwO6rTMHLPip45auKuLpgXMjhzht9wLicmXcCjep/ksHDu1ybzDRnjjPavRh5bIFwioxxMPasuTBOieKJlIKqSSqLiHPFzWtF994z3j6FeRYMWdUydz00FpNmIOI+Vl0byNrdbf61O9T/JinD22SLjFSH/Ie1TnQTwjq7ZwmqaashpmsbSGRuIwg42OwfVQ+HBmz20lPPVQWgGzYxdJE29kVxuuOQm9S/QRoDT29UsZG5jO433F4vGV8e1m/h/VRtWelbbY+3VLbu0iK666/aWqW0toEQx35y4k/ErVqzOHSKPzLs3/AHurYWj5Eo+MdS19H5l2b/vdWwtHyJR8Y6lSe2v6bwZgvkvR1wvtSzNFK2KKCKnLI3x3FzDf4MetfWgzBfI2jzZLKnRUtmY08hL3x5Rf+GFOYjtb7/SG6/ra/CpOYe1Nf1tfhUnMParOoUW9pv1TUKLe036pvRH+S9r+tr8Kk5h7U1/W1+FScw9qs6hRb2m/VNQot7Tfqm9D/Je1/W1+FScw9q3+h3hlaloYaWZRzRU4jlmuOIw35j61GtQot7TfqpBocWQynw3suYU8gLJr7zfuFTvWf0idsO82p4lJ8Fo1vLU8Sk+C0allDd4CedNHxn+gqd2f5xzcb1BMBPOmj4z/AEFTuz/OObjeqyvXpk2R5UtD2/qVz3Rqw2tfBe26Gls+OlfHNTGQ6awk345G6uhWR5UtD2/qVzjRysZlp25Z8joJJMSmIvZf6ZUxMRP2tfOPpBtl3CX8CzujPamy7hL+BZ3RntWLrTh3jUfqmtOHeNR+qv5ONj/n7ZWy7hL+BZ3RntTZdwl/As7oz2rF1pw7xqP1TWnDvGo/VPJxn+ftlHRdwkuywWdd64z2qhuizhBnbS2XxiI9qx9asbO/ZR1LXN74EX5CFl1+DFHLUNmnp6+WR8TC4RAd73oz35zt3J5ONOL+zZdwl/As7oz2qh+ivhA83vo7McfXCe1UDA+iDpGvgrHERadEWC4PbduHMc+T1KgYJUnckcnclaZnkgN/huByndu2uNN+Mxf2vM0WMII8raSzG+sRHtVWy/hH+DZvRntVumwYp4GS1Op8r5GFrIg8EgON5LiPUBkWVBZFoNe2R1BWVLfvASQki/aIIGRPJQxf2tbLuEv4FndGe1UyaLOELx39LZjuOI9qx4sEqVsGmTUlbiNdpYbGDjFwGXPkACuwYKUjJ6WobSV2kumDbnC57XAggHaI9YTfjMX9vWaLFvsIc2kstp2iIj2q5su4S/gWd0Z7UZg1QiotEuo6+57X5rsoxxfd8c3qWLJgpSMoWzdy1umh2I9pzA3X3jbuOW7iTfjMX9r79FfCB5vdR2WTumE9qR6LdvsNzKay2n1RHtVupwQpI5tLipK1xAGPj7RIBuybm2r0lgOdZDKYwVRYJizFy/dABATycZi/t7su4S/gWd0Z7U2XcJfwLO6M9qtvwQs5skTdItAiZjHA4o7zGzY278FQcEKMGSLuesM0Ycca77NxblIG3tHL6k34zF/a4/RXwgeb30lmOPrhPajNFfCFhvZSWY0+qE9qtR4J0elMklpK0mS8sjizgA3XknqVUmB1JiU2kQVcj6hxDcYYoaAQDft35f0TfjMX9r2y5hLvezujPaqdljCG+/uSy+hPaqI8EbNkmZE2G0BjPDdNLRiOy7Qzi/aKoOCVGNNkdS12kMk0tuKL3vdt+oD1pvxmL+2Rsu4S/gWd0Z7VN9D208O8LZW1c1HZ9FZjT31TLCe+9TBfl6lHcBMDLLnwkoXT0E8lMZC10dQ03B4aXNJ2iF3ekIu7ka10TGgt0stDcVuXKLvgom9Zj6hatbfuWZC2na1ul6WSBdkuV9YkVFiSh+mX3EnNl+9fnWWqNRERAREQEREBERAREQEREBERAREQEREBERAVirDnCPFa5wDw4hoF+TjV9a+0ayaCcMjDbrr8oQaPDSM6hYk0D3xMlY5sZaDlBvAxr81/qUFp6SndNIZKJkzXNMkobFncDjD4335PWug2rIbRpDTT3Bl4Pe5CtM7B+hJvJmv9pZ2rMyIpHS0zm476eFz3nGcdLGUnKUdSUhibFJSsIYSY3MjaS2/KQQc4vUtFhUQFwM13GmoVHuzcqr47CIspaOOGaOOjDjNGWOe6NrbtwAbiqfDE4MDhLGWtDTpbQWuAzEZRcVLNQqPdm5U1Co92blTSwiIpabHkc6n718boxeA9wBuzknjyLxtLT6UGupo8YSF4+ybi3EAbvqUv1Co92blTUKj3ZuVPHYRQUtOKNx7iZ94xxv0rIGuuLvhkz+tUvo6XEIFNDuZIgpWMH6AG/wC25yq1Co92blTxyIkaek7ohkbTd7GGX3wtv7y667LtqllLSB8pNN3r2Pa26Bt/fZ78u0pfqFR7s3KmoVHuzcqaWEONJTOp5GGnDZHOa4YsLcUYt92361XNS0cj3vfSgY+V7GxNIJ27nX5AeJS7UKj3ZuVNQqPdm5U8dhE5oaaWrmc2iDmTtGMwRtDhigXEZcpF19ypip6PSKh3ct5dHpYe6BrBeSO9AvN52zxKWusGhcLiZjt50Ng0ZcHOfUPIzFzy67lU6SIo6GIsY0h8ZY0MGltvaWjNkvFxVt1HSOkc59O+7FAjce/e035zef0CmGoVHuzcqahUe7NyppYRM09PIWF8LHljMUvkjF7st+6cy97kpN7QdGFK9QqPdm5VhW1S2RZFA6qqpZg0ZheL3ncCjxyIlbdTZllURqaingvzMZiC95XMLTrJa+sdUyNYy/M1guAG4pBbn/zatdUTvkAzMjxsjAsDUum9KTlTReIw0qu0XjkHvB1ra6l03pScqu0lmU4qYjjPyPG3601lZ061PEZPh1qQ4EeZdZ789TFHrU8Rk+HWpDgR5l1nvz1MW89OWjcUvm1Nxn6LbWX5Og9gLU0vm1Nxn6LbWX5Og9gKsNIZK5V/aN8hWV/Mn+hdVXNdHumZU2NZzZL7hUk5OJJ6WjtwRFutS6b0pOVNS6b0pOVZatGlRbrUum9KTlTUum9KTlTUaVFutS6b0pOVNS6b0pOVNR0jBzzYo/5YdSw6LxyH3g61sLEaI8H6dgzCAD9Fr6LxyH3g61vHTkjuXUJPOdvGOpZNP5xz+77FjSec7eMdSyafzjn932KjWG2US0YP+XNr+wz/AFGKWqMaKcQmwCtOJ99xYzN7YUz0tHb5rppaNtDLBOJ3PleHXsaO8uvuIvOVUvlgipJIKcySGUtMkj2huRpvAAvO2tlqXTelJypqXTbsnKstZXYtSZI7Fg0yneySU6UXuaRfGwktHqz/ABAWAx745GyRm57HBzT6wt0bMpyLjJMQNovJXmpdN6UnKmo18xs6okMzjU07nHGkjY0OBO3im/J8VdfaLGy0b4IHMZTtezELspabhn3dvjWXqXTelJypqXTelJyprJhgmpjY15ZWWlM4i5jHyOYGndcQ7L8FjzPjfZ1PC3HEsReCMUYpDnX571ttS6b0pOVNS6b0pOVNZMNbWyia0X1FGJnPe/TGAs74OGW4AX35lft3vaxsDYTCxjS/FO255vcQdsbXwWXqXTX3h0oO6HL02ZTk3l8pPrdemo1lnSwwVOmzmW4NIAY0G+8Ebq8hfTsoamAvmL5HNxDpYuuaTdfl27/gtnqXTelJypqXTelJypqlrJn076Gmha6bTIy4vvjF3fEX3Zdq74q9JU0unktbPJBJAIZWloa4YoFzm5c+S9ZupdN6UnKmpdN6UnKmsowwqWWggbO0uqZDNC6LH0sDEB9V+UqkNbPQwPmZUN0u+JksTBIHNBvAcL72kX5Fn6l03pScqqjs+KMkxTVEZOcskLb+RNRiVM7aOazzBE9roI3OMch765xOe7MSLz6r1b7piZjPbWWlLkOJE+RzQD+Zwdlu9SzdS6a8kulJOUkuylNS6b0pOVNZMMGhnpqd0ErZquKRlxma0XtmN/tZPiFIdC032/UkNDQYHENG134yLWal03pScqkmh/Rw01rzPjc+8wEZT6wprE5VvH+MpPbngYuNapbW3PAxca1S3c0OkUfmXZv+91bC0fIlHxjqWvo/Muzf97q2Fo+RKPjHUqT21/TeDMF806Mf/MW0/aZ/QF9LDMF8/aKtBDNh5aMj3PvJZmP5AotGYXr254i3WpdN6UnKmpdN6UnKs9WjSot1qXTelJypqXTelJypqNKtvgX50UPvPoq9S6b0pOVbLBez6eK36SVpfeH7Z9SmK/atvxl0C1PEpPgtGt5aniUnwWjW7lhu8BPOmj4z/QVO7P8AOObjeoJgJ500fGf6Cp3Z/nHNxvVZXr0ybI8qWh7f1K0WH/j9P7n6re2R5UtD2/qVj4SWfT1tTE+UvvDLsh9araMxiGiCopLqFR7s3KmoVHuzcqz8ciNIpLqFR7s3KmoVHuzcqeORGJASwgbfqXkhjc4FgnjuY1pOIDjXC6/PkKlGoVHuzcqahUe7Nyp45EXvdp0Too3XsxWxsznFGe/jvN/GqnNa2d7GMLGR3RsaRlAHabzepK6wKF2czc5G2DRNFwM3OTx2EZyDHDml8bwA8A3OF2Yj1hUQthhmbM2OWV7Te0OaGAes5TeVKtQqPdm5U1Co92blTx2EWBcGPZjzRtdK6RrozlF5zEXi8Lwgkxuxp3hjg4mR5JJBGZt5AyKVahUe7NypqFR7s3KnjsItkMkxIlxJA4A4oxhe4OzX+pXKZuNI4vgfKwMxntaCe+aQW/Hau9akuoVHuzcqpdg/Qk3kzX+0njkRmK8sxnG9zu+cd0nKVS4/YBrRJpgeXm9oxcoAIz+pSoWFRAXAzXcaahUe7Nyp45EVfil8WKJcRrGNdewX97uZdte3tNQ97hNiOLyAGC/vr8+XavUp1Co92blTUKj3ZuVPHYRVguiY12mNcwFrXtYHXtvvuIvyFVSSBrad0LJGugcT9pdc68g3k35M36qUahUe7NyobCoiLiZuVPHYRinaxtWyMxVLQx4OluYAGXG+8uvygfrkVEbnaS5odMxr3mQOjNxB9YvF4uuUo1AosUML6gsGZpkOLyZlVqFR7s3Kp8cjV4IsdJb1MA6olAxi8yPPfC7MG33DjzroNLDKHAESYocCMcXYt1+bKcpv4lG7Ns+Ggq21UBe57b7sc5FudU6jcj5FesTEfY3SKlhxmA7oVSsCIiAiIgIiICIiAiIgIiICIiAiIgIiICIiAovhvY9tWlSCWwLY1PrIx3rZIw6OTjyXjjUoRCYfMGEmFmiRg/aDqK1qh9PKM18DLnjdBuyhazZLwx4THQM7F9E6JViauYPCkYyAyCVrmmUX3LmWxvVf+ncn7LTePTGaWz9SgeyXhjwmOgZ2Jsl4Y8JjoGdinmxvVf8Ap3J+yzaDQ8ljp5dNis55z/c/ZPJHpGl/bm2yXhjwmOgZ2Jsl4Y8JjoGdik+tb/DpOZ+yp1rf4dJzP2VfNT0a39o1sl4Y8JjoGdibJeGPCY6BnYpLrW/w6Tmfsmtb/DpOZ+yeano1v7RrZLwx4THQM7E2S8MeEx0DOxSXWt/h0nM/ZNa3+HScz9k81PRrf2jWyXhjwmOgZ2Jsl4Y8JjoGdikutb/DpOZ+yw7JwXfXW/JQxspQ4XnvxkyfBI5az+jW/tptkvDHhMdAzsTZLwx4THQM7FPNjeq/9O5P2TY3qv8A07k/ZW8kejW/tA9kvDHhMdAzsTZLwx4THQM7F0ij0PZY6SZ0sdnPIvP3PVxKPa1v8Ok5n7KJ5ax3Bpf2jGyXhjwmOgZ2Jsl4Y8JjoGdikutb/DpOZ+ys19gwUNJJU1PcbI2DKcT9lHmp6Nb+0bq9FPC2lgM0trgMH+AzL+ig1v6JWFtsVIlqrSvazIxmlsuA5Ft7bgktGpL9Kp2RD7jAMy1+ov5IORRPLWf01rS0ftpteWEO/h0Y7E15YQ7+HRjsW51F/JByJqL+SDkVd6+k62abXlhDv4dGOxZFmYYYQSWnSsfWAgzMB+zG7xLKs6xTVWnJTMbACATlGRb2gwSmjrYH/wDC5JGHN6+JTvHo1s7laniMnw61IcCPMus9+epij1qeIyfDrUhwI8y6z356mKZ6Z0bil82puM/Rbay/J0HsBaml82puM/Rbay/J0HsBVhpDJXFf7Wdq1tlYNWNJQzaW6SreCbgcmIu1Lj39qGk7rweshlzDdVPPf+wpzjtP3+nzPrywh38OjHYmvLCHfw6Mdi3Oov5IORNRfyQcijevpGtmm15YQ7+HRjsTXlhDv4dGOxbnUX8kHIrNl2Gau0JKdjYAQCcoyKd6+jWzWa8sId/Dox2Jrywh38OjHYpTrQqP/Kc39k1oVH/lOb+ybR6NbOyYFzy1WBVmVMxvlkpGOed03Kii8ch94OtZeDEDqXBWipzdfHTAZM2ZYlF45D7wdasxj9uoSec7eMdSyafzjn932LGk8528Y6lk0/nHP7vsWbaG2UG0eaueg0J7cq6V+JNHHHcbr/7xinKhmjbD3RoX2zD3pvjjz5vCMVs4S+OdeWEO/h0Y7E15YQ7+HRjsW51F/JByJqL+SDkUb19I1s02vLCHfw6Mdia8sId/Dox2Lc6i/kg5E1F/JByJvX0a2abXlhDv4dGOxNeWEO/h0Y7FudRfyQciai/kg5E3r6NbNNrywh38OjHYmvLCHfw6Mdi3Oov5IORNRfyQcib19Gtmm15YQ7+HRjsTXlhDv4dGOxbnUX8kHImov5IORN6+jWzTa8sId/Dox2Jrywh38OjHYtzqL+SDkTUX8kHIm9fRrZpteWEO/h0Y7E15YQ7+HRjsW51F/JByJqL+SDkTevo1s02vLCHfw6Mdia8sId/Dox2Lc6i/kg5E1F/JByJvX0a2abXlhDv4dGOxNeWEO/h0Y7FudRfyQciai/kg5E3r6NbNNrywh38OjHYuhaBFvWnauFNXBXVGmRsoi8DEAy47FFtRfyQcim+gzZ/cmElVJdGL6QjvB+dimLxPUK2rOPt0m3PAxca1S2tueBi41qlZnDpFH5l2b/vdWwtHyJR8Y6lr6PzLs3/e6thaPkSj4x1Kk9tf03gzBfIWj5hNbVBorWzS0tWGQxvjuGID/dhfXozBfMOjRg3NXaJNrVTO57nln3xl+4PUpzhbE/pyXXlhDv4dGOxNeWEO/h0Y7FKdaFR/5Tm/sr0mC7orPc5zKQkDPd+ybR6RrZENeWEO/h0Y7E15YQ7+HRjsW51F/JByJqL+SDkUb19Gtmm15YQ7+HRjsUj0NsKLarMObLpKmrD4pJrnjEAvyFYuov5IORb3ACytJwxs2XEh7ya/IPUVMXr6RNbYdqtTxKT4LRreWp4lJ8Fo1ZlDd4CedNHxn+gqd2f5xzcb1BMBPOmj4z/QVO7P845uN6rK9emTZHlS0Pb+pXM9HnCy3cH7ds+CyqwQRy0pe8aWDeccjbC6ZZHlS0Pb+pUW0TcFprftOkqIu5bo4cT7UZc9+4prOJzha0TMfTiuyXhjwmOgZ2Jsl4Y8JjoGdi6LUYAPprEklkis4uYM4Zlz8Sj+tb/DpOZ+ytPLWO4ZaX9o1sl4Y8JjoGdibJeGPCY6BnYpLrW/w6Tmfsmtb/DpOZ+yjzU9Gt/aNbJeGPCY6BnYmyXhjwmOgZ2KS61v8Ok5n7JrW/w6Tmfsnmp6Nb+0a2S8MeEx0DOxNkvDHhMdAzsUl1rf4dJzP2R+C1zC7SqTN6H7J5qejW/tGtkvDHhMdAzsTZLwx4THQM7Fv8FMEZLWdUaU2kGl3X6YP2W92N6r/wBO5P2VvJX0a29oHsl4Y8JjoGdibJeGPCY6BnYp5sb1X/p3J+yyavAJ9NYjpHxUBLBnDMufiTyV9GlvbnWyXhjwmOgZ2Jsl4Y8JjoGdikutb/DpOZ+ya1v8Ok5n7Kvmp6Nb+0a2S8MeEx0DOxNkvDHhMdAzsUl1rf4dJzP2TWt/h0nM/ZPNT0a39o1sl4Y8JjoGdibJeGPCY6BnYpLrW/w6Tmfsmtb/AA6Tmfsnmp6Nb+0a2S8MeEx0DOxNkvDHhMdAzsUkkwXujc7S6TIPQ/ZUYJ4HzWvHUGJtINLIB0wbt/qUxy1n9Gt/aPbJeGPCY6BnYmyXhjwmOgZ2KebG9V/6dyfsmxvVf+ncn7KfJHo1v7QRmiRhm54Y20r3HIAIGZf0XVdDyytEO1tKr8IrVNn0RyiDSGadIOTvAtjgNgWLMtSkrJ6egfpYOVjMt9x9S6Wom8T1C9az+5eNFzQNxeoio0EREBERAREQEREBERAREQEREBERAREQEREBERBg2z4l8QtKt1bPiXxC0qAr0Xi83F9FZV6Lxebi+iInpAFHMLcMrHwXlhjtTuq+UYzDFHjj45VI1yfRwjZLalCyQYzTTG8fFZ8HHHJeKypy3mlcw3Gy7gj6Vf0H7psu4I+lX9B+64XJQNEjmh5uBVHcI9M81ej/AAuNh5rO77LuCPpV/Qfug0XcEiQ0Or8v+B+64R3CPTPNVcdG3TG9+c+4o/hcZ5rPrJha9gcMxF6xcDPPmX2ZFkQeAj9gLHwM8+ZfZkXm07dU9w6KiItkro8Tn9g9SgKnw8Tn9g9S57UTRU8DppnhkbBeSdpZcn6EVwp0QsHsGbQkobU7rErACTHDeMvrvXMMKNFmx7Yq8hq2UrD9nHpf6nLnUe0ZbSZbOFtU5gIguZiDbzZ1zruf1rqp8elqxLHyWiZdM1+WD/5ro/3TX5YP/muj/dcz7n9arfRPjjD33gHNeFf+NRPms6hRYZWNW1kNJD3Rpkrw1l8eS8/FSNcbwXhuwjs835p2da7Iubn44pMRDbjtNo+1rBjzhm4n9amNN4eL2x1qHYMecM3E/rUxpvDxe2OtUjpaOnQbU8Rk+HWpDgR5l1nvz1MUetTxGT4dakOBHmXWe/PUxaz056NxS+bU3GfottZfk6D2AtTS+bU3GfottZfk6D2Aqw0hkrjH9qu2aOxcG7HmrdMxZKx7BiC/LiLs6+eP7cMemYH4PN/9Qf8A6avWsWnEkziMuL6/LB/810f7rNsfCmyrVrRR0un6aQT37LhkXKZaJ8RAkvBIvUg0OIsXCiJ2N/dv6le/x61rMqV5ZmXU1bwV8uz+wetXFbwV8uz+wetcle289wliIius6BZXkOD3P0WtovHIfeDrWysryHB7n6LW0XjkPvB1rVyR3LqEnnO3jHUsmn845/d9ixpPOdvGOpZNP5xz+77Fm1htlB9Ha0Key9Ci26+qx9JijjL8QXnwjApwua/2nY9N0DMJWX3Xwxf6savEZnCZnD5cosO7CrKyGkh7q0yV4jZfHkvJu3VKFw/BuIRYQWeBl/4qPL/nC7gq8/HWkxhPHabdiIiwaCIiAoxaOHFiUFbNRz91abE/EN0d461J1xTC+ITYS1wOT7c5VtwccXmYlnyWmvSebImD27V9D+6bImD27V9D+65fqePxDyJqePxDyLq/jUZ+aXUNkTB7dq+h/dZ1iYY2PbFe2hpO6NNfeW48dwyLkOp4/EPIpFobxtjwrpQNx/UVS/x6VrMwRyzMw66iIuJ0CIiAiIgjVqYbWJZ1fLQ1PdWmxG43R3jrU10DMK7Kt3CirpaHT9MZRGQ6Yy4XY7B9VwjDeJsuFNoMOT7bOujf2VKUQYeWg8PJvsx4zf4ka7fDWK7Oa3JM5h9DW54GLjWqW1tzwMXGtUqKQ6RR+Zdm/wC91bC0fIlHxjqWvo/Muzf97q2Fo+RKPjHUqT21/TeDMFwnRP8APa0ONn9AXdhmC4Ton+e1ocbP6Almle0ZVFf5Ol9hVqiv8nS+wqNIRpaSrwnsumqJKeXTsaM3G5i3a5NhHUllu1rcTNMetW4OOLzOWPJaax9J1rtsn0p+jUs0MrYsqvwkpXY1QHY90I0vIX3LiNAX1VQIgwXZyfUup6GENRHhXZLxT6XAJgATxFdUfEriZc1/kWj6d6tTxKT4LRreWp4lJ8Fo1itDd4CedNHxn+gqd2f5xzcb1BMBPOmj4z/QVO7P845uN6rK9emTZHlS0Pb+pVy1fCt4lbsjypaHt/Uq5avhW8SNGvtnzfn4vqoSptbPm/PxfVQlY8naIRKr0QMH6WrlppXVWmRPMb7odsG7dVrZHwd9Kr6H91x/CWrIwhtJuIMlVJt/nKwO7HegOVejX4fHMQ455uTP07fsj4O+lV9D+6bI+DvpVfQ/uuId2O9Acq8NY677g5VP8PjR5uV36wsNLEtm1G2bRmfT3sLwHx3C4KQyeDd7K4BoHzPn0RGyyOxiaaTqXf5PBu9lcPyOOOO+IdPFabVzKrQrz2hxs+qnSguhXntDjZ9VOlMNIFbt3zfm9kdauK3bvm/N7I60nolClEZ9ETB6KWSJ5q8ZhLDdDufFS4/dXzNalWRadWMRvhn7frU/F4a8szsy5r2pjV2fZHwd9Kr6H902R8HfSq+h/dcQ7sd6A5U7sd6A5V2fw+Nz+bldv2R8HfSq+h/dbDB/DKxrctM2dQun0/SzLc+O7ICB9V8/vrnBhdiDlUn0A5XzYe1EsjryaGT+tiz5fi8daTaF+PmvNsS7xP4B/sFXdCjxev8AbZ9Van8A/wBgq7oUeL1/ts+q4eN1T3CboiLZLZ2V96P4rarVWV96P4raqZRAiIoSIiICIiAiIgIiICIiAiIgIiICIiAiIgIiICIiDBtnxL4haVbq2fEviFpUBXovF5uL6Kyr0Xi83F9ERPSALlWjZ5Xs/wBwetdVXKtGzyvZ/uD1p8T+2GPyPwcrn8NJ7RVCvaU+arMUTC9xJuAW8s+wWi59W68+gF7EVm3TityVpH2j4a8sLw04ozlI/CN9pSHCGWlioO5IiwPvHeM2lHo/CN9pLRhPHebxl9TweAZ7AWNgZ58y+zIsmDwDPYCxsDPPmX2ZF4VO3pT3DoqIvJHMjjL5HBjQLyTtLVK5JLFDZ1VLK8MjYwkk5hkXzvhfhC+1ZzBTuLKNhyD0zulTXDnCh9qRzUNE8iiZfefxD2LlKyvK8Vc6w48vzewOpRqkpn1MpYy4XZSSpLhx5fm9gdSjlFU9zPkfiXki4L0uH8YcV85nDaU9HT0wxzcSP4ysK16mKbFZG6/E21jVFTNUO+0fk3BmVlazKlafeZbDBjzgoPfs612BcowXpJjbNHMW4jRMw5dvKurrz/ldw6+CcxK1gx5wzcT+tTGm8PF7Y61DsGPOGbif1qY03h4vbHWsY6ax06DaniMnw61IcCPMus9+epij1qeIyfDrUhwI8y6z356mLWenPRuKXzam4z9FtrL8nQewFqaXzam4z9FtrL8nQewFWGkMlcJ/tiuYzBWxXyOaAK1+U+wu7L56/tv+Z9gfzz/9Na8X5wryRmsw+WrTqGVFQHR41wF1622h55yxe7f1KPAXnFGdSnACkmjt2KaRtwxH5NvMunl+6SxpisxDo6t4K+XZ/YPWrit4K+XZ/YPWvMr27J7hLERFdZ0CyvIcHufotbReOQ+8HWtlZXkOD3P0WtovHIfeDrWrkjuXUJPOdvGOpZNP5xz+77FjSec7eMdSyafzjn932LNrDbLnP9pf/khhH7uL/VYujLnv9oyJs2g1hBETcDHH/qsWlPygtOIl8H2H5xUP81H/AFhdtXF7MaI8K6RjMwq4x/7wu0J8ruEcH3AiIuVuIiIC4xhP501/vyuzrjlux6bhhVxF1wNSQun4v5Sx5vqGGAXm4NJPqWU6hkjpjNJku2ltGR01HHfkZ6znK19oV7ZmmONnebpXoTEQ4ovNp+mAtroeedtNxP6itUtroeedtNxP6isuX8JbV7h1tEReW7RERAREQcewpjdLhjWRNzmddX/s2UQpsMK15fe42e8erwjFynCWXScNKyUtvunzfBdQ/s1VclThzXB1waLOfcB7yNen/wDyeffO7utueBi41qltbc8DFxrVLmaQ6RR+Zdm/73VsLR8iUfGOpa+j8y7N/wB7q2Fo+RKPjHUqT21/TeDMFwnRP89rQ42f0Bd2GYLhOif57Whxs/oCWaV7RlUV/k6X2FWqK/ydL7Co0hGlyO3InTYS1kTCATO/OuuLklty6ThLWS4t9078i2+J+Uufnzj6SDAigpobQc+W55EZN78wU+wPtOmmw0sumhvedPyvGbMVyWx6qaetdjuyYmYZlPNDDz8sj3/0K9ObY45iHneLN4taX0PaniUnwWjW8tTxKT4LRrzHZDd4CedNHxn+gqd2f5xzcb1BMBPOmj4z/QVO7P8AOObjeqyvXpk2R5UtD2/qVctXwreJW7I8qWh7f1KuWr4VvEjRr7Z835+L6qEqbWz5vz8X1UJWPJ2iHzLhR5yWn/Ny/wBZWuzrcWxTGrwvtCAEMvq5cp9srbUlBQ2fHprrrxnkkXu8dZmIeZy8sUnH7RmagqYqTumVmI2+4X5ysY5it1btqQ1UWkQtJF9+OVpTmKm2P0njm0xmyTaA/n/H/LSdS+g5PBu9lfPmgP5/x/y0nUvoOTwbvZXk/N/sdvB+CrQrz2hxs+qnSguhXntDjZ9VOlSGsCt275vzeyOtXFbt3zfm9kdaT0ShR+6vly1fKlX79/WV9Rn7q+Zn0hrbfqoQ8M+2kJPxW/wIzMsPkTiImWtAvOKO+KyZ6CpgphPMzEYTcAc6k1NQ0Vmx6acUEZ5HrT2/acNXGKeEEtBvxztr1JriPtwRyze0RWPpppPBu4lL/wCz557zfyMn9bFEJPBu4lL/AOz557zfyMn9bFzc/wDVZ1cf5Q73P4B/sFXdCjxev9tn1VqfwD/YKu6FHi9f7bPqvI43ZPcJuiItktnZX3o/itqtVZX3o/itqplECIihIiIgIiICIiAiIgIiICIiAiIgIiICIiAiIgIiIMG2fEviFpVurZ8S+IWlQFei8Xm4vorKvReLzcX0RE9IAuVaNnlez/cHrXVVyrRs8r2f7g9afE/thj8j8HNrPqGUtqiaW/EYX5uIrItC2qmovZD9jH6s5Wsn8NJ7RSKKWV4ZEwvcdoL18zEYcU0rM7SpOXOr1HBNUTtZDEXm/aW3s+wSbn1Zu/wx2rfU0MdOAyJgY3cCvHHM9s7/ACIj6q7bB4CPiCxsDPPmX2ZFlReCbxBYeB2TDeZx3JF4FO3rz+nRnkMBJIAGUkrmWHeFLrQkdZ1A8ikYbnvH94exXsPcK+6i6y7Nl+wGSaQfx+oepQlaTLSIeu8Vk4iospS7xWTiKiyysvLnWHHl+b2B1KKH7yleHHl+b2B1LRWPEySeTTGA3C8Xr0uL8YcF5xMys01HNPlDbm7pW2pKGGDvrsd26VlLHqauGAd+b3bgW+Ihyze1vqGysjypS+8HWp8uVWJXzVGEFCwd5Hp7Mg411VcHzJzaHd8Ws1rOVrBjzhm4n9amNN4eL2x1qHYMecM3E/rUxpvDxe2Otc8dOiOnQbU8Rk+HWpDgR5l1nvz1MUetTxGT4dakOBHmXWe/PUxaz056NxS+bU3GfottZfk6D2AtTS+bU3GfottZfk6D2Aqw0hkrgX9tCmNTgpYLQbgK55d0a76uF/2wfNaxP51/9C14vzhTlmYpOHy9TUsMA71uXdOdb3BbywziPUtBV10MN4vx3bgWXgPVzVOEsQccVuI/IOJdfNMRSXJxVtN4mXR1bwV8uz+wetXFbwV8uz+weteVXt6U9wliIius6BZXkOD3P0WtovHIfeDrWysryHB7n6LW0XjkPvB1rVyR3LqEnnO3jHUsmn845/d9ixpPOdvGOpZNP5xz+77Fm1htlAf7Qf8Ayft/3cf+qxT5c4/tL/8AJHCP3cX+qxaU/KEWjNZh8NUBBwtpSDeO7Y/6wuzriVh+cVD/ADUf9YXbU+V3BwdCIi5W4iIgLjeEMjosLa17c4qTcuyLjGE/nTX+/K6fi/lLHm+4WJZXyvxpHkleNDibg28rLpLPmmuc/wCzbulbWmpYacd43LunOvRxMuObxX6hraazJJMs3eDc21kaH4uwwgG5j9RWwOQZVr9D/wA8IP8A7nUVnzxikp4bzazrKIi8l6IiIgIiIOOYX+dtd75dL/svg6969+KbtTni/wD+5GudYQtbJhxVseLwZ8o+C65/Z4AZhdWNY0AdwvyD22L08f8AxZcF7Yvh2a3PAxca1S2tueBi41qlzLw6RR+Zdm/73VsLR8iUfGOpa+j8y7N/3urYWj5Eo+MdSpPbX9N4MwXCdE/z2tDjZ/QF3YZguE6J/ntaHGz+gJZpXtGVRX+TpfYVaor/ACdL7Co0hGlyDCTy/Xe/f1rr65RabQ7CurD23jT35Ft8X8pc/POIyuYH0E9XaBbGLhiffOZda0OrJp6TCqz5D9pKJPvnayHMoVgdktF134Z+in+B9VTx4X2bCZRpr5rgzbzFerFYjjl5F+W1uSIh1u1PEpPgtGt5aniUnwWjXlPShu8BPOmj4z/QVO7P845uN6gmAnnTR8Z/oKndn+cc3G9VlevTJsjypaHt/Uq5avhW8St2R5UtD2/qVctXwreJGjX2z5vz8X1UJU2tnzfn4vqoSseTtEPmy2ak0mFtpVDWgkVUt1/GVraurqKp+PNITuDaCy8KPOS0/wCbl/rKtUFmVdWQWsxI/TfmXuUzNYh519aztLCWxo7IqamMve3S47r7ztrfWfZFNS3OI0yX03rNl8C72StY4/bmv8n9VanQH/5gR/y0i+g5PBu9lfP2gT/zAj9xIvoGTwbvZXjfN/setw/iq0K89ocbPqp0oLoV57Q42fVTpUhpArdu+b83sjrVxW7d835vZHWk9EoUfur5llqn0Vt1c0YDnaZIBfxr6aP3V8uWr5Uq/fv6yt/gT9yw+RGYiJUVdVUVUmPNIXn9ArKzrPsuqq7nAaXH6b1IrPsqmpLnYumSem9enFZt9uG/NXjjEI/T2RUzU8ksjdJjDCcuc5Nxb7+z557zfyMn9bFmVnic3uz1LD/s+ee838jJ/WxZfKrFeKVvi8k8l/t3ufwD/YKu6FHi9f7bPqrU/gH+wVd0KPF6/wBtn1Xi8b057hN0RFsls7K+9H8VtVqrK+9H8VtVMogREUJEREBERAREQEREBERAREQEREBERAREQEREBERBg2z4l8QtKt1bPiXxC0qAr0Xi83F9FZV6Lxebi+iInpAFyrRs8r2f7g9a6quVaNnlez/cHrT4n9sMfkfg5pRU7Kq1BBI4hr3m+5SykpYKWPEhjDPXtlRmxyGW2xxcAAX5TxFbS0LdhivZTN0527tBe3TERl5fNW1raw20sjImF8jwxo2ytNWW8BIGUjL8v3zmWjq6uoqn480hO4NoK1H4RvtJbk9Lcfxoj7s+p4PAR8QXPa3CA666qioJLgQ8SSMOf1BZ+F+Emlwam0D++xAJpBteoKA4Oecj+J6+er29qI+4S9ERXaPXeKycRUWUpd4rJxFRZUsmXOsOPL83sDqWhsuaOnklfI64Xcq32HHl+b2B1KKH7y9Li/GHn3jMzDOq7RkkvbF9m39Vgk3nKvWNxnhgzk3Lc01nwxZZPtHevMte1JmKKMFqaZ9uUUgZc0TA3njXWVziyK2EW3Rws78mYDJmGVdHXD8uP8odPxpmYmZWsGPOGbif1qY03h4vbHWodgx5wzcT+tTGm8PF7Y61hHTeOnQbU8Rk+HWpDgR5l1nvz1MUetTxGT4dakOBHmXWe/PUxaz056NxS+bU3GfottZfk6D2AtTS+bU3GfottZfk6D2Aqw0hkr59/ttyPZgfYQY4i+uffd7tfQS+f/7asTpsFcH4g64muf8A6a04/wAoRf8AF8lKT6H1NMLfjmcy5uI/PxLFp6KCmGOcpG2VuMEK2GTCCOGPL3j8u1mXXyxikuWl83jCdq3gr5dn9g9auK3gr5dn9g9a8uvbvnuEsREV1nQLK8hwe5+i1tF45D7wda2VleQ4Pc/Ra2i8ch94OtauSO5dQk8528Y6lk0/nHP7vsWNJ5zt4x1LJp/OOf3fYs2sNsuef2jYtO0GMII77r448v8A91i6Guef2j5TDoL4RSAAkRx5/esWlPygt1OHwrZkbYsK6OIG8CrjH/vC7QuK2PIZMJ6J785q4yeeF2pPldwjg6+xERcrcREQFx+2PPWq/miuwLjluyCLDCslOUCpJXV8T8pc/wAj8W7WJV18MN4Dsd24FrauvmmyA4jdwLEXoTZxV4va/U1c1R943N3As7Q887abif1FapbXQ887abif1FY8v4S3pERMYdbREXlu4REQEREHIsIXCPDire51wE+XkXU/7OFayfDetijb3os95vPvI1ybC/ztrvfLpn9l/wA+a7//ADn/AOpGvTz/APG4LV/yy75bngYuNapbW3PAxca1S5l4dIo/Muzf97q2Fo+RKPjHUtfR+Zdm/wC91bC0fIlHxjqVJ7a/pvBmC4Ton+e1ocbP6Au7DMFwnRP89rQ42f0BLNK9oyqK/wAnS+wq1RX+TpfYVGkI0uT2rIyLCqsfI64CZ66wuQYSeX6737+tbfF/KXPzxmMNlY1qzGtkFP8AZgsIv21M9DMuOHtkuJJJnzniK53g746/2F1/QzsiGHCezKmR5fJj3jcGReliZpLhtNeO0O12p4lJ8Fo1vLU8Sk+C0a810w3eAnnTR8Z/oKndn+cc3G9QTATzpo+M/wBBU7s/zjm43qsr16ZNkeVLQ9v6lXLV8K3iVuyPKloe39Srlq+FbxI0a+2fN+fi+qhKm1s+b8/F9VCVjydoh851MbJcOK5kjA9vdUuQ8ZW+AuFwUetCoipcM7QmlvxBVS5uMqzaFtz1F7IPsY/1K9/itEUh4/PxWvf6buvtKmpBdI++T0BnUetG2KmqDmB2kx7gWvJvOMe+K8OYpN5lenBWqTaA/n/H/LSdS+g5PBu9lfPmgP5/x/y0nUvoOTwbvZXkfN/sehwfgq0K89ocbPqp0oLoV57Q42fVTpUhrArdu+b83sjrVxW7d835vZHWk9EoUfur5to42S4TVAkYHgSSG48a+kj91fNUdTHSYQ1c0t+KJJM3Guj/AMfOLS5vl50+koWDX2nSUgLXPx5PQYtFaFtVM97IfsY/VnK1mdepPJ6ebT437szbUtWqq43C/S4rvuM+qkH9nzz3m/kZP62KISeDdxKX/wBnzz3m/kZP62Lm+ROeKzt4qxW0RDvc/gH+wVd0KPF6/wBtn1VqfwD/AGCruhR4vX+2z6rx+N3T3CboiLZLZ2V96P4rarVWV96P4raqZRAiIoSIiICIiAiIgIiICIiAiIgIiICIiAiIgIiICIiDBtnxL4haVbq2fEviFpUBXovF5uL6Kyr0Xi83F9ERPSALlWjZ5Xs/3B611VWailpahwdPTQzEZAZGA3LLh5PHfZTlpvXD5cn8NJ7RVC+n9SrL4NougZ2JqVZfBtF0DOxdv86P9WXgn2+YFrLUtDS36RC7vr8p3F9E4Z11lULHUFDQURqiO/eIGfZjkzqAmipScbuSC/3YUT86J/S9fj/vK7H4NvErWDnnG/2Xq+rGDnnG/wBl64q9uqe4S9ERXS9d4rJxFRZSl3isnEVFlSyZc6w48vzewOpRQ/eXbJIKeR+NJDG87pYCrfcdHvWDowumnyYrGMOeeGZnOXGY3YkjX7hvV6qrJp8hdc3cC7B3HR71g6MJ3HR71g6MK38uPSJ4MzlyfBjzgoPfs612BWGUlIx4LKaEEZiGBX1z8vL5JicNaU1hawY84ZuJ/WpjTeHi9sdah2DHnDNxP61Mabw8XtjrUR0mOnQbU8Rk+HWpDgR5l1nvz1MUetTxGT4dakOBHmXWe/PUxaz056NxS+bU3GfottZfk6D2AtTS+bU3GfottZfk6D2Aqw0hkr5//tqS6Rgtg/KBeRXSZP8A7a+gFyf+0nFFLYFltliZIBVH74v/AIFaLaTkmu0YfFFRVTVB+0fk3BmW70PPOWL3b+pdH7jo96wdGFXHTU0TseOCFjt0MAVr/Ki0YwivDrK6reCvl2f2D1q4reCvl2f2D1rmr21nuEsREV1nQLK8hwe5+i1tF45D7wda2VleQ4Pc/Ra2i8ch94OtauSO5dQk8528Y6lk0/nHP7vsWNJ5zt4x1LJp/OOf3fYs2sNsuc/2l/8AkhhH7uL/AFWLoyiOjGxkmhta7JGB7Cxl4IvHhGK0Ticpxn6fn3YfnFQ/zUf9YXbVjijo2PDxSwBwytIjCyFTl5fJOcJpTQRRi28LNTKipiNDpggzkSXX/or1iYY2FalzGVPc8x/u5u8PLmKwi0S2mlo+5hIUXgN4vC9VlRcYwn86a/35XZ1YfRUr3l7qWAvOUkxi9a8XJ45ypemziyLtHcdHvWDowncdHvWDowuj+XHpl4J9uLra6HnnbTcT+orqfcdHvWDowvY6WlifjxU0LHbrGAFUv8mLRjCY4Zic5X0RFytxFRLIyKMvleGNGck3AKL2zh5YtCTHTPNdNmui+5ypM4TFZnpK0WksC3tVKl0Pc2k4jMe/HvW7URMTGS1ZrOJccwv87a73y6Z/Zf8APmu//wA5/wDqRrYOpKSR5e6lge4/eJjBKmGhPTwRW/UOihjjPcpF7GAfxhdcc+a64c1+LGZTy3PAxca1S2tueBi41qkZw6RR+Zdm/wC91bC0fIlHxjqWvo/Muzf97q2Fo+RKPjHUqT21/TeDMFwnRP8APa0ONn9AXdhmC4ZojxS1GH1bDCwvke9gAG2cQJZpXtp8HrKntm046SEXDPI/0Buq3hnSx0NTaFJCLo4jihdXwQsOKw7MEZuNRJlmf69ziXMNEHyta3tlRMYWicygS5BhJ5frvfv6119WH0lI95L6aEk5yWBRxcvjnOFb02cowd8df7C6fod2lU1GG9jwl+JEJrsQbeQqXaHVn0EltyCSipXjSTkMIO2F0Wms6z4Z2yxUFLHID3r2QgELpj5kY1x25b8EbZn9Mi1PEpPgtGt5aniUnwWjWaYbvATzpo+M/wBBU7s/zjm43qCYCedNHxn+gqd2f5xzcb1WV69MmyPKloe39Srlq+FbxK3ZHlS0Pb+pVy1fCt4kaNfbPm/PxfVQlTa2fN+fi+qhKx5O0Q+ZcKPOS0/5uX+srWr6hfZlmveXvs6kLibyTCy8/ovNSrK4NougZ2Ltj5sRGNWE8E+3y+hzFfUGpVlcG0XQM7E1Ksrg2i6BnYp/nR/qjwT7cF0B/P8Aj/lpOpfQcng3eyrFPZ9BTSabTUNLDJmxo4QCr8ng3eyuPn5fLbbDbjrrGFWhXntDjZ9VOlBdCvPaHGz6qdK8LQK3bvm/N7I61cVu3fN+b2R1pPRKFH7q+XLV8qVfv39ZX1GsM2XZZJcbPpCTnJgZ2J8fn8UzOFOSm75fRfUGpVlcG0XQM7E1Ksrg2i6BnYun+dH+rLwT7fL0ng3cSl/9nzz3m/kZP62LuWpVlcG0XQM7FXTUFBSyabTUVPBJddjxxgG74KnJ8yL0muO1q8MxOcr0/gH+wVd0KPF6/wBtn1VqfwD/AGCruhR4vX+2z6rk4209wm6Ii2S2dlfej+K2q1Vlfej+K2qmUQIiKEiIiAiIgIiICIiAiIgIiICIiAiIgIiICIiAiIgwbZ8S+IWlW6tnxL4haVAV6Lxebi+isq9F4vNxfRET0gCIi5Ui5Hh5amH1BbFXT2Za1IInvJhZcwmNm1fkzqd4X4QMsqDSKch9Y8ZB6A3SuayyPlldJK8vkebyTnJWlLaz0abdtPg+y3g+ofbtTHO55BYWfG+/ItsiKLTmctIjEYFYwc843+y9X1Ywc843+y9TXsnuEvREV0vXeKycRUWUpd4rJxFRZUsmReG+43Z16iqhEX0uG+Obq+lu2s3Yt9YEdqR0RFryskqMc5WZrlsEV7XzGMQrFcfsREVFlrBjzhm4n9amNN4eL2x1qHYMecM3E/rUxpvDxe2OtaR0rHToNqeIyfDrUhwI8y6z356mKPWp4jJ8OtSHAjzLrPfnqYtZ6c9G4pfNqbjP0W2svydB7AWppfNqbjP0W2svydB7AVYaQyVxb+1hHbEuDVjtseaOGUVb8cv3MTiXaVyr+0b5Csr+ZP8AQkziE4z9ODWWyrbZ8La54fUAfaEZiVkoixmctIFbwV8uz+wetXFbwV8uz+wetTXtE9wliIius6BZXkOD3P0WtovHIfeDrWysryHB7n6LW0XjkPvB1rVyR3LqEnnO3jHUsmn845/d9ixpPOdvGOpZNP5xz+77Fm1htlEtGD/lza/sM/1GKWqJaMH/AC5tf2Gf6jFM9LR2+Z0RFg0cxw48ctL49SgCn+HHjlpfHqWPYli2bXWFTyTUzdNLDe8G45ys+Pjm8zEOjm5Y4qVmUcoLYtWmpxFT2jVRxg5GCQ3BZOr9t8K1fTFaeQ6VHMW/wE4q12qM/wCTkURW1ukX5KU7SnV+2+Favpimr9t8K1fTFRbVGf8AJyJqjP8Ak5FbxWU/kcaU6v23wrV9MU1ftvhWr6YqLaoz/k5E1Rn/ACcieKx/I40p1ftvhWr6Ypq/bfCtX0xUW1Rn/JyJqjP+TkTxWP5HGlOr9t8K1fTFNX7b4Vq+mKi2qM/5ORBaFQSB3nNTxWI+Rxt1adp2jWBrKuuqJ2jakkJCwo/CM41sbHpo622Kemmv0t5y3G5brC+zKKgoKfuWnEZM1xOcnIkcczWbelrc1a3intLMAvKk3ufqFNVCsAvKk3ufqFNVHH+Jz/kKW6Fnl6f+WP8AWFElLdCzy9P/ACx/rC2r3Dm5PxlOLc8DFxrVLa254GLjWqXQ5odIo/Muzf8Ae6thaPkSj4x1LX0fmXZv+91bC0fIlHxjqVJ7a/pvBmChrrCjjwvrranxXySECEegLgCeNTIZgtTX+NSKVssdcW0QfK1re2V2lcW0QfK1re2VFlq9oEiIsF22wajtWV9YyxZmQ1xg+xe/MO/F/wCi32DdHojx25Svte0qSShD/tmMuvI5iwtDby5L7g9YXSI/vhXpfX6ww5KZnOVFqeJSfBaNby1PEpPgtGt2UN3gJ500fGf6Cp3Z/nHNxvUEwE86aPjP9BU7s/zjm43qsr16ZNkeVLQ9v6lXLV8K3iVuyPKloe39Srlq+FbxI0a+2fN+fi+qhKm1s+b8/F9VCVjydogWqwpitiWxpWWDNHDXEjEfJmAvy7R2ltUVInE5JjLmup+ixwvQ/wDs/wCxdFpBMKSFs7gZgwaYRtm7KrqK9+Tf9YRWuv7FRJ4N3sqtUSeDd7KzWVaFee0ONn1U6UF0K89ocbPqp0umEQK3bvm/N7I61cVu3fN+b2R1pPRKFIiLmS1GFsVtzWOWYPzxwVuOLnyXXXbe0VDBZ+ivf5Xof/Z/2LpSLWnLrGMQpam37URY4ibpmV2KL+NVoiyXUT+Af7BV3Qo8Xr/bZ9Van8A/2CruhR4vX+2z6rTjRPcJuiItktnZX3o/itqtVZX3o/itqplECIihIiIgIiICIiAiIgIiICIiAiIgIiICIiAiIgIiIMG2fEviFpVurZ8S+IWlQFei8Xm4vorKvReLzcX0RE9IAtHhXb0Vj0uJHc+rkHeM3PWVcwot2Gx6TafVP8HH9T6ly+sqZqupfPUPMkrzeSVzLxCmomlqZ3TTPL5Hm8k7aoRFK4iIgKxg55xv9l6vqxg55xv9l6tXtE9wl6Iiul67xWTiKiylLvFZOIqLKlkyIiKqBERAREQWsGPOGbif1qY03h4vbHWodgx5wzcT+tTGm8PF7Y61pHSsdOg2p4jJ8OtSHAjzLrPfnqYo9aniMnw61IcCPMus9+epi1npz0bil82puM/Rbay/J0HsBaml82puM/Rbay/J0HsBVhpDJXKv7RvkKyv5k/0Lqq5V/aN8hWV/Mn+hLdLV7cPREWDQVvBXy7P7B61cVvBXy7P7B61avas9wliIius6BZXkOD3P0WtovHIfeDrWysryHB7n6LW0XjkPvB1rVyR3LqEnnO3jHUsmn845/d9ixpPOdvGOpZNP5xz+77Fm1htlEtGD/lza/sM/1GKWqJaMH/Lm1/YZ/qMUz0tHb5nREWDRzHDjxy0vj1LJwU83qb2D1lY2HHjlpfHqWTgp5vU3sHrKn4v5SfP/AKqueVfgqj/OtEt7V+CqP860ScX7V+T3H/QiItXMIiICIiAvWffHGvF6z7440kjtL8GvOGj4z1KQYf8AiNN7/wCij+DXnDR8Z6lIMP8AxGm9/wDRZ8f9Murl/wDZokGAXlSb3P1CmqhWAXlSb3P1Cmqx4/xb8/5CluhZ5en/AJY/1hRJS3Qs8vT/AMsf6wtq9w5uT8ZTi3PAxca1S2tueBi41ql0OaHSKPzLs3/e6thaPkSj4x1LX0fmXZv+91bC0fIlHxjqVJ7a/pvBmC1Nf41ItsMwWpr/ABqRSsx1xbRB8rWt7ZXaVxbRB8rWt7ZUWWr2gSIiwXSfQ28uS+4PWF0iP74XN9Dby5L7g9YXSI/vhI7hndRaniUnwWjW8tTxKT4LRrqc8N3gJ500fGf6Cp3Z/nHNxvUEwE86aPjP9BU7s/zjm43qsr16ZNkeVLQ9v6lXLV8K3iVuyPKloe39Srlq+FbxI0a+2fN+fi+qhKm1s+b8/F9VCVjydogREWaRERAVEng3eyq1RJ4N3soKtCvPaHGz6qdKC6Fee0ONn1U6XTCIFbt3zfm9kdauK3bvm/N7I60nolCkRFzJEREBERBRP4B/sFXdCjxev9tn1VqfwD/YKu6FHi9f7bPqtONE9wm6Ii2S2dlfej+K2q1Vlfej+K2qmUQIiKEiIiAiIgIiICIiAiIgIrIqqcm7TmfEq8CCLwbwgIipe9kYxnua0bpNyCpFZFXTfjM5VeBBF4II9SCwTNJI8RyNYGOxcrL78gO761VA55fJHI4OLLsoF194SDwk/vP+kLyHxmf/AC9SC8ipfJGz78jW37puVLZ4XG5s0ZO4HBBcREQYNs+JfELSrdWz4l8QtKgLWYS2/TWFZUsslz55ARDFum7PxLZrx9FRzwyvqKWCZwZdfJGCUHzDaFXPXVclTUvL5XnKrC7GbNs7eFL0IVJsuyz/APT6ToR2Lmyts48i6/qRZXB1J0IXhsayj/8AT6XowmTZyFF13UWyeDaXowvDYVjn/wCm0/MTJs5GrGDnnG/2XrpuFdj2XT2DVzQ0UEcrGC54GUZVzLBzzjf7L1evac5wl6Iius9d4rJxFRZSl3isnEVFlSyZERFVAi6rY9l2bJZNI+SgpS4wsJJjGXIsrUeyuDqXoQiuzklNC+oqY6eO7HkdcCcw2yeRbqpwdDaYugqJHzNF+K4DFd6hdm/VdCbZdnQvbNFQ0rHsOMDpQWRUzUL6Z7YaKlZI5pGN3pu4t1IlGzieCbXzYSSMhYXvcH3Aca6NQWG7TInVFSQcYd7GM2XdPYovoY07G2lW1F3f47owdwC4/X9FLLTtCeCvhpYCGX4rnPIvOVxFwv4lrHSY6TO07MLqJ4jqnjN99oO36rlt8D45KfBOsgmADtOLgWm8EXMWhrquripHv00SgXXte0Db3QFvMEphJgnX1E7mtc6cgXnMAG3BaT0wo29O5rcGZi5wb3xzm7cW1siRj7OgDXtccQZjetPZj4pLMc1r2P715uBB22LaxOjiZRlxawFpF5N24qwvDOXKv7RvkKyv5k/0LqLZoXuxWyscdwOBXLv7RvkKy/5k/wBCW6Wr24ei8acY96C72RehIDsU5DuHIVg0eq3gr5dn9g9auK3gr5dn9g9atXtWe4SxFTjNxsUG87gylMZt+KTcdw5CrrJ/Z7sTB+J25AT/AO1eQWW+OZkndV+K4Ou0vPceNKLzbZ/Ln+lbILVyx3KXk42Ekbt3FP8A7VlU/nHP7vsWG3zhh4m/0rIhnhGEdQDNGPs9tw9SzaQ3SiWjB/y5tf2Gf6jFKmSRv+49ruI3qK6MH/Lm1/YZ/qMUz0tHb5nREWDRzHDjxy0vj1LJwU83qb2D1lY2HHjlpfHqWTgp5vU3sHrKn4v5SfP/AKqueVfgqj/OtEt7V+CqP860ScX7V+T3H/QiItXMIiICIiAvWffHGvF6z7440kjtL8GvOGj4z1KQYf8AiNN7/wCij+DXnDR8Z6lIMP8AxGm9/wDRZ8f9Murl/wDZokGAXlSb3P1CmqhWAXlSb3P1Cmqx4/xb8/5CluhZ5en/AJY/1hRJS3Qs8vT/AMsf6wtq9w5uT8ZTi3PAxcawqCkdVveS8xxsNxIGUncCzbc8DFxrAo67uF7sYB0bzeRjAEHdC6HNDoTGPp8F7PhLseMm5riMoNxyFZtaXzWTSRwgd6RjPdmGTN6ytb3R3RgjRVDS0NYCWtDgTfccpW8mjbDY1JG3M24ceRUnttDZNhlxRjVDr/ytAH6grVV0NQ2oe5r2y/lIxTyrYwGaaJkpnLA8XhrALgOMgrW17qkTSxaY1wIuD7rnBSlZY7GbfcRtEHaK4rohPYLXtYF7Qcc7a7OJIIgI9Mjbi5Li4LnVtBj5K51zXXyyZc9/flRK1XIQQReDevVftZ7G2rVNLmi6U5L1jtcHC9pB4isF0o0NvLkvuD1hdIj++FzbQ4c1ttSlzgBpBz8YXRY5o8YHGybtyR2zu9tTxKT4LRrd2k5rqF5a4EZMxWkXU54bvATzpo+M/wBBU7s/zjm43qCYCkDCijJIAvP9BU2oKiAYRTHTW3Xvy7SrK9emdZHlS0Pb+pVVrB76uOJjwwlhdeW35iO1W7Fex9p2gWODhj5wfWVer/KcXuXdbUaNXbglhsaRj5A8PaczbrrioaprhN5KPE5QlzmtF7iAN0lY8naIeorenQ/ix84KsEEXg3hZpeoiICok8G72VWqJPBu9lBVoV57Q42fVTpQXQrz2hxs+qnS6YRArdu+b83sjrVxW7d835vZHWk9EoUiIuZIiIgIiIKJ/AP8AYKu6FHi9f7bPqrU/gH+wVd0KPF6/22fVacaJ7hN0RFsls7K+9H8VtVqrK+9H8VtVMogXj3BrC45gLyvV49ocwtOYi4qErTWzvbjOk0txyhoaCBx7q9ZLdE50tzSw3O3Fa7oMY0tzonuGTG0wC/j3F61l8sbXODr75CRmJFwHX+iCsGokyi6Fu1eL3HsXpjlu72off62gjqSoe9uI1hAc92KCdrIT9F5pUwAuqX3+trbj+iAHyxuAla1zSbg9uTlCvEgC8kAetWAx5eJJywBgyAHJfuqmpnhcxjWzRkmRguDhl74ILwlicbhKwncDgq1j1waymc65rbiDfuZQrndEH48fPCC4iK3JPDGbnyNadwlB42pge7FDxecgvBF/LnVL4jF9pALrs8YzO4twq89jXsLHtDmnOCrdKSYQHHGLSW37txIQHzXxsMVznSfc3ONGRRxfaPIc4ZS9212BWaMf8XO38PI3/MST9FckAkqmxuyta3Hu2ib8nIg9FVAXXaYOMggH45lRM1kL2ui717j9wZnbuT6rIcA5paQCDtFURQxxm9oy3XXk35NxB5B4Sf3n/SFZ0wtq5o4xjSHFuG0BdnKvQeEn95/0hXQACSALznQWo2NhY573XuOV7z/vIFS3HncHOvZEPutzF3rPq9Sp+/VFk2QDLG3ad6+P1LJQEREGDbPiXxC0q3Vs+JfELSoCvReLzcX0VlXovF5uL6IiekARFy3Rsr7XpK+iZZdpVVITASRFIWB+XbWPFx+S2sIvfSMy6ki+WThZhWCWm3bSvH+MU124WcOWl0xXX/At7Y/yI9PqZF8s67cLOHLS6Yr2PC3CoyNvty0s/wCMU/gW9p88en0bhn5s1vsDrC5Hg55xv9l66zhYb8E6pxz6WOsLk2DnnG/2Xrjp26YS9ERaLvXeKycRUWUpd4rJxFRZUsmRFzzDyutSC2ZW0VfUQtYwfZseQMyjOr1u8KVfSFbV+PNoicsJ5oicPsqw/I9H7lnUsxfKlHhZhUykha23LSADBcBMVd124WcOWl0xWsfAt7Y+ePT6lP3me8Z/UFs7Z8k1fun9S+YMBsJsJKnDOxqeptmvlhkrYWPY+YkEY4yFfT9s+Sav3T+pYcvDPFOJaUvvDhmh/aLaPCOqp5jdDLjOxtprr7svqOTkXSJaSmrXQmQXkOBY9pyjLtFcmwa845uJ/WppZ089PPH3PM6MF4vbnbn3Cqx02jp0S16GpZQyaWRO3JkzOz8h/RbfAWVseDFTJJjNa2V7Xd6bwbo8hCwTWukhdDO1rXkXtc3M7L+hW6sduJg3UStF2NNiv9eRtxWs9MKNtQ1MM1jytjeScpytIyZN3jWxp5o4aODTHEYzRdcCb+RaezfJp9l/WxbWD7tH7B+irC8Lks8crWsjLicZpysIyAi/OFANGWmir7Ms6SoZjxNnJYw5nd7nO7xLoFYS2lkINxxblyb+1LXVNmYH0NRRvdG6OWQgMN14Ed9ytFdvpOcfaGz1tDR3RSzxREDIwZwOII19DaUBAMNRHtjPd2L5jfhBbz3ukfatWXvOM46YcpKk+hXbdrSYa0jJq6pljkBa5jnktINwS3x5rGcojliZw6lblm9wStfES6nkNwvztO4reh/ZZrLZqKiYltO0FoAyF5vy/BSLCBjX2NU3/wALMccYy/RMCI2xtia3MYA48Zyn9Ssa9tJSJ8lHQRBrnRQM2mjJf8NteRzUVfG5jXRTt22nLd8Co1USunqpZ33lznEC/aAOQKhpc14exzmPGZzTcVZOHQBHFDZToYHl0bYDkz4puzX7azgtZQgNwaYALh3Of6Vt6YA1EYIvBeOtauaO5SeKN1TbsbwS2ABuUZ397ter1rY6YyG13sY0FxZcxgybnIFRUF7bWJiYHOF2K2+4HIrNnYrsIJ5MYveY7nE59rJdtcSzaQ3ETHAl8jsZ7s+4PUFFtGD/AJc2v7DP9RilqiWjB/y5tf2Gf6jFM9LR2+Z0RFg0cxw48ctL49SycFPN6m9g9ZWNhx45aXx6lk4Keb1N7B6yp+L+Unz/AOqrnlX4Ko/zrRLe1fgqj/OtEnF+1fk9x/0IiLVzCIiAiIgL1n3xxrxes++ONJI7S/Brzho+M9SkGH/iNN7/AOij+DXnDR8Z6lIMP/Eab3/0WfH/AEy6uX/2aJBgF5Um9z9QpqoVgF5Um9z9QpqseP8AFvz/AJCluhZ5en/lj/WFElLdCzy9P/LH+sLavcObk/GU4tzwMXGrNg+Mz+w3rKvW54GLjVmwfGp/Yb1ldDmhO6kB1gUDTmLHArYGb/5TSRSm6QXZ/wCPJnCwJ/IVn+wetZdqMa+w6MOaCLxn4lSe2zdGnxTjQvMZJvIuvafh2LUWg+SOpeZ2BrT/ABtN7fjuLbBksYBilLh6MmX9c/WsOSRsz5L23EEte07R3FKWBTVMUMWlyOcHBzj90nO4kbSgGE8rJqyukjdjNLnXG67MblPmN0uWSHLitILb9w/7K53bXhK73sn9ZUStVEZrWs+GV0UlSGvYbnDFOQ8i0FsyMtG14xROEuPG1jchAvvcT+mVY1q+VKr3pUCsC0rS142oO7qjEgvbG3HNzQXfsqUpN5wWtq79od2ZS0Fe51wfKISXSuGXOM24FOGWhR6YG90M49rlzL5Ywlwlt6kEEFLaVXGZi7Gcx5zNuycp/RZ+hnhJhFV4dWTTVdsV01PJNc+OSYlpyHOuiPi2xtlhfmjOH0rbFHBVUT3tua8gFsjfruhQ+QPic+OVtz2G4gbe5dxqVUri2GohH3BiOaNy++/qWnro2m3qO/8AjBJ423kfr1KqG3wGs5kdt00tS0PlJPenK1nenJx+tTKlq6Zttys00FwLr7st3HdmUXsNxFsUjASNMkxCRtDFN6kdmNa3CGVrQAAXXAKsr16ZdM2B1XWT47WG+8SNPrPLxJUuc6ugc8XOMDr+VqtWREzVavN2aTGAvyX3nLdurIr/ACnF7l3W1F2twoddZN1xJIIaBnJ3FGqCj0oiae50u0NpnF6/WpnaQBsqUkC8DIfioVbEk7GNDL2xOyPeDlG4PVfurLk7RCmurSXGCmdlGR8g2vUPX1LDAuF2X4r5qwlwnwmp8I7Rgp7atCOGKqkYxjZjitaHm4LX67cLOHLS6Yrpj4NrRnLGeeInp9TIvlnXbhZw5aXTFNduFnDlpdMVP8C3tH8iPT6mVEng3eyuPaD1p27V4TNZalq1dQ18LzpcshIC7DJ4N3srl5uKeK2staXi8ZhVoV57Q42fVTpQXQrz2hxs+qnS0haBW7d835vZHWrit275vzeyOtJ6JQpEP3V8x2rhXhTHalWyO27RDRO8ACY5BeVXg4J5pnE9KX5NH04i+WdduFnDlpdMU124WcOWl0xXR/At7Z/yI9PqZF8s67cLOHLS6YrpGgxaNt1eEEjLUtSrqgaV79LlkJAyj9VTk+HalZtlNeeJmIw63P4B/sFXdCjxev8AbZ9Van8A/wBgq7oUeL1/ts+q5+NtPcJuiItktnZX3o/itqtVZX3o/itqplECIihK1SeKx+yFaYHaUyVgLnMc7Jui83j/AHuK7R+Kx+yEpPA/5nf1FB79lUR3ZHN5CD9CqcSeP7jxI30X5+VVSQse7Hytf6TTcVQ58sAxpCJI9t11xb6ztFBTLKHsxbnMe1zXOaRluvHKqxVQFwGM4EkAXscMp+C9qmY0Re377O+afXuKmocHwRuGYvYf/cEF2R7Y2F7zc0ZyrRqoSLgX9G7sXtd4s7jHWFeQY0eO9jIQS0MYNMcM992YK59hTNu72MHlPavKPLDjHO5zieUrymAe+SZwBcXlo9QBuuQC+peMVsIjPpOcCB8Bn/RVgMp4MpOK0ZTtk9pKpx6g/wBw0ccn7L1sTnPD5nB5GYAXNCCzE10DmyvyCS/H9RJvHXcr80bi5skZAe2+6/MQdoqtwDmlrgCDnBVoMmiyRuD2bTXnKPig80yoPeinDT6ReLu1eOEsLdM0zTABe8OyfEbiq0yo3u34yfsgie9wM7gQDeGNzfHdQKY3vmO68f0tVq6QVU0kZJuxb2X5CLtr1q7iyse8xsY4PdfldddkA3PUqoWOD3veAC+7IDfdcg8IjqIgQTdnBGQtP0K8ikcH6VNcH7R2nDdHYvXRubJpkVwJ+805nfuqJWzSsxXQx7oIkN4O6MiDIReMDgwBxvddlK9QYNs+JfELSrdWz4l8QtKgK9F4vNxfRWVei8Xm4voiJ6QBcq0bPK9n+4PWuqrlWjZ5Xs/3B60+J/bDH5H4OVz+Gk9oqhVz+Gk9oqukpaiqkxIYy8/oF6/blzERmVlVR+Eb7S2lfZHcdnmollvlvAuGYLVx+Eb7STGEVtFozD6Pwq806n3Y6wuTYOecb/Zeus4VeadT7sdYXJsHPON/svXhU7enVL0RFdo9d4rJxFRZSl3isnEVFlSyZc6w48vzewOpRQ/eUrw48vzewOpaKx2MNRI6QDIL8u0vS4vxh595xMyl1h2RVVVJCS3S4sQd+9ZluUENDBA2K8uJN7ztq+Ldihs+COmbpjhGMpzDItRV1VRVSY80hedrcC7fqIw4q+S1sz9Q2eAvnpYn8/D/AFhfUls+Sav3T+pfLWA5IwysdwF5FbEbuJy+l6+tlnop4jTsaHsc2/TL7v0Xl/N/KHocHUuRYCWPFPac1ZUuDhIHiNrXfdy5zdt+ra6pRqPVxVEZhLJ2B4uvOK7PyKB4I1NRTYSTmnlLAQ4ubna7LthdBo7ck0yNstKCcYZWPu29w9q546dUdJwaSbE0+cBgZ91oN5vOTKt9ZJxsGpohn07Hd6gA36qPWraNR3DJpcLIzkyudft7g7VuMCcZ2B1dI9xe905xnHOcjFpPTCjb0BxbJDjmcXs/pP0W2iY80tNLG3GcwZW33XgrUwND8GJgb/vEgjODkWzs19SLPgvayXvBlvxT2KsLwvSOMjTDJE+PTAQLyPoVyz+0XGK7Bqy2y3C6pcJW+vFyhdTdp0r48aIRhjsa/HvvyEfVcQ/thWrVWNg5YVXRYrZHVrmODheCMXMQtOP8oRfOv0+bsIcDKmmq7rO0uWDF70Odc4er18a3uhVgzPSYTw1le5mMxjiyNhvy3ZyVp2YcCQB1VQSY+2WSAg8q2+CWFz6i3o4qWjEZMbu/kdfdk3B2ro5c6yypH3DpmFNW2Oi7kB+0muvG40HKfovNDqsZUSSU5d9rTtLCPy396eTJ8FHJZJJZXSyvc+Rxvc47atYIvkiwhmkieWPDDc4ca86vbql0G0bImM75qTFc15Liwm4gnPcqKKx53yB1XdHGM7Wuvc747SqhtyVrQJqZrz6THXfoe1JbclIIhpWtO69993wHarpSvud1JYrYi8PYYHYjr++yN2x9Vnha6hD57FY+V5dJJCQXHi2vUqILUlknZH3K0Yzg2/Tc154lq5o7l0GCcw27HBK4lhDcR59nMe1ZhhIt2WohA0zS7nN2njJ+vrWG9g1xMjcA4d6Dft96smmfPHbk8LWtkaGd6XOIIGTJmN6zaQ2sUjZG4zeIg5wdwqK6MH/Lm1/YZ/qMUmDJDOJCxse07FffjfC5RnRg/wCXNr+wz/UYpnpaO3zOiIsGjmOHHjlpfHqWusDCShpLMho6iOZpjF2OBeM62OHHjlpfHqWDY2D9n11iQTyNkZK8Eksf61Xg22nVp8rx+Ovk6RKoOPTzuGY45WjW8qBiU87RtXhaNX4upY/K7gREWrmEREBERAXrPvjjXi9Z98caSR2lNj1UVFa9PUzX6WzKbgtjhPbtNakcMNPFIMSTHvetbZVLFXWrBTSkhsmR12dbfCmxqKzKOnfTMfjPmuJJv2lhXbxzjp3X8cc1c9phgF5Um9z9QpqoVgF5Um9z9Qpqqcf4r8/5CluhZ5en/lj/AFhRJS3Qs8vT/wAsf6wtq9w5uT8ZTi3PAxcas2D41P7Desq9bngYuNYFHUvpJXvbEJMdoFxfi3XX+o7q6HNDodU4iwbODbsYtIF5uF5Kzq6jdqPS4sztMBF5P3XZNzaWvjLqnBWz5pI2tBBGKHY2e/1DcWdV6bBY1GYnhzSQMR+1k2j/APtUnts3QfUC4dzgndDxd2/osIxujlkLyC97sZ12a/1cizhLUXD/AIdvwk/Zam0DPLUPZIWsZttYbyeMqUrDXaZPLKDe0kNad0Db5b1zm2Xg1VpxjPHPID8Tf9V0kAAAAXALjeGtTNR29as0DgDjnGacocPWolaqLWvZFa6vlmp4hLHK7GyOAIO3feuRNqjY+HtdHVjS2vmfFJefu3kEHq5V2NmEgxe/onX/AJZAR1LiWFk8VpYcVsxgLA+UgsLr7yBdf+iv8X7tLPmnEZT9liutsGCMhsjBjRyXXhp9fqK3eAuCFfZ2FNm1EjY5HtnBxmyd6Mh+KhmB2FkljzmneBUxNjOJHfc5o3AdzjU7wLw0faGGFm0/cT2B01wbji7MV6GNaS4ZtN7RP6dtFN3PRSF7g6R5BcRm9QHqUVrarHtNtVF3zISA27+IZca7lI+C3Nt1NRPQyNcRFGbr2sN5PGVHgABcMy891JrgwI6m1aYtfe1xxmuHskgrf0LaqO35XOha/K7vmuAH6qEYByTx4SU0cLwGOcb2OF4vxTm3FOqKpnNuSx9zC8F2USZOpVlevTIsynmFdXSGUCRz7w0ZWgXnJ6+NVVLy+0IyRcRE8EX35QWqizXzz2jWsfdE0OyhhvJynb2lXabTFURPiY04sZaGk3DKR6vUi7BwmL22WHRvLXNBIO18d0KO0lRHVxOa5oDwLpGHL/8AsKQW4ZJbFle9jWBjTmdffeeIKFjGa9skbsWRuY/Q+pZcnaIfPuiFYr6K3K+rpwX0zqmQuGcxkuP6etRZTXCTCott20YX2a14FTK03zZD3xGbFWggsp9bOZo6c0cDjeGufjFvELhkXs8cTMRDh5LVr9zLUr0feC3ts2fTUVl/ZN+0Lx35zlaIfeC0tGGdLxeMw6LoR+eDPcPXY5PBu9lcc0I/PBnuHrscng3eyvI+Z/Y6/jfgq0K89ocbPqp0oLoV57Q42fVTpVhvArdu+b83sjrVxW7d835vZHWk9EoUfur5ctXypV+/f1lfUZ+6vl21fKtX79/WVv8AA7lhz/piotnZ9jVNTc+X7GPdOc/BZVuUNNR2dGImd8ZBe85zkK9LWcZcc8tdtWjb98ca6VoN+dcv8m/rYuat++ONdK0G/OuX+Tf1sWHP/XZpX+yHXp/AP9gq7oUeL1/ts+qtT+Af7BV3Qo8Xr/bZ9V5HG757hN0RFsls7K+9H8VtVqrK+9H8VtVMogREUJWqPxWP2QrMJdINJa7FaCS8g5T3xyDtVyMTxsbG2ONwaLgS8i/9F6KdpjaHZHgkhzTlF5vQMWaI/ZkSM9FxuI4iqJBNOwxOi0pjsjiXAm71XKv/AIlguuZKNok4pTHqTkEDG+sv/ZBVUvxIXXfed3rRuk5lRO3EpAM+l4p5CD9FVHEcfTJXY79rJcG8QV1BbqGabA5rSLyLwdq/aVGnva2+SB7QM5vBA/VAyWLJEWvZtMcbruI7i8lNRJG6MwNaHNIJ0zNf8EFVOcR74TkylzfWD+/0XhZLFI50TQ9rjeWk3EHdCrfEHsaHEhzczhnBVN9SwXYrJfXfilB7NI9rmNZi9/kBIJF/wVEVXEYw6R7WE5RnF42lVOWh8DbwDj5B8CsJsjdJZiSEAxMxrnZr3AX+o3IM7umC7wg4tvkVWmx6XpmO3E3b8iwW4hnxDI7ED3AOxjfcADdfnuvJVsPcXi5xc4wiRu2S64Zbts3AoM/uqnBuMoBOYHbVTp4Rde8ZReAMqw5HsxHmmle8CJxeccnFN2Q37RVFO6MBumyFkZvyh5F7r9s8V1yDOZUQPNzZWn4o2ohcQBIMuY7R+KwyMd1OJC4xku+9ti/vSd3a5VYjkdjDHdPIcumMIF5G3eMa4INo+eFji1zwCM/qWNPWPjkIDA5t14O0c238f0WJE8jSAZZGPvuY6/I6922OPJtrZ0oaYGXNAuF12fMgqheXxhxF16rREGDbPiXxC0q3Vs+JfELSoCvReLzcX0VlXovF5uL6IiekAXKtGzyvZ/uD1rqq5Vo2eV7P9wetPif2wx+R+Dm1nQRVNrNhlF7STeOVSKpraKzo9KGKCM0bM6ipkfFUufG8sdecoVokk4xN5XsRbEOC/FvP3P0z7TtSeuGIQ1kV9+IFgx+Eb7Srp6eaokxIYnPPqW+sywWtLX1brz6AzJi1kzenHGHbsKvNOp92OsLk2DnnG/2XrreFvmrU+7HWFyTBzzjf7L14NO3rVS9ERXaPXeKycRUWUpd4rJxFRZUsmXOsOPL83sDqUVvzqVYceX5vYHUo1S0z6mQsjuyZyV6XF+MOC84tKTUfikXsBbaz7Iqaq4kaXH6b1trAsimp6KCV7dMkxAbztLcLurx/X283k+R94qYJ2bTUdt0Dmsxn6ey95F5GVdoneAyaO/HIbfe1pzEAjizrjFj2hSswhs+nD8aR1SwXDLdlXaK6SRkIa+SSJukN0vFcW3m4X5s5Xm/+RxtGPTt+BtNJm3txHBgE4QTPa1xbc8XhpIzqYUp+2iNzrsduW43fe3VpLFlkGFr6V0jo3VVLdO0OIDZj/FcMxyNB41ImmWI0lE9zwWEPlZjG4Oc68N+Au5VyR09GOk6tIF1HI1paLgHOc43NaL9tb3A192CVVHFPHIDM4kujcz+Fua/OtBajHvs6oYxpc8PZJijO5ovGTduOVbrAi6fBiohbp2IZzjnHaQ3vW5furSenPRvqWVgwYkxjc5xJDc52tpbSz52izKfEIc4hrbtw37ajtO862pHmSRhMrw8tA2rsUE3jJctpZbnOpKJ18xIxftHXAuaXDJkJJ+KrDSGxFZe0EN+6AX5D3uUD91wT+2xI2fBKwBCS893uGQHbjyLubXfZAmR/fNaZDjnKccA3/DIuS/2paCSrsKxYYpXMENfpjSHkYrMW4ketpzbl604/yhXknFZl8kQWVUEt7pjfA05g5pDlMsD7KpafEro6ht4JjLNLONjYt91/FlvWvtetfX18k5e90eMREHEnFbmHUtrgpPE6jawG/wD412Ue5K6+WMccuTjtNuSEqxX3kaXJeBeRinIN1WsFr9WZ5MV2JikY12S+/dWyrayrYyhLaiYEQNf943uOMc+7m21Vg7NK/DmspDI8QESs0kG5mLcdrNny3ry69vRn9NwLy7FaHOdnuaCSvAQRfluBuJu21dbI+OyqZ8b3xseXac9hIJeDkBI9WYLIlfLJBZraxz9LfK7GxiRjtvbcXbvx2ldOUxsuVgsKAkm7Srgbjccm6tdRPaK2EG+/TBkuy59xbWyZZzS07XPk0/M6O83AbeTNddtrX0zrp55TJMJO7MVzmDGIjxjdlJFwvF2TcC1cv7l0p80ZwlDg8XNIvvyXZFeinZq/UlhvcIbwCCL8y1kjybdhu015E7SxzgLiLsrQcYki+5ZdnPDsIJyJZHNbdjMeb8VxyZDyi7Is2sNvDWPfKGFgzkev7137qP6MH/Lm1/YZ/qMUsuG4FE9GD/lza/sM/wBRimelo7fM6IiwaOY4ceOWl8epZOCnm9TewesrGw48ctL49SycFPN6m9g9ZU/F/KT5/wDVVzyr8FUf51olvavwVR/nWiTi/avye4/6ERFq5hERAREQF6z74414vWffHGkkdpfg15w0fGepSDD/AMRpvf8A0Ufwa84aPjPUpBh/4jTe/wDos+P+mXVy/wDs0SDALypN7n6hTVQrALypN7n6hTVY8f4t+f8AIUt0LPL0/wDLH+sKJKW6Fnl6f+WP9YW1e4c3J+MpxbngYuNaoDGLhjhpawvALSca4EkerMtrbngYuNa6jxu7WCMBz8R9wOYnFNy6HNCf0U8RwMs0F9xu2xdurYWjPEbFpBj5QRku9S1lA5kuCdnNlke8uDu6A8k3C515I2styyatkz7HoDI950vFMji43huLjX8eQjkVJ7awlMUjJGgsdfdnWktCYmrcQ5rGn7t7S4kbtw2vWtvEx5piXE6ZICTeb7r9r4LQV7jHUPkytY9rbiDddcLsW+43XFSs9jkcS290bmuJALbwcg2wcy43ogG+1LWeA4sD3AuDTdyrrj8YUxnOmtxnhnfEG9u2RcAVyvDiVzMJLRYyauDxLdHEyMYpbtADGuIu27lErVc/ZC91LLUgHEjc0HvTlvvy3+q5cowsoaqmtyWRjZHOqC6QARnJlOTjyXrsEkrhR2gyF00UOnsAjx/ug42MMhuu4ly7DGqtAW5SvgqJy8NLxfIbi7Gdn3cmTiV/i/lLPm6+2pwdgn1QkbpEuM1nfDEN4410HQxikOHFmTBrsSOa97rrw3IdpWMGrPdDaFba7qiZzK+FukMEhNxcL3X+zcQNy9THBBjI7fpA1oa0PJOXOcVy9Ktc8cy87l5oreKw61a5McEsTnB5bi34rTx9RC0OmMxQ6+4HMSMh4lI7Qdi1zg1xDjLGCAbrxiC/4KPU9RM6Gdxle8mLHym/EdjAXjcyE5l5rshu8BHDXVSDKCCbwRcfuFTegnhbhDM4vAbjPGNtcqguCD8a2aB0kjnhtU6PGc4khhjvIvUzonu1wTN0x+niRwEd5uuvzYua67b+KrLSvTY2TPELRtBxeAMf6lV2rUQmZo0wX4uUXZQsCynE2xarnPdeJrnOvN7WYzr7tza4gsi13XxS6RI58dzA04xOW/KAdzNkRdj21NHqDUNxryBluF92VQvHbkuOMSLwGi/qUptxwjsqZsU07GhjdKDGjL6x3wvN/qUSlkDX1RMc8UbizHLHBrmOHEbrifWsuTtEPn2RkT8OLQ05+IBUyOGMzvTjPu3R6V6rtW2o6fFjpXRzvc3Gx2m9oykXX/BYeHTJW4U1z5ptPMkhka8txSWkm68buRaRe3S0xWMPN5OKtrZleqqmapkx5pS8q0PvBZ9n2VVVdxxdLj9N6kFHZdJSMLgzHku++9Xis2+1L8tafUNtoR+eDPcPXY5PBu9lcc0JPPCP3Mi7HJ4N3sryPm/2O74v4KtCvPaHGz6qdKC6Fee0ONn1U6VIbwK3bvm/N7I61cVu3fN+b2R1pPRKFH7q+baQxswlqnyuYGiSQ3nayr6SP3V8uWr5Uq/fv6yt/wDx84tP/wCOf5MbVw3VoW8xl7KRuOfTOZaGoqJqmTHmkLz61aWxs+yKmqucRpcW65enMzZxxWnFDBb98ca6RoN+dcv8m/rYtJTWZSUkDixmPJce/OdbvQb865f5N/WxY/JrjjnKeHkjk5Iw69P4B/sFXdCjxev9tn1VqfwD/YKu6FHi9f7bPqvG43pz3CboiLZLZ2V96P4rarVWV96P4raqZRAiIoSxW1YEoZKWtvJF1xvBF2T151d7pguv0wbnrWIXDTHlzi2EyuxnA3bQuF+4qXAueHwOc5zXHSyXHvmgXkX7YvQZpqYMn2gyqqSQMYHAFxdkaBtrBhY8y4oLg2Q964ON7mfeJ48oHKsitYcVgbc0XOYD6JIuH+/WgoNU/FLg6LPd912LzsyvxzDS3PlLW4puJvyLBkmeO8Zj3gXCJrgDxXEHlzJKXtfLHjP+zjBYWgEi/Pdm2vqgzu6ISDc8XgX3HIVZbVk3NLbpHYuKCDmIz/BYTXF4c0OkkBuuOS5rr93GJ5FdhcSY3F7y8GMC9xzEC/lQZcVXC9jSXhpIyg7RVwVEJdiiQXrBa09yROje46a0B3fnK/OL+O648avUbHPP2mNcwfdJyBxykfDIOVBkyxNkuJLmkbbXEFW+5Y9p0gvz9+cvGr6ILPcsWa9+L6OObuRO5o/4i9+5jPJu4txXkQWe5mZzJMSMx0w5FjTUkgkLonStv22Pz+ogn9VnogxqWmxWkS3uFxbc52MTebySd0qvuaO/K6RzfRc8kK8iCz3My+8OkaNwPICutaGtDWgADIAvUQEREGDbPiXxC0q3Vs+JfELSoCvReLzcX0VlXovF5uL6IiekAXKtGzyvZ/uD1rqq5Vo2eV7P9wetPif2wx+R+Dlr43yVJZG0vcSbgFuLPsF7rn1brh6AzrEsby7Hxv6ipXJIyNhfI8MaNsr2qVifuXmc3Jas6wpp6eGCPEhYGD1L2WaKEB8rwwetaa0LeYy9lI3HPpnMtHJPNU1AfNK55v21a14jpnTgtac2fRmFvmrU+7HWFyTBzzjf7L11nCrzTqfdjrC5Ng55xv8AZevnadvfql6Iiu0eu8Vk4iospS7xWTiKiypZMudYceX5vYHUtNYfh5fZW5w48vzewOpRmKaWHH0t11+Qr0+H8YefyRmZh1eO0Kaks6DTH3u0sd4M+Zae0LYqaq9kZ0mPcGc/FaekJNNE4m84gWxoLPqas/Zsub6ZzLs2mfqHFHFSn3LNwI88LIykf8ZHlHGvpCUyCKUionBIN/2hyrieBdkU1Jb9nvf9pKJ2ZTtZdpdsn8BJxFeZ8+Ji0f8ATt+LyReJw4jgsWDCiV8zZJAMZxAdcXHGvykqZMeJa/TQHAPlDrnEEi8+pQzBrzjm4n9amNN4eL2x1rljp2x06Baovonm8hwIIINxGXdW/wADmGbA6rfNJJIWzm7GcclwZctDaniMnw61IcCPMus9+epi1npz0bSlhaMG5XNLmOBPfNdcdpbazIWGzYb8YlzWkuJy8q1tL5tTcZ+i21l+ToPYCrDSFZp2HbfftnGN541xL+1xaENl4L2ZJURzubNLJBHpbgMUFovzj1Lua+ev7b3mhYH88/8A01px/lCt4zWXyxU1k04xXOxG7gW/0PqyrdbUVGamXufSnjS8bvc24tFSUE02UjEbulSvAqkhp7YbiNvdiHKV1csTNJywpasWiIT99TVPe176mZzmG9pLz3p9StYMVNU7CGokNVNjmMtxsc33Y2ZFbwV8uz+weteZXt2z3CXRyTRvc+OaVjnG9xDj33HuryR8sjCx80j2k3lr3kgn1rxFdZPrLcdSoHtNViCMObE6W9gIGQX5yPVctdQBwrYXB7mvMgvc03E3uyrZ2V5Dg9z9FraLxyH3g61q5P3LpkkDDhM0OL3G8XEuJIybSyaWIDCKYF8jw2O9oc4m7MrUnnO3jHUsmn845/d9izaw2yiWjB/y5tf2Gf6jFLVEtGD/AJc2v7DP9Rimelo7fM6IiwaOY4ceOWl8epZOCnm9TewesrGw48ctL49SycFPN6m9g9ZU/F/KT5/9VXPKvwVR/nWiW9q/BVH+daJOL9q/J7j/AKERFq5hERAREQF6z74414vWffHGkkdpfg15w0fGepSDD/xGm9/9FH8GvOGj4z1KQYf+I03v/os+P+mXVy/+zRIMAvKk3ufqFNVCsAvKk3ufqFNVjx/i35/yFLdCzy9P/LH+sKJKW6Fnl6f+WP8AWFtXuHNyfjKcW54GLjWqBcL8V724wuOK668La254GLjWqXQ5odEpIg7A6znPfI+/ac8kbay7UZIbIp72kh+K0EOAuAy5ruVWKPzLs3/e6thaPkSj4x1Kk9tf03gzBaW0Ih3ZI5rnsJz4jrr1uhmC1Nf41IpWYYgjD8c4znHOXOJJuzXrjmHss0dpWrFHPMyMPdc0PIAXZ1xbRB8rWt7ZUStXtBI5JI2PZHI9jHi57Wm4OG4eVcstOpqJMJZ6d88joY5n4jCcjeJdRXI7dlMOElbIzOJnrT4n5Sz+RGapxY1o2eHwwsE0MVPG+7TXg34xBJyDPepHgRbAqMOLLgp2kMM1xffcTkK5LYcsste50jy44i6FoXse/Dyy3MBIE15u2shXo7T45h53iiLxaX0JaYeKV7xNNjgAY2Ob7txaRrpGlxbNK0uN7rnnKfWt5aniUnwWjXmuyG6wFBOElHEZJDFee8xji/dO0pxQQg2/NHpkuJe65oebgoRgJ500fGf6Cp3Z/nHNxvVZaV6U0NMXWpXOa6QkOuDhIQ4ZTmP0KuVkErZm6Y6R19xcZHXk3ZgBtDbV+yPKloe39Srlq+FbxIu1dsRBtgzujfJHkzNeQM6hbGlng3vj3cV11/HuqcWz5vz8X1UJWPJ2iHzZb0M1bhhaMWmlz3VcoLnm85HFbOz7Gpqa58jdOk3TmHwWNL591/8ANT9ZWyra+mpB9q/vvQGdfQcMRrEvG+Ta2+sMpYFoWpS0oLC/Hk9Bi0VoWzU1N7IvsY9wZz8VrW51M8npWnxv3Z0XQj88Ge4kXY5PBu9lcc0I/PBnuHrscng3eyvG+b/Y9T4v4KtCvPaHGz6qdKC6Fee0ONn1U6VIbwK3bvm/N7I61cVu3fN+b2R1pPRKFH7q+ZJ6V9XbtVDG4AmaQ3njK+mz91fONnedVV7yTrXR/wCPjNp//HN8uZiuYbCz7HpqW55GnS7pWxWJX2jTUg+0fe70BnUdtC2KmqvY12kx7gzn4r1pmK/Tya0vy/ct7aNqUsAMWNpjzkuZtLeaDfnXL/Jv62LmrfvjjXStBvzrl/k39bFy/JtNuOXZw8ccd4iHXp/AP9gq7oUeL1/ts+qtT+Af7BV3Qo8Xr/bZ9V43G9Oe4TdERbJbOyvvR/FbVaqyvvR/FbVTKIERFCVk00d94dIDtXPORe6ViMcY7zIR95xvPKVdRBjUkL433uaWgMxcrgdu+/N61kOaHNLXAEHOCvUQWe5mZseXF9HHNyNpoWsxGtuAzXG4ji3FeRBaZAxrsYl7yMxc4m5edzR3XXvu2u+Pe8W4ryIMeaFwY1sYLgHBxBdlJBvzlV0rHRxXPzlxOe/Ob1dRAREQEREBERAREQEREBERBg2z4l8QtKt1bPiXxC0qAr0Xi83F9FZV6Lxebi+iInpAFyrRs8r2f7g9a6qohh5gjUYR1tPUQ1kcAijLCHsJvy3qnxrxTkibM+as2piHDIKk0tf3QxoJYTcCqaytnq33zSk7g2gujSaEloPcXasUuU3+DKp2IbR4YpejK9P+Vx9bOaOG3eHM1VH4RvtLpWxDaPDFL0ZXrNCK0A8O1Ypcn+GU/k8XtbxW9OiYVeadT7sdYXJsHPON/svXWsLxi4LVY3IwP1C5Lg55xv8AZevJr27oS9ERXXeu8Vk4iospS7xWTiKiypZMudYceX5vYHUoofvLpVv4NTWnaMlU2rZGHgC4svWn1hVPCMXMK7uPmpFYiZcluO2Z+nlkBpFI05u8xlKq+2KWlbpUN0jhtMzBbmzNCWvls+nlFr04D4wfBncWTsQ2jwxS9GV01+Xx1j6lyX+NN5+4RfBSvqavDGydNf3vdcfeDNnX0LP4CTiK5hg/oX1tmW3R2hJalPIynmZIWCM3m4rp8/gJOIrz/l8teS0TWcurhppGHEMGvOObif1qY03h4vbHWodg15xzcT+tTGm8PF7Y61lHTpjp0G1PEZPh1qQ4EeZdZ789TFHrU8Rk+HWpDgR5l1nvz1MWs9OejcUvm1Nxn6LbWX5Og9gLU0vm1Nxn6LbWX5Og9gKsNIZK4H/bMu1uYOY913d0mf3ZXfFxD+1zYsttYMWLDHOyEx1r3XkX394r0tFbRMovXaMQ+Uqu0o472w9+d3aWbgHPJNhPEZHk/ZvyfBZmsKp4Ri5hWzwbwVmsm1G1jqyOQAEXBl2db8nPSaz9suPhmsxOErVvBXy7P7B61cVvBXy7P7B61wV7dU9wliIius6BZXkOD3P0WtovHIfeDrWysryHB7n6LW0XjkPvB1rVyR3LqEnnO3jHUsmn845/d9ixpPOdvGOpZNP5xz+77Fm1htlEtGD/AJc2v7DP9RilqiWjB/y5tf2Gf6jFM9LR2+Z0RFg0cxw48ctL49SycFPN6m9g9ZWNhx45aXx6lk4Keb1N7B6yp+L+Unz/AOqrnlX4Ko/zrRLe1fgqj/OtEnF+1fk9x/0IiLVzCIiAiIgL1n3xxrxes++ONJI7S/Brzho+M9SkGH/iNN7/AOij+DXnDR8Z6lIMP/Eab3/0WfH/AEy6uX/2aJBgF5Um9z9QpqoVgF5Um9z9QpqseP8AFvz/AJCluhZ5en/lj/WFElLdCzy9P/LH+sLavcObk/GU4tzwMXGtUtrbngYuNapdDmh0ij8y7N/3urYWj5Eo+MdS19H5l2b/AL3VsLR8iUfGOpUntr+m8GYLU1/jUi2wzBamv8akUrMdcW0QfK1re2V2lcW0QfK1re2VFlq9oEuQYSeX6737+tdfULtTAuorbRnqxXRsEshfcWHIp+PeKzOVeSs2j6RXB3x1/sLtGh/JS02ENkQgsZJI8d4M5NyieBmhvWVlqOiZakDCIycsZ3QuiYJ6GtdY+ElFaktqQTNp5MdzAw3nIu6Pk8cVmMuLl4LWtEz+nSrU8Sk+C0a3lqeJSfBaNcbaG7wE86aPjP8AQVO7P845uN6gmAnnTR8Z/oKndn+cc3G9VlevTJsjypaHt/Uq5avhW8St2R5UtD2/qVctXwreJGjX2z5vz8X1UJU2tnzfn4vqoSseTtEPmfCGWSHCi03xPLHd1S5R7ZWseXOJc5xJO2V1S19CuvrbUq6xtq07BPM+QAxnJeb1jbENo8MUvRlepX5PHiIy5J4rZzhzNej7wXS9iG0eGKXoyvRoRWjf5YpejKt/J4vZ4reljQj88Ge4euxyeDd7KhOBeA9TYNttr5a+GZojLcRjCDlU2k8G72V53yr1vfNZbcFJrTEqtCvPaHGz6qdKC6Fee0ONn1U6SGsCt275vzeyOtXFbt3zfm9kdaT0ShR+6vmCvllhtesfE8sdp0gvHGV9PrktZoTV89ZNMLXpwJJC67SztlX+JyV45naWXNSbYxDlxJJxibyvF0zYhtHhil6MpsQ2jwxS9GV3fyeL2x8VvTmjfvjjXStBvzrl/k39bFUNCO0QQdWKXoypTgPgVU4P2w6tlrYZ2mEx4jGEZyD9FlzfI47UmIlFeO28ThM5/AP9gq7oUeL1/ts+qtT+Af7BV3Qo8Xr/AG2fVedxuye4TdERbJbOyvvR/FbVaqyvvR/FbVTKIERFCRERAREQEREBERAREQEREBERAREQEREBERARF4TcLzmQYVs+JfELSqi0bdnmDoW2e64Pz4xy/osDVCfeT/17FXeBslei8Xm4votPqhPvJ/69ir1UqWRSN7gebx6+xN4JRVFas81dTEXyUM0JBuuLCsnueo/Bk5hWGJFtRa0cP8FrPr5qGqr3sngeY5BpLzcR8FLe56j8GTmFauowWsepnkqJ7BpZJZDe976YEk+vIrU1z/lEq2z+mPg3hJY+EOn6lVJm0i7TL4yy6++7PxLcLHs6xKWzdM1PsqOl0y7H0qHEvu3blmdz1H4MnMKi2M/4x9JjOPto8M/Nmt9gdYXI8HPON/svXY8L6WrkwcrGR00z3FguAYSc4XMrOsG0qS0DWChrXkg94YDtqa/Urw3KKjSrV4Kqujf2JpVq8FVXRv7FfK647xWTiKiykr47V0pzdSKrKD/dv7Foaaz7XlYXPsqtYQbrtIf2Ks/ZmFheONwvWdqTavBtb0D+xNSbT4NrOgf2KuJEmsrRGwSisyliktB4cyEA/YPz3cSlOD9tWdbtEayzJjNCHlt5YRlHGsKyMD7FNl0um4OUmmaSy++lF993Et1Z9lQ2fBpFDZwp4r78SKHEF6vbTH+MS543z9rion8BJxFX+56j8GTmFUTwVGlSfYyZj/AVnhdwzBrzjm4n9anuD1BJadsQUkb44y83l0huAAylXrG0O6emqBXm0ptMkZeYzCMhPxUosLAiOevBFfIGsyvIYM24tInP0tFvpJauwaaogMWqsAv28nathYdJTWdYk1naowSaY8vx7wLs21f6lg6yLL3zVco7E1kWXvmq5R2LX7YREx1DeROpI7Mko+7ITjn7+OFk0ldSQ08cPdMJxBdfpgUa1kWXvmq5R2JrIsvfNVyjsUfac29JVqnSfjRdIFANHGmZauCJrIauACzsepkZj3l7AMt3rW11kWXvmq5R2LXYSaH9NV2HV01FVzCaSMgCS4sf6jk20+5TE2y+fKKphraSOpgfjxSC9huuvV9ZUdhWhTM0iOyaqNseQMZAbh+ir1JtXg2t6B/YscenQwlbwV8uz+wetbAWTapPk2t6B/YpZY2AlNSy92Gsn0yRmVhYMl6ROO1Za9Zdj2fUWpaMNFS3abKbgSbgPWVu9bVPvmTkC2FgYHiqtBoirJGYmV77swVtokmyVUeC9RDZ8VMayBxZHiXi9Y0GBtTHPHKa+nIY8HMVk6yIeEp+YE1kQ8JT8wLXM+nPifSSPhvtUVmmsxQRk+CuxAMtSWsxxc8XXcii2siDhKfmBNZEPCU/MCj79Jzb0mvdTP8AZUa0UA+uwCtanp2Y8mk411+0CCf0BWv1kQ8JT8wLEtnAZ8lj1cdHaEhqnwkQh4uF+4UnOOlotbPTgSLOfY9qteQbNrbxkP2D+xeak2rwbW9A/sWGJbuSYceOWl8epauxsJqOhsuGkkhnLo23Ei67PxqY4WYG4UVtTXPprBrpBJfiEQnLkUO2N8Of/DNo9Gs+ObUmZh0clKclYiyMVBx6edw27ytGuiv0OMOe5pGa2bRvIP8AdrVbF+H/AP4VtLo1rxfUTlzfJ+5jCHophsX4f/8AhW0ujTYvw/8A/CtpdGtcubEoeimGxfh//wCFbS6NNi/D/wD8K2l0aZMSh6KYbF+H/wD4VtLo02L8P/8AwraXRpkxKHr1n3xxqX7F+H//AIVtLo16zQww/wAcf/xW0ujUZIrOWNZdWyhtSCqlaS2PKQM62eElu01qwQQwxTMLJMc49yzJdDnDgkXYM2j0a8ZocYch4/8A41aOf8Nc8WtFdYehalLWi/7hKsAvKk3ufqFNVosEMF8I6K0JZaqxq6NpjuBMJz3hSrUm1eDa3oH9iccTqjmmJt9MJdA0G7LZU1lZX1FbBSwsZpVzyL3k3HJyfqoZqTavBtb0D+xdP0JcC3VFlzWjapqIWyvxY6e7EOT+M38i1rE5c9+kqrLFsqpY1pt2AXG/IWdqxdbFj/8AiCL/ANnatvrMsf0qjpP2TWZY/pVHSfst/tjET6ZcRsuOx6ezdU6ciDM/TBl/VX6iqs2WjhpjaFOBHdl0wZVrdZlj+lUdJ+yazLH9Ko6T9lGJT/l6b8W1Z13jlL0wWJLVU1TOX09TDIdsMeDctXrMsf0qjpP2V0WVS2HSSTUERJP3zIbzcn3BGWcuLaIPla1vbK6jqxL+Cz9VErcwdgtWpqqiWeaM1BvIAzLObw0icOPIpDhLgxV2baGk0dPV1UJYCJBGTl+C1epNq8G1vQP7FmvE5Z+B1o0lkVlVX10pjp4oDjvAJuygbSnWB+FNgYS2wLPs2vBlxDITJGWAAesqK4D2LPNaU0NoWVM+B8BBZNAcQ5RuhdCwbwJsiSrc+KzIKEAXGSKEMefVer0iv7j7ZX2mfpvamwqOaAxarwC/bydqwdaVHw5ByDtWy1k2V+NVc8diaybK/GqueOxa5lnrPpZsKwqOy7UhrdWIJNLv7zIL8l26t9TyUcVoOrO7oDj395jjb+K0+smyvxqrnjsTWTZX41Xzx2J9pjMN5SVNHBUzzd2QHTTfdjjIvayqpp3h0dTCXZrg8ElaLWTZX41Xzx2K7T4L0dnk1dJpklRGCYxKbxf8FH2nNmfbPm/PxfVQlbWrt2onopKR0MYa/JeL7861kcckgxmxPI9QWN5iZ+l1KwbbtShsazZK+0JDHTxkAvAJzm7aWy7nqPwZOYVYrbMZXU5pq2i7ohOeOSO8H4KIj7+0Tn9IjslYH8JP6B/YpbBKyaCOaM3xyMDwfUVr9Z9hf+HaL5Udi20dLLHG1kdO8NYLmgMzBWvr/wDWJRXb/wCylUSeDd7Kv9z1H4MnMKs1gfT00kkjHsaBnIuVMLPdCvPaHGz6qdKMaGVmaTZUldJMWGpPgyLrgNtS3SovxguiEQsq3bvm/N7I61laVF+MFTW08dVQSUunBmPt/FTMZglAkWVX0MlNVyQta+RrD3rwzOrPc9R+DJzCubEpau3bYoLDs819pTGGAPDccMJyniUf2SsEOEn9A/sUsr7Lir6fSK6gFTDffiSR3i9a/WfYX/h2i+VHYtKaY/yiVLb5+myY4OYHszEXhVKsU0wAAgkAGbvCve56j8GTmFZ4ldYn8A/2CruhR4vX+2z6q3WRvipJXyMexoYcpFwWy0LrP0qx5qqSQsNQ/Iwi7INv9VpxontKUV7SovxgmlRfjBapZtlfej+K2q09NKyAtOOHXetbKmmE0eOLvgVMoheREUJEREBERAREQEREBERAREQEREBERAREQEREBYVtSPgsismjux2wucL925Zq12EhusCvJ3tJ1IOVa7ba9Gk6M9qa7ba9Gk6M9qjndUHp/ondUHp/os8s8pHrttr0aToz2prttr0aToz2qOd1Qen+id1Qen+iZMpFrstv0qToT2prstv0qToT2qO91Qen+id1Qen+iZMpFrstv0qToT2prstv0qToT2qO91Qen+id1Qen+iZMpFrstv0qToT2prstv0qToT2qO91Qen+id1Qen+iZMpFrstv0qToT2prstv0qToT2qO91Qen+id1Qen+iZMpFrstv0qToT2prstv0qToT2qO91Qen+id1Qen+iZMpFrstv0qToT2prstv0qToT2qO91Qen+id1Qen+iZMpFrstv0qToT2q5T4R4QzvuhZTyH1QntUdp390SYlOHyO3GMJWntnC7CGxLRms2F8MccV1zHwgnKL0ybOpUVVhC8h1VNRRt3GRknrWz7rm9XIuH7ImE2+KboAmyJhNvim6AJk2h3Duub1cipkqZXsLDdcRdmXEdkTCbfFN0ATZEwm3xTdAEzJtDsXc0XrWVRSvosbSbu/z3rieyJhNvim6AJsiYTb4pugCiPo2h3XVOp9JnImqdT6TORcK2RMJt8U3QBNkTCbfFN0AU5k2h3XVOp9JnImqdT6TORcK2RMJt8U3QBNkTCbfFN0ATMm0O66p1PpM5E1TqfSZyLhWyJhNvim6AJsiYTb4pugCZk2h3E1kxcTk5F53XN6uRcP2RMJt8U3QBNkTCbfFN0ATJtDt0lTLJG5jrrni4rXdwU3ou5VyLZEwm3xTdAE2RMJt8U3QBQbQ673BTei7lWXZv8AwBcYMhfnvyri+yJhNvim6AJsiYTb4pugCG0O6ap1fpM5E1Tq/SZyLheyJhNvim6AJsiYTb4pugCnMm0O6ap1fpM5E1Tq/SZyLheyJhNvim6AJsiYTb4pugCZk2h3TVOr9JnImqdX6TORcL2RMJt8U3QBNkTCbfFN0ATMm0O4mtmJLsYcip7rm3W8i4hsiYTb4pugCbImE2+KboAmTaHb+65t1vIndc263kXENkTCbfFN0ATZEwm3xTdAEybQ7f3XNut5E7rm3W8i4hsiYTb4pugCbImE2+KboAmTaHb+65t1vIndc263kXENkTCbfFN0ATZEwm3xTdAEybQ7f3XNut5E7rm3W8i4hsiYTb4pugCbImE2+KboAmTaHb+65t1vIndc263kXENkTCbfFN0ATZEwm3xTdAEybQ7f3XNut5E7rm3W8i4hsiYTb4pugCbImE2+KboAmTaHb+65t1vIndc263kXENkTCbfFN0ATZEwm3xTdAEybQ7f3XNut5E7rm3W8i4hsiYTb4pugCbImE2+KboAmTaHb+65t1vIrjLQqWgAOZdxLhmyJhNvim6AJsiYTb4pugCZk2h3TVOr9JnImqdX6TORcL2RMJt8U3QBNkTCbfFN0ATMm0O6ap1fpM5E1Tq/SZyLheyJhNvim6AJsiYTb4pugCZk2h3TVOr9JnIqZ66omidFI4Yrxcci4bsiYTb4pugCbImE2+KboAmZNodi7mi9adzRetcd2RMJt8U3QBNkTCbfFN0AUG0O00xdTX6Vt/evV7uubdbyLiGyJhNvim6AJsiYTb4pugCnJtDt/dc263kVcdfUxjI4ci4bsiYTb4pugCbImE2+KboAmTaHdNU6v0mciap1fpM5FwvZEwm3xTdAE2RMJt8U3QBMybQ7pqnV+kzkTVOr9JnIuF7ImE2+KboAmyJhNvim6AJmTaHdNU6v0mciap1fpM5FwvZEwm3xTdAE2RMJt8U3QBMybQ6++hge8uLTecudZNH/wkZZDkBN+XKuL7ImE2+KboAmyJhNvim6AKOjaHb+65t1vIndc263kXENkTCbfFN0ATZEwm3xTdAFOTaHaampr3s/4aohjP547x1rVVNfhVDlaKKYbrIz1XrleyJhNvim6AJsiYTb4pugCZNnQ5MKLejfiyNpWHcMJH1WFa9uWpadE6jqXU4ifdfiRkHrUUsrC61bYqTTWnLCYgMYYkYBvW07qg9P9EyZbygwjtWio4qWLuUxxMxBfGb+tX9dltf8AlOjPao53VB6f6J3VB6f6Jkykeuy2v/KdGe1Ndltf+U6M9qjndUHp/ondUHp/omTKRa7Lavz0nQntTXZbfpUnQntUd7qg9P8ARO6oPT/RMmUi12W36VJ0J7U12W36VJ0J7VHe6oPT/RO6oPT/AETJlItdlt+lSdCe1Ndlt+lSdCe1R3uqD0/0TuqD0/0TJlt7Vt21bSoJaOodTiKS6/EjIOQ37qrs7CK1aGiio4TSmOIYgvjN/WtL3VB6f6J3VB6f6Jkykeuy2v8AynRntTXZbX/lOjPao53VB6f6J3VB6f6Jkykeuy2v/KdGe1TvQ3tKrtOzamWr0vGZNcMRt20uQ91Qen+i6hoPSMksascw3jT/AKKYmUxKcoiK64iIgIiICIiAiIgIiICIiAiIgIiICIiAiIgLW4S+btpfysn9JWyWLatMayzaqka8NM8LowTtXi5B82Iuj7FNZwxB0J7U2KazhiDoT2quGeJc4RdH2KazhiDoT2psU1nDEHQntTBiXOEXR9ims4Yg6E9qbFNZwxB0J7UwYlzhF0fYprOGIOhPamxTWcMQdCe1MGJc4RdH2KazhiDoT2psU1nDEHQntTBiXOEXR9ims4Yg6E9qbFNZwxB0J7UwYlzhF0fYprOGIOhPasSu0On0eSW2oMa69rRCb+tRgxKBrZ2ZXYH0wGqlfIagffi0t9wPwGVSWgwPo4jjVcz5zuDvAothBodWlWWxVVNFNQw08j742Pe+8DkUGJSOnw1wPpo8SnrBG3cZTvH0Wvrbb0Oq6pdU1Ygmmfne+mkvP6KO7GFu78oOe/sTYwt3flBz39ihOZbvVDQz3vS/LydiaoaGe96X5eTsWk2MLd35Qc9/Ymxhbu/KDnv7ER9t3qhoZ73pfl5OxNUNDPe9L8vJ2LSbGFu78oOe/sTYwt3flBz39iH23eqGhnvel+Xk7E1Q0M970vy8nYtJsYW7vyg57+xNjC3d+UHPf2Ifbd6oaGe96X5eTsTVDQz3vS/Lydi0mxhbu/KDnv7E2MLd35Qc9/Yh9t3qhoZ73pfl5OxNUNDPe9L8vJ2LSbGFu78oOe/sTYwt3flBz39iH23eqGhnvel+Xk7E1Q0M970vy8nYtJsYW7vyg57+xNjC3d+UHPf2Ifbd6oaGe96X5eTsTVDQz3vS/Lydi0mxhbu/KDnv7E2MLd35Qc9/Yh9t3qhoZ73pfl5OxNUNDPe9L8vJ2LSbGFu78oOe/sTYwt3flBz39iH23eqGhnvel+Xk7E1Q0M970vy8nYtJsYW7vyg57+xNjC3d+UHPf2Ifbd6oaGe96X5eTsTVDQz3vS/Lydi0mxhbu/KDnv7E2MLd35Qc9/Yh9t3qhoZ73pfl5OxNUNDPe9L8vJ2LSbGFu78oOe/sTYwt3flBz39iH23eqGhnvel+Xk7E1Q0M970vy8nYtJsYW7vyg57+xNjC3d+UHPf2Ifbd6oaGe96X5eTsTVDQz3vS/Lydi0mxhbu/KDnv7E2MLd35Qc9/Yh9t3qhoZ73pfl5OxNUNDPe9L8vJ2LSbGFu78oOe/sTYwt3flBz39iH23eqGhnvel+Xk7E1Q0M970vy8nYtJsYW7vyg57+xNjC3d+UHPf2Ifbd6oaGe96X5eTsTVDQz3vS/Lydi0mxhbu/KDnv7E2MLd35Qc9/Yh9t3qhoZ73pfl5OxNUNDPe9L8vJ2LSbGFu78oOe/sTYwt3flBz39iH23eqGhnvel+Xk7E1Q0M970vy8nYtJsYW7vyg57+xNjC3d+UHPf2Ifbd6oaGe96X5eTsTVDQz3vS/Lydi0mxhbu/KDnv7E2MLd35Qc9/Yh9t3qhoZ73pfl5OxNUNDPe9L8vJ2LSbGFu78oOe/sTYwt3flBz39iH23eqGhnvel+Xk7E1Q0M970vy8nYtJsYW7vyg57+xNjC3d+UHPf2Ifbd6oaGe96X5eTsTVDQz3vS/Lydi0mxhbu/KDnv7E2MLd35Qc9/Yh9t3qhoZ73pfl5OxNUNDPe9L8vJ2LSbGFu78oOe/sTYwt3flBz39iH23eqGhnvel+Xk7E1Q0M970vy8nYtJsYW7vyg57+xNjC3d+UHPf2Ifbd6oaGe96X5eTsTVDQz3vS/Lydi0mxhbu/KDnv7E2MLd35Qc9/Yh9t3qhoZ73pfl5OxNUNDPe9L8vJ2LSbGFu78oOe/sTYwt3flBz39iH23eqGhnvel+Xk7E1Q0M970vy8nYtJsYW7vyg57+xNjC3d+UHPf2Ifbd6oaGe96X5eTsTVDQz3vS/Lydi0mxhbu/KDnv7E2MLd35Qc9/Yh9t3qhoZ73pfl5OxNUNDPe9L8vJ2LSbGFu78oOe/sTYwt3flBz39iH23eqGhnvel+Xk7E1Q0M970vy8nYtJsYW7vyg57+xNjC3d+UHPf2Ifbd6oaGe96X5eTsTVDQz3vS/Lydi0mxhbu/KDnv7E2MLd35Qc9/Yh9t3qhoZ73pfl5OxNUNDPe9L8vJ2LSbGFu78oOe/sTYwt3flBz39iH23eqGhnvel+Xk7E1Q0M970vy8nYtJsYW7vyg57+xNjC3d+UHPf2Ifbd6oaGe96X5eTsTVDQz3vS/Lydi0mxhbu/KDnv7E2MLd35Qc9/Yh9pJRW7od0MhkpRBC4txSRTPyjkVmttjACpvcKowP3YoZB+l1y0Oxhbu/KDnv7E2MLd35Qc9/Yh9q530ckhdZ85qKc/ckLCy/4KhSKxMA56eiihqbQhZIL78RheM/wW+pNDWSqYTBbdO+7P8AYnIpMS5+i6PsU1nDEHQntTYprOGIOhParYMS5wi6PsU1nDEHQntTYprOGIOhPamDEucIuj7FNZwxB0J7U2KazhiDoT2pgxLnCLo+xTWcMQdCe1Nims4Yg6E9qYMS5wi6PsU1nDEHQntTYprOGIOhPamDEucIuj7FNZwxB0J7U2KazhiDoT2pgxLnC63oI+Q67+ZH9IWr2KazhiDoT2qY4B4NyYN2fPTS1LKgyy6Ze1l12S5IhMRKSoiKy4iIgIiICIiAiIgIiICIiAiIgIiICIiAiIgIiICIiAiIgIiICIiAiIgIii+HmFtDgtBTOq5hEagkMOIXZrtzjSRJnua0YziAN0r5/wBHu2qyLDSJln2lURxdyMvEUxAvvO4pDU6JGD9Sb5rVmf6tJfd1LW1mFmA1XJptVpE8l12PJSkm7kVJtlWcS5dq/bvDFf07+1NX7d4Yr+nf2rpeuDQ93vSfJfsmuDQ93vSfJfsoyq5pq/bvDFf07+1NX7d4Yr+nf2rpeuDQ93vSfJfsmuDQ93vSfJfsmRzTV+3eGK/p39qav27wxX9O/tXS9cGh7vek+S/ZNcGh7vek+S/ZMjmmr9u8MV/Tv7U1ft3hiv6d/aul64ND3e9J8l+ya4ND3e9J8l+yZHNNX7d4Yr+nf2pq/bvDFf07+1dL1waHu96T5L9k1waHu96T5L9kyOaav27wxX9O/tTV+3eGK/p39q6Xrg0Pd70nyX7Jrg0Pd70nyX7Jkc01ft3hiv6d/amr9u8MV/Tv7V0vXBoe73pPkv2TXBoe73pPkv2TI5pq/bvDFf07+1NX7d4Yr+nf2rpeuDQ93vSfJfsmuDQ93vSfJfsmRzTV+3eGK/p39qav27wxX9O/tXS9cGh7vek+S/ZNcGh7vek+S/ZMjmmr9u8MV/Tv7U1ft3hiv6d/aul64ND3e9J8l+ya4ND3e9J8l+yZHNNX7d4Yr+nf2pq/bvDFf07+1dL1waHu96T5L9k1waHu96T5L9kyOaav27wxX9O/tTV+3eGK/p39q6Xrg0Pd70nyX7Jrg0Pd70nyX7Jkc01ft3hiv6d/amr9u8MV/Tv7V0vXBoe73pPkv2TXBoe73pPkv2TI5pq/bvDFf07+1NX7d4Yr+nf2rpeuDQ93vSfJfsmuDQ93vSfJfsmRzTV+3eGK/p39qav27wxX9O/tXS9cGh7vek+S/ZNcGh7vek+S/ZMjmmr9u8MV/Tv7U1ft3hiv6d/aul64ND3e9J8l+ya4ND3e9J8l+yZHNNX7d4Yr+nf2pq/bvDFf07+1dL1waHu96T5L9k1waHu96T5L9kyOaav27wxX9O/tTV+3eGK/p39q6Xrg0Pd70nyX7Jrg0Pd70nyX7Jkc01ft3hiv6d/amr9u8MV/Tv7V0vXBoe73pPkv2TXBoe73pPkv2TI5pq/bvDFf07+1NX7d4Yr+nf2rpeuDQ93vSfJfsmuDQ93vSfJfsmRzTV+3eGK/p39qav27wxX9O/tXS9cGh7vek+S/ZNcGh7vek+S/ZMjmmr9u8MV/Tv7U1ft3hiv6d/aul64ND3e9J8l+ya4ND3e9J8l+yZHNNX7d4Yr+nf2pq/bvDFf07+1dL1waHu96T5L9k1waHu96T5L9kyOaav27wxX9O/tTV+3eGK/p39q6Xrg0Pd70nyX7Jrg0Pd70nyX7Jkc01ft3hiv6d/amr9u8MV/Tv7V0vXBoe73pPkv2TXBoe73pPkv2TI5pq/bvDFf07+1NX7d4Yr+nf2rpeuDQ93vSfJfsmuDQ93vSfJfsmRzTV+3eGK/p39qav27wxX9O/tXS9cGh7vek+S/ZNcGh7vek+S/ZMjmmr9u8MV/Tv7U1ft3hiv6d/aul64ND3e9J8l+ya4ND3e9J8l+yZHNNX7d4Yr+nf2pq/bvDFf07+1dL1waHu96T5L9k1waHu96T5L9kyOaav27wxX9O/tTV+3eGK/p39q6Xrg0Pd70nyX7Jrg0Pd70nyX7Jkc01ft3hiv6d/amr9u8MV/Tv7V0vXBoe73pPkv2TXBoe73pPkv2TI5pq/bvDFf07+1NX7d4Yr+nf2rpeuDQ93vSfJfsmuDQ93vSfJfsmRzTV+3eGK/p39qav27wxX9O/tXS9cGh7vek+S/ZNcGh7vek+S/ZMjmmr9u8MV/Tv7U1ft3hiv6d/aul64ND3e9J8l+ya4ND3e9J8l+yZHNNX7d4Yr+nf2pq/bvDFf07+1dL1waHu96T5L9k1waHu96T5L9kyOaav27wxX9O/tTV+3eGK/p39q6Xrg0Pd70nyX7Jrg0Pd70nyX7Jkc01ft3hiv6d/amr9u8MV/Tv7V0vXBoe73pPkv2TXBoe73pPkv2TI5pq/bvDFf07+1df/ALO9rzVEdri0bQlldjx4mnSE7u6tXrg0Pd70nyX7LJo8MMC6LG7kkjp8fPpdKWX8gTJDt7HNcL2kEeperjkOiNg9Tm+G05mcUb+xSHBbRIsm1rYp7KirNPlnOKy+ItOZWiy+YdCREVkiIiAiIgIiICIiAiIgIiICIiAiIgIiICIiAiIgIiICIiAiIgIiICIiAiIgIiICIiAiIgIiICIiAuZ6OOCtt4UQWXHY1Myc075DJfIGXX4t2fiXTESR8ybEuHHBcPzLO1NiXDjguH5lnavptFGqukPmTYlw44Lh+ZZ2psS4ccFw/Ms7V9NomppD5k2JcOOC4fmWdqbEuHHBcPzLO1fTaJqaQ+ZNiXDjguH5lnamxLhxwXD8yztX02iamkPmTYlw44Lh+ZZ2psS4ccFw/Ms7V9NomppD5k2JcOOC4fmWdqbEuHHBcPzLO1fTaJqaQ+ZNiXDjguH5lnamxLhxwXD8yztX02iamkPmTYlw44Lh+ZZ2psS4ccFw/Ms7V9NomppD5k2JcOOC4fmWdqbEuHHBcPzLO1fTaJqaQ+ZNiXDjguH5lnamxLhxwXD8yztX02iamkPmTYlw44Lh+ZZ2psS4ccFw/Ms7V9NomppD5k2JcOOC4fmWdqbEuHHBcPzLO1fTaJqaQ+ZNiXDjguH5lnamxLhxwXD8yztX02iamkPmTYlw44Lh+ZZ2psS4ccFw/Ms7V9NomppD5k2JcOOC4fmWdqbEuHHBcPzLO1fTaJqaQ+ZNiXDjguH5lnamxLhxwXD8yztX02iamkPmTYlw44Lh+ZZ2psS4ccFw/Ms7V9NomppD5k2JcOOC4fmWdqbEuHHBcPzLO1fTaJqaQ+ZNiXDjguH5lnamxLhxwXD8yztX02iamkPmTYlw44Lh+ZZ2psS4ccFw/Ms7V9NomppD5k2JcOOC4fmWdqbEuHHBcPzLO1fTaJqaQ+ZNiXDjguH5lnamxLhxwXD8yztX02iamkPmTYlw44Lh+ZZ2psS4ccFw/Ms7V9NomppD5k2JcOOC4fmWdqbEuHHBcPzLO1fTaJqaQ+ZNiXDjguH5lnamxLhxwXD8yztX02iamkPmTYlw44Lh+ZZ2psS4ccFw/Ms7V9NomppD5k2JcOOC4fmWdqbEuHHBcPzLO1fTaJqaQ+ZNiXDjguH5lnamxLhxwXD8yztX02iamkPmTYlw44Lh+ZZ2psS4ccFw/Ms7V9NomppD5k2JcOOC4fmWdqbEuHHBcPzLO1fTaJqaQ+ZNiXDjguH5lnamxLhxwXD8yztX02iamkPmTYlw44Lh+ZZ2psS4ccFw/Ms7V9NomppD5k2JcOOC4fmWdqbEuHHBcPzLO1fTaJqaQ+ZNiXDjguH5lnamxLhxwXD8yztX02iamkPmTYlw44Lh+ZZ2psS4ccFw/Ms7V9NomppD5k2JcOOC4fmWdqbEuHHBcPzLO1fTaJqaQ+ZNiXDjguH5lnamxLhxwXD8yztX02iamkPmTYlw44Lh+ZZ2psS4ccFw/Ms7V9NomppD5k2JcOOC4fmWdqbEuHHBcPzLO1fTaJqaQ+ZNiXDjguH5lnat/odaHOFdi4aWbadfQRx00EhMjhO03C47V674iYNYERFKwiIgIiICIiAiIgIiICIiAiIgIiICIiAiIgIiICIiAiIgIiICIiAiIgIiICIiAiIgIiICIiAiIgIiICIiAiIgIiICIiAiIgIiICIiAiIgIiICIiAiIgIiICIiAiIgIiICIiAiIgIiICIiAiIgIiICIiAiIgIiICIiAiIgIiICIiAiIgIiICIiAiIgIiICIiAiIgIiICIiAiIgIiICIiAiIgIiICIiAiIgIiICIiAiIgIiICIiAiIgIiICIiAiIgIiICIiAiIgIiICIrcsjg8RxtBeRfecwCC4itY8jHtEgaWuNwc0XXH1heyyhhDQ0veczRn/AGQXEVod0nOYmeq4u7F4XVDTeWMkH5TceQ9qC8ipikbI28Xi7OCLiFUgIiICIiAiIgIiICIrc8jmFjWAFzzcLzkzX/RBcRWNMmY9glbHc52KMVxOXkV9AREQEREBERAREQEREBERAREQEREBERAREQEREBERARWWvllvdHiNZtFwJLlVDIXYzXtxXtzja4wguIrOnPeSIGBwGTGcbm/uvbqi6/Hiv3MQ9d6C6is6bIzw0dw9JhvA49sK8gIiICIiAiIgIiICIiAisGSZz3iJsZDHYpxiRluB3PWqoJHPc9jw0OYQDcbxmvQXUREBERAREQEREBERAREQEREBERAREQEREBERAREQEVEz9LZfcXEm4AbZVDnVDG47gxwGUtbfeOLdQXkVD5WNjEhPenNdt8SoDqh5vDGRt/MbzyDtQXkVo90jMYn/AALe1exy4zsRzHMfuH6HbQXEREBERAREQEREBERARUTP0qF8hF+KL1ae+pYxz3MhxWgk3ON93IgyEXjTjNDt0Xr1AREQEREBERAREQEREBERAREQEREBERAREQEREBWpMdkola0uaRiuAz+o/qVdVmZofPGxwvaQ4kciDxznTOa1rHBgIc5zhdmy3Be0gvj00/ek74n1bQ5F4Y2RTRaW0NxnEG7byFe0xxRpDj3zM3rbtH6IPA+aVztKxGMa4tvcCSSMhyZF7j1DPvRtk3Cw3ZfWChiexxdA4C83ljsxP0QTgENmYYycgJyg/FBVBGWM744z3G9x9atiNks0umNxsUgC/ayBeEQunk07FNxGLjHauCvQtiaDpIaATlxd1BRA0MnkY0XNAaQOVXlZljpy/GlEeNdnOe5W/so6hhjLQzFcX3HJtIMpeFzQbi4A8asta+cY0hcyM5mA3EjdPYvTBTAgGGK87rReUF5FZMGJ30B0s7n8J+G18FXFIHsJIxXNNzgdooK14XNGcgfFWW41R32MWRbQGQu9d+0F6YKZt2NFFl9IAk8qC8rM/h6f2z/SUNO1uWEmJ35c3JmVvTDI+ncQL9McDcbx905kFdV96D3o6ir6sVhAMJJuAlGX4FBjVBxje2HaGYv/AG6+sL6LFmjga4Rsha6Q5hues+pX4I9LjDSbzxXIK0REBERAREQEREBERAREQEREBERAREQEREBERBYic6FulPY8huRrmtvBG18VQ8SPN7gWGVwYBflDReT8c6qiijlx3SMDjjuF541TikNfpY8FKC1o3LheP1KC/K8Qw3ht4Fwa0cgCouqzlxoR6sUn9b/oqjpdRDnxmO3P951T/wARHtCZvI7sP6IKXabNdG+PEbf35BvBG4ONXZyW08hGQhhu5FQ+Zr4ZMQkPDT3pFxGTcVAjo3N74RG8ZbyEFXc8Ol42li+6+9XKckwRk5SWi/kVdwuu2ljiKiAuDYgB6wgyEWLDIWxFjBjOdI4MF+S6/PxK4Kdrssx0135s3wGZBdDmnMQfivVZEFM6/Fii42gAjkXhx6fvsYvi278pb679sIL6KiaTEaLhjOcbmjdKoEAd307tMdufwj4dqC6HNJuDgTxr1WRBSkkCKK8bjReFS4GnuLXl0ZIGK43kcR+iCqm8JUe9/wCkLyDxmo9pv9IXtN4So97/ANIVsSiOonFxc9zmhrRnJxQgykVlsAd309z3na2h6grTI45ZAYWNbG05Xgfe4vV60GWiIgIiICIiAiIgIiICIiAiIgIiICIiAiIgIiILc7XFrXMuLmOxgDt+pUume5t0cT8c+k24N4z2L2q8CfWQP1Ct1EMUcEj2MDXNaSCNpB7BGNNIOUQgMbx3ZT1KuWSQy6VEG4wbjFzswG1x5ivL9KqDjG5kl1x3HZrvjkVUsRc8SMfiPAuvuvBG4QgpJqWZSI5BuNBaf1JXsTXOkMsguOZrdwdpXmmyR+GjuHpMyjtCpmMckkWMWmMgnPkOa5BVO0PnjY4XtIcSORUmNkU0WltxcYkG7byFVRR04fjRCPGuzjPcq5mxOA04NIByY26grRYk7YGR40OIH4zbsU5c4V0ufM8sjcWMabnPGcncHagukgZyBxr0EEXg3qyaenaL3RsPrflPKUNPFnjGlnaLMn7FBeRWonuDzFLdjgXgjM4Lx7nySGOI4ob99+56h60F4kDOQEBBzEFWe54AL3sa7dc/L1p3PAQCxoYdp0eTqQK7xOb2CqqvxWX2HdSx6hz+5qiJ5Di2MnGG56/Wsir8Vl9h3Ugqi8Ez2QqljNe6VrYoTcABjv3PUPWvZYqaJmM+MHaG2SfqgyEVmliLL3loZjZmDa/dXkBERAREQEREBERAREQYeq1l8JUfTt7U1WsvhKj6dvauUK5TxGaojhaQDI8NBPrNyDqeq1l8JUfTt7U1WsvhKj6dvaoJadnWbSRGSGSWoEMojma2YXi8H8ve5R+ZeChsvunSpXTU5ZCZJWyTjI4kYrcYMz3G85Cgnmq1l8JUfTt7U1WsvhKj6dvaoRHY1E3TZqubSYMZrYTp4IdeL78bEy80etWjZlBFVRUdQ+qE88jmxluLcwYxa0u3byNohBPNVrL4So+nb2pqtZfCVH07e1QeWxYG0b5WsqnCOFsunY7dLkzEtbkvBuv3c2ZYVRFZsVNBKaera+U42lmoaSWZRffiZLzmyHICg6LqtZfCVH07e1NVrL4So+nb2qCR2bZz6rSnunp9KgMtQHyg4t5aGtxsUXHvsuQ7mdYFsUsNLVNbTvc+F8YexxcDeDuEAX5RuDiQdSpqinqWGSnnimYDcXRvDgDuZF4/xqL2XfRR/Q68iTfzLv6WqQP8ai9l30QJvCwe2f6SqpY2SABwzZiDcRxFUVLgx8TnG4BxJ5pXgNQ4aY0BuXJG7bHrO0UHt1RH91wmbuOyO5cyqY9kzHAt9TmuGb1FUiobmfHKw7hYT+oyJBjOmkmLCxrgGtBFxN1+X9UFMcbWymF7Q9t2MwuF9w2x8PqqqdrWyzhrQ0YwzD8oXt+NWAD+Bhv+JHYvIjdUzN9l36XfRB4GMdVylzGuOK3OONJ2M+zja1rQ94BuGcAE3foj3iGpc54IY5ouddeLwT2heTSscxssbg4RuDjxZj+hKCupe5sYDDc5zg0Hcv20bTQBtxja6/OXC8njK9nYZIu8IxgQ5pOa8KkVAu7+OVrtsYhP6jOg8h+ynMAJLC3GYDtbRHFmVqtOLOxgv+3GI74EfQlXoWufK6d7cXJisac4G6eP6KzVgyTY7QTpADsm2bwbuQfqgyKl5jhLmgY2QN4ybgqWU0IHfMD3H7znC8lVStE8BDXDvgC13rzgqls9wuljkY4Z7mkg8RCDzuZtxY17mxnOwZuL1BJgGzUwAAAebh/lKY8773RxhrRmD8hd2Kl0gkmpyAWkPIIIyg4pQXpYo5QBI0OAN4B3VTUyujDWtHfPOKHHMONU1jpWiMRODXOkAyi8HIciqje2eNzHtuIyPYdpBVDEIwcpc45XOOclVqw1zoXCOQksORjz1FX0BERAREQEREBERAREQEREBERAREQEREBERAREQWqb7j/eO60g+/N7z/pCU33H+8d1q2JC2SVkbcaR0mQbQ70ZT6kFx8Ixi+Nxjec5GY8YVJlki8MwFu29m1xj/wDaY00R78GVm60ZR8NtHVDS0hkcj3HM3EI5b8yCuaMStBabnjK1w2v2Vl7YpKJ7zEwEsN4xRkN2VX4W6VTsY4jvGgE7WQK1GC6ifkIxw5wHGSfqgvf3X+VWqaKLuaL7Jn3B/CNxXIiHwMdtOaD+iswTxsiZHKSx7QGlpBzhBXCAZ5XADvbmAXZsl/1/RePaJ6h0bssbAL2+kTu+pexODah7cl0gD2ndyXH6JJjRTGVrS5jhc8Nzi7MfWgPpoiO9YI3D7rmi4hVU79Nga5wF5yOG1eMhVLp7xdFG9zzmvaQBxkqqNrYKcBzsjRe536koMehONM9pvOkjS238Z+gCuyjTZ9IJIYG4zgP4r8gHFkKt0jTHMS8YpnGNduG8m7kP6K7KHMmEzGl3e4r2jPdtEfqg9dTQFtwia27MWi4jiKMhueHveZHAXAnaXhqG3d5HK53o4hHXmXmmSx3GZoLTnLP4eP1etB7TeEqPe/8ASFW2KNsrpQ0Y7shdtqilyvn95/0hWzNKypmLu+haQCAMrcmfiQVOJqJXxG9sbMjhtu/brWQAALgLgFblYJA2SNwDwO9cMx/ZIZMe9rhivb95v+9pBcREQEREBERAREQEREBERAREQEREBERAREQEREFqr8D/AJm/1BKvxWX2D1JV+B/zN/qCVfisvsHqQXHta9pa4Ag5wVa0qWPwUl7fRflHwOdeY0kriIjiMbkxiL7z6vUvRM5uSaJ7TutBc08n1Qexy4z9LkYWPuvuOUHiKokjbHK1waCx7rnNuyAnMUxjNPGWMcGsJcXObdfkIuF/Gq6k3hjNtz23fA3/AEQUljG1cRaxrTiuzDiXtQ1rpYA5ocMY5x+UpKbqmE7uM39L/olSS0xSYpcGu764XkAghAmbHFC+RsbAWtJFwVTGiGAAnIxuU7u6VQ6SGojfE14Jc0hVwu02AFwykXOHr2wgtwQtewSzND5HC/LlxfUEextPIx8YxWOcGuaM2XMeO9IpDC0RStf3uQPDSQR8MxQ408jO8c2NhxiXC4uO1cP1Qe1zhHEJtuNwPLkPWqqQXUzL87hjHjOUqmsAka2DPjuF/qAyn6cqqpD9g1p+8zvHcYQW4I2ztFRK0PLsrQcoaNpVmnaHY0J0onPijIfgqYnGnbpT2PLB9xzWk5Nw3KrTXyOxYWEDbe9pA+A20FFTG2Ogma0fwEknOTulZD2h7C1wvBFxWLUyONJNHI3FfiHiPEVkVDi2nkc03EMJB+CDx2JT05xIzisGRrQqYGYxE8jg55He3Zmj1dq8ppX97HNdphF4cMzx2+pHNMDi9gJjOVzRtesdiC+i8a4OaHNIIOUEL1AREQEREBERAREQEREHKNSbU4NrOgd2KqOzLWjka9lnVoc0gg6Q7IeRdVRBzipFszgjUR8eNIJJMSleNMI9L1ZTkFytxQ2w2pqJn2PNMKgkyMkpnlpJN+1lGX1rpaIOdl9tuxmy2I+WIlpbE+lfisxRcMW71L1stvY2PJY8ksrXOdHI+lfjRk5cm1nzX3roaIObOjtfuV0DLEfEXsEb5WUrw9zRdkO1luy3DKrM1Ha8tSyZ9lVJxAxoZpD8W5oAA/RdPRBzSKG2WVk9S6yJ5DPjaYx9M8tdeb+POBtq3W0dr1UrXusqpjDWhjGMp3BrQNofryrp6II/gFT1FNY8sdRBLC81BIbIwtJGK3LlW6mvbLHJiucACDii85bleVEkgYWi4uLswF31QWn/AG72NMTw0Ek4wu2iPqqhp0WQDTmcffDtVyN7ZGB7TeCLwqkFnuhgHfNladwxn6BDLI/JDE72ni4cmdXlbkma1xaGue4C8gbXGcwQewxiNpF5c4m9zjnJVMzH44liuxwLiDmcNxeNnvIxo3tvuym4jKbs4KvILPdDQPtI5WH2Ceq9eRkSVBkaHYpZinGaRmPr4yrksrY7sa/KCfgF4JWGXS8t+b6/UIKA2SDIxumR7Tb8reLdC97ojGdsoO5pbuxXl5I4MYXHMEFovlkyRMLB6bx1DtVyKNsbMVvxJzk7qpjlDnYpY5puvF5Gb4FXEFjEkhJMQx4zlLL7iOLsXvdDB95srTuGMnqV5EFkyyPyRRO9p4uA+GdUPiMZif30hDy552zkIWSiDGkcZnxBscjcV+MS5t2S4q5NGXESRnFkbmO0fUfUrqILDpQ5hbJTy5RcRi3hKUvytIfij7pcLjxKqpnZBHjvvu/2UhnZK4tAcCN0XILqIiAiIgIiICIiAiIgIiICIiAiIgIiICIiAiIgx2PMWM0xSG95N7W3jKUZEXl8oLo3F17T6rgMo+Cr09umYlx+9i35M+5uq6gsiWRmSWIn8zMo5M/WndMeYNlJ3NLd2K8hIAvJuCCwWyT5Ht0uLbaT3zvUdwK+rHdF92JE9zTmOQX8V5yq5FIJL+9c0gX3OFx/3kQWwJICQ1hkivvAGdvaFV3THfddJf7t3YrqtGeMY194DQSTxZ0FEUN9LGwlzXM+67bG5+iqEsjMksRP5mC8cmcK5G8PBIvFxuIO0VUgs90MP3WyuO4IyOteYkkzgZRisBvDL77+PsVckoY4NDXOcRfcCPqVVG8PYHDMgSxtkZinJtgjODuq2JJY8ksZePTYL+UK8iCz3TGcgEhO5pbuxeEST5HNMce2L++d6vUFfRBjscYZJQY5HBz8YYrb8lwH0VVOCZJZC0tDyLgRlzXK8iCxiugdexpdEc7RnafV6lRM/Huc2KZsjfuuxP0PqWUseSrjjlMbg68Zcgv3O0IL8ZJYC4XEjKF6qY3B7A4ZiqkBERAREQEREBERAREQEREBERAREQEREBERBbqWl0JDRebwbuIgq3NIZInxtilBc0gXtyK/I4MYXHMFTFIJLwAQW5wf2QUGOSMl0JBByljjk+B2k7oA8JHKz/IT1Xq8iCzp+N4KKR59bS0fqvYo3Y5llILyLgBmaNwKqWRsYGNeScwAvJVAnJNxgkz3ZLj1HIgrmj0xl1+KQb2ncKoEzm5JonAj+JoxgeTKrrHBzA5uYi8I9wY0uOZBYfI2Z0elh97Xg5WEC7Mc49aqfG9rzJDdefvNOZ3r9RXpqIwGk35f0y3dauoLPdDQO/jlYfYJ6r0MznZIonuO64Yo/XKrytCdpI7x2KTcHXi6/lvQewxlpL3uxpHZz9B6l5JG4P02IgP2wczv97quogs6eAPtI5GH2S4fomn4w+zikefZLR+qvIgxpoZJIZXPIMjmENAzN9X7r2aUyQvjEMt7mkC9vqWQiC26IPhax+cAXEZwd0KhssjBiyxvcR/EwXg9ivqmR4YxzzmAvKCxESJvs45GsdlcHNuAO6FkrHiq45HAAOBJuzZM92fjWQgIiICIiAiIgIiICIiAiIgIiICIiAiIgIiICsVgGLH71nWiIMCMtbWCmbG1rA8sBF+MMl99+dW6eV0kTSQA7Gc0uGc3NB+qIgy7OfjyX4rW/ZMccXbJF5XkN0j+/AcAHPuOYnGIvPwCIgrYG6YC1gblvIbkBPEsSqnc25xa15MeOS4X7ZyeocSIgqlkMc87LmvDYXEY+W7I03cWVUB9zMTFbkld312U3Nac/wCnEiIK2vxnM71oDjEC0ZjjDKsyiOPRlxAGNfkGYIiDEZcI4zcDeYWkHcIA+q8hIfVTQYuK1gcQWk42Qjbv9f8A+kRB5SVDzCZQ1rXB2Lc0ZD3l/Wk78Wq0kta4EtBcb8Y33X5dr4IiC5I7FqKiNuRkbC4NBPfXNacvKrcMgfDUSGNl8bAWgC4Zd0ZtpEQeSyubHG4hry5rje8X3XG4AKqeV7Wvbna2IPaHZQCbuXOc6Igv0TWzR3PaMUsBIGa+8hZcUMcRJY24nOiILiIiAiIgIiICIiAiIgIiICIiAiIgIiICIiAiIg19aGh1TIWBxYGOAOa/KNrjWJLO5tK6VrWgtkDS0C5rhdflCIgvPfizFuI0tx3txTmyNvHUskHGoYb8z3Nxh6ic3EiIKIwx0AkfGx7pLy4uF/wVTbwGtDnDHcGk3m+7LkvREGHBM54cQ1rCInPBaLjeOv4qmeX/AIVh0uM4rZDmz3Ouy8e2iILskn/FSXsYRjPF12TI0m/jRjzfcQCSYwHHOMYG+7kREGXXgXxG7L339BWLKQ2OY4oOlsjc3Ptki7iyIiC3LKWUUdQGNJcXAtP3cl+W74LJc91z47ziMBcBecveg3X57sqIgsQSCSGokdGwGKLHaALhfcc428yTSuZFE4gPLi8d+L7g03C5EQVlxaaUM7zTWhziCb8pGS88aohlLpi0Na27HuLchGLmy7fxREHjZnPngx2sdpmVxIy/eI+GZZ8VPFLDG6RuMSwXk7ebsCIgyGNDGhrcwXqIgIiICIiAiIgIiICIiAiIgIiICIiAiIgIiIKZcsTwfRK1NQ8QMjc2Nji6EOOML8wA+CIgSyFlRPHcHBkYc0uylv3e1XYXf8QGXC/Ti3G27gAfqiIL1SS6pLDmJYz4G8nluCPawO7yNrC3ICwXFEQWqt5a3MCGuaxrTmAuz3bvGrIldiU7rm3PkILf4cjgAbviiIPDLdJOdLjN7Xm4tzXPA/fjVTXG7FAAIc9uNtm5oOXlREGTZzseQnFa37Np73bJAKoc0GeQXXd+85PZaiILBkAkphpbPtmRl2fJjG43Zciq0wtqpoh/dtcQ8/evAByn4oiCqrlcMV5DXl7nDvheABuBC7FbSlgxDM3GcQSSLy0ZL/aKIgpieH1wgMbcXTHNvF9+S/bvvOZU6a7SpXEC5jw1rf4ReSM3wREFcUjiyMDvRJLiODcguvHIeJLPfpzu+axt77jii68XHIiIM9lNC14eGd8Nv43q8iICIiAiIgIiICIiAiIg/9k=;" vertex="1" parent="7">
                    <mxGeometry x="385" y="145.85999999999996" width="324" height="234.14" as="geometry"/>
                </mxCell>
            </root>
        </mxGraphModel>
    </diagram>
</mxfile>